<svg version="1.1" id="Layer_1" xmlns="http://www.w3.org/2000/svg" x="0" y="0" viewBox="0 0 457.7 229.3" xml:space="preserve"><style>.st0{fill:#ed7b37}.st1{fill:#f15a22}.st2{fill:#fff}.st3{fill:#52c6d8}.st4{fill:#ade0ee}.st5{fill:#faa74b}</style><path class="st0" d="M273.6 45.7l45.6 45.6 45.5 45.7 45.6-45.5-45.5-45.7L319.3.1z"/><path transform="rotate(-44.911 227.988 91.179)" class="st1" d="M163.5 26.7h128.9v128.9H163.5z"/><path id="XMLID_1696_" class="st2" d="M227 34.1c-2 2-2.9 2.5-3.2 5.7-.3 3.2 2.8 10.6 3.3 11.7.5 1.1 1.1 2.2 1.6 3.4l-.1.1-.1.1h-.1c-1.1-.6-2.2-1.1-3.3-1.6-1.1-.5-8.5-3.6-11.7-3.3-3.2.3-3.7 1.2-5.7 3.2 0 0 .2 1.2 1.4 2.4s2.4 1.5 2.4 1.5c.9-.9 1.3-1.3 2-1.4 2.4-.3 5.7 1 5.7 1l11.6 4.7 10.6 10.6s1.5-.6 2.6-1.7 1.6-2.5 1.6-2.5L235 57.4l-4.7-11.6s-1.3-3.4-1-5.7c.1-.6.5-1.1 1.4-2 0 0-.3-1.3-1.5-2.4-1-1.4-2.2-1.6-2.2-1.6"/><path id="XMLID_1695_" class="st2" d="M256.6 68.1s-1.1.1-2.7 1.7c-1.6 1.6-1.6 2.6-1.6 2.6l18.2 18.3c1.2 1.2 1.7 2.4 1.7 3.8s-.5 2.6-1.6 3.6c-1.2 1.2-2.6 1.8-4 1.6-1.4-.2-2.7-.8-3.8-1.9l-18-18s-1.3.3-2.6 1.6-1.6 2.6-1.6 2.6l17.9 17.9c1.1 1.1 2.4 2.1 3.7 2.7 1.3.7 2.7 1.1 4.1 1.1 1.4.1 2.8-.2 4.3-.7 1.4-.6 2.8-1.5 4.2-2.9 1.2-1.2 2.1-2.4 2.7-3.8.6-1.3.9-2.7.9-4.1 0-1.4-.3-2.8-.9-4.2-.6-1.4-1.5-2.7-2.8-4l-18.1-17.9"/><path class="st2" d="M260.4 108.6s-1.6 1.7-2.9 1.6c-1.3-.1-1.8-.3-2.7-.7-1-.5-7.4-3.4-7.4-3.4.7-2 .9-3.9.4-5.8s-1.6-3.6-3.2-5.3c-1.2-1.2-2.5-2.1-3.8-2.7-1.3-.6-2.6-.8-3.9-.8-1.3 0-2.5.4-3.8 1-1.2.6-2.4 1.4-3.5 2.5l-8.4 8.3 25.9 26s1.3-.4 2.5-1.7c1.2-1.2 1.7-2.6 1.7-2.6l-10.8-10.8 3.3-3.3s8.9 4.5 10.3 4.9c1.8.5 3.5.9 5.6 0 2.3-1 4.3-3.4 4.3-3.4s-.4-1.2-1.3-2.2c-.9-1.1-2.3-1.6-2.3-1.6zm-18.2-5.6c0 1.3-.6 2.5-1.7 3.6l-3.7 3.7-7.4-7.4 3.8-3.8c1.2-1.2 2.4-1.8 3.6-1.8 1.2 0 2.4.6 3.6 1.8 1.2 1.3 1.8 2.6 1.8 3.9z"/><path id="XMLID_1692_" class="st2" d="M233.9 142.5s1.4-.6 2.8-2 1.8-2.6 1.8-2.6-.5-1.3-2-2.8c-1.5-1.5-2.8-2-2.8-2s-1.2.4-2.7 1.9c-1.5 1.5-1.9 2.7-1.9 2.7s.5 1.3 2 2.8c1.5 1.6 2.8 2 2.8 2"/><path class="st2" d="M210.4 61.1c-1.3-.6-2.6-1-4-1.1-1.4-.1-2.9.1-4.3.6-1.5.5-2.9 1.5-4.3 2.8-1.5 1.5-2.5 2.9-3 4.4-.5 1.5-.7 3-.6 4.4.1 1.4.5 2.7 1.2 4 .7 1.2 1.4 2.3 2.4 3.2l9.8 9.8c1.1 1.1 2.4 2.1 3.7 2.8 1.3.7 2.7 1.2 4.1 1.3 1.4.1 2.9-.1 4.3-.6 1.5-.6 2.9-1.5 4.3-3 1.2-1.2 2.1-2.4 2.7-3.8.6-1.3.9-2.7.9-4.1 0-1.4-.3-2.8-.9-4.2-.6-1.4-1.5-2.7-2.8-3.9l-10.2-10.3c-.9-.8-2-1.7-3.3-2.3zm9.6 17.4c1.1 1.1 1.7 2.4 1.6 3.8-.1 1.4-.6 2.5-1.5 3.5-1.4 1.4-2.8 1.9-4.2 1.6-1.4-.3-2.7-1-4-2.3l-10-9.9c-.4-.4-.8-.9-1.1-1.5-.3-.6-.5-1.2-.6-1.9-.1-.7 0-1.4.2-2.1.2-.7.7-1.5 1.4-2.2.7-.7 1.5-1.2 2.2-1.3.7-.2 1.5-.2 2.1-.1.7.1 1.3.4 1.8.7.5.3 1 .7 1.3 1L220 78.5z"/><path id="XMLID_1689_" class="st2" d="M190.7 78.6s-.3-1.3-1.5-2.5-2.4-1.4-2.4-1.4l-15.7 15.7s.3 1.1 1.4 2.3c1.2 1.2 2.4 1.6 2.4 1.6l5.7-5.7 22 22.1s1.3-.7 2.5-1.8c1.2-1.2 1.8-2.5 1.8-2.5l-22-22.1 5.8-5.7z"/><path class="st3" d="M0 136.4l45.5 45.7 45.6-45.5 45.6 45.6 45.6-45.5-91-91.3z"/><path transform="rotate(-44.911 136.878 45.446)" class="st4" d="M104.6 13.2h64.5v64.5h-64.5z"/><path class="st4" d="M114 91l-22.8 22.8-22.8-22.9 22.8-22.8L114 91zm7.6 30.4H152v30.4h-30.4v-30.4z"/><path class="st3" d="M154.1 45.5c0 9.5-7.7 17.2-17.2 17.2s-17.2-7.7-17.2-17.2 7.7-17.2 17.2-17.2 17.2 7.7 17.2 17.2"/><path transform="rotate(-44.911 319.097 136.912)" class="st5" d="M286.9 104.7h64.5v64.5h-64.5z"/><path class="st0" d="M336.3 136.9c0 9.5-7.7 17.2-17.2 17.2s-17.2-7.7-17.2-17.2 7.7-17.2 17.2-17.2 17.2 7.7 17.2 17.2"/><path transform="rotate(-44.911 410.42 45.873)" class="st5" d="M378.2 13.6h64.5v64.5h-64.5z"/><path class="st5" d="M381.9 91.4c0 9.5-7.7 17.2-17.2 17.2s-17.2-7.7-17.2-17.2 7.7-17.2 17.2-17.2c9.6 0 17.3 7.7 17.2 17.2m-45.5-45.6c0 9.5-7.7 17.2-17.2 17.2S302 55.3 302 45.8s7.7-17.2 17.2-17.2c9.6-.1 17.2 7.7 17.2 17.2"/><path class="st4" d="M62.7 136.5c0 9.5-7.7 17.2-17.2 17.2s-17.2-7.7-17.2-17.2 7.7-17.2 17.2-17.2c9.6 0 17.3 7.7 17.2 17.2"/><path class="st0" d="M433.2 45.9l-22.8 22.8-22.8-22.8 22.8-22.8 22.8 22.8z"/><path id="XMLID_98_" class="st1" d="M16.8 223.4v-13.8h-.1l-1.2 3-1.7 3.7-1.8 3.8H8.8l-1.3-2.8-2.2-4.9-1.3-2.9-.1.1v13.8H-.2v-23.3h3.8l3 6.7c.6 1.4 1.3 2.8 1.9 4.2l1.8 4.2h.1l1.9-4.5 1.7-3.9 3-6.7h3.9v23.3h-4.1z"/><path id="XMLID_94_" class="st1" d="M25.6 223.4v-23.3h4.1v9.5H35c1.2 0 2.4.2 3.3.5 1 .4 1.8.8 2.4 1.4.7.6 1.2 1.3 1.5 2.1.3.8.5 1.7.5 2.6 0 1.2-.2 2.2-.6 3.1-.4.9-1 1.6-1.7 2.2-.7.6-1.5 1-2.5 1.3-1 .3-2 .4-3.1.4l-9.2.2zm13-6.9c0-.8-.3-1.5-.9-2.2-.6-.6-1.6-1-2.8-1h-5.1v6.4h5.1c1.2 0 2.1-.3 2.8-.9.5-.5.9-1.3.9-2.3zm6.2 6.9v-23.3h4.1v23.3h-4.1z"/><path id="XMLID_92_" class="st1" d="M68.8 223.6c-2.1 0-3.9-.5-5.4-1.4-1.5-.9-2.6-2.2-3.2-3.9l3.8-1.7c.2.4.4.9.7 1.2s.7.7 1.2 1c.4.3.9.5 1.4.7.5.2 1.1.3 1.6.3 1.3 0 2.4-.3 3.2-.9.8-.6 1.3-1.5 1.3-2.6s-.3-1.9-1-2.5c-.7-.6-1.6-.9-2.8-.9h-2.7v-3.4h2.8c1 0 1.9-.3 2.6-.8.7-.5 1-1.3 1-2.1 0-.9-.4-1.6-1.1-2.1-.7-.5-1.6-.7-2.7-.7s-2.1.3-3 .8c-.9.5-1.5 1.3-1.9 2.1l-3.5-1.8c.7-1.5 1.7-2.7 3.2-3.6 1.4-.9 3.2-1.4 5.3-1.3 2.4 0 4.4.5 5.8 1.6 1.4 1.1 2.1 2.6 2.1 4.5 0 .4-.1.8-.2 1.3s-.3.9-.6 1.4-.6.9-1 1.3-1 .7-1.6 1v.2c.7.2 1.3.5 1.8 1 .5.4.8.9 1.1 1.4.3.5.5 1 .6 1.5.1.5.1 1 .1 1.4 0 1.1-.2 2.1-.7 3-.4.9-1.1 1.6-1.8 2.2-.8.6-1.7 1.1-2.8 1.4-1.2.3-2.4.4-3.6.4z"/><path id="XMLID_90_" class="st1" d="M94.4 223.5v-10h-9v10h-4.1v-23.3h4.1v9.8h9v-9.8h4.1v23.3h-4.1z"/><path id="XMLID_87_" class="st1" d="M117.5 223.5l-1.8-5.2h-8.6l-1.9 5.2h-4.3l8.8-23.3h3.3l8.8 23.3h-4.3zm-4.5-13.3l-1.5-4.8h-.1l-1.5 4.7-1.6 4.8h6.3l-1.6-4.7z"/><path id="XMLID_85_" class="st1" d="M124.4 223.6v-23.3H140v3.7h-11.6v6.1h9.8v3.6h-9.8v6.3H140v3.7l-15.6-.1z"/><path id="XMLID_83_" class="st1" d="M160.3 223.6v-13.8h-.1l-1.2 3-1.7 3.7-1.8 3.8h-3.2l-1.3-2.8-2.2-4.9-1.2-2.8-.1.1v13.8h-4.1v-23.3h3.8l3 6.7c.6 1.4 1.3 2.8 1.9 4.2l1.8 4.2h.1l1.9-4.5 1.7-3.9 3-6.7h3.9v23.3l-4.2-.1z"/><path id="XMLID_81_" class="st1" d="M168.5 228l1.2-4.4h-1.1v-4.7h4.6v4.5l-2.6 4.6h-2.1z"/><path id="XMLID_79_" class="st1" d="M188.9 200.3v6.9c0 1.5.4 2.6 1.1 3.3.7.7 1.8 1.1 3.1 1.1.6 0 1.4-.1 2.2-.3.9-.2 1.7-.6 2.3-1.1v-9.8h4v23.3h-4.1v-10.1c-.8.5-1.8.9-2.7 1.1-1 .2-1.9.3-2.8.3-1 0-2-.2-2.8-.5-.9-.3-1.6-.8-2.3-1.3-.6-.6-1.1-1.3-1.5-2.2-.4-.9-.5-2-.5-3.2v-7.3l4-.2z"/><path id="XMLID_77_" class="st1" d="M206.6 223.7v-23.3h15.6v3.7h-11.6v6.1h9.8v3.6h-9.8v6.3h11.6v3.7l-15.6-.1z"/><path id="XMLID_75_" class="st1" d="M229.6 204.1v19.6h-4.1v-23.3h15.6v3.7h-11.5z"/><path id="XMLID_72_" class="st1" d="M250.9 200.3c1.3 0 2.5.2 3.6.7 1.1.4 2 1.1 2.7 1.8.8.8 1.3 1.7 1.7 2.8.4 1.1.6 2.3.6 3.5v6c0 1.4-.2 2.6-.6 3.7-.4 1.1-1 2-1.8 2.8-.8.8-1.7 1.4-2.7 1.8s-2.3.6-3.6.6c-1.5 0-2.7-.2-3.8-.7-1.1-.5-2-1.1-2.7-1.9-.7-.8-1.2-1.8-1.6-2.8-.4-1.1-.5-2.2-.5-3.4v-6c0-1.2.2-2.3.5-3.3.4-1.1.9-2 1.6-2.8.7-.8 1.6-1.5 2.7-1.9 1.2-.7 2.4-.9 3.9-.9zm0 3.8c-.8 0-1.5.1-2 .4-.6.3-1 .6-1.4 1.1-.4.5-.7 1-.9 1.6-.2.6-.3 1.2-.3 1.8v6.3c0 .6.1 1.3.3 1.9.2.6.5 1.1.9 1.6s.9.8 1.4 1.1 1.2.4 2 .4c.7 0 1.4-.1 1.9-.4.6-.3 1.1-.6 1.4-1.1.4-.4.7-1 .9-1.6.2-.6.3-1.3.3-2v-6.3c0-.7-.1-1.3-.3-1.9-.2-.6-.5-1.1-.9-1.5s-.9-.8-1.4-1c-.6-.3-1.2-.4-1.9-.4z"/><path id="XMLID_70_" class="st1" d="M284.2 223.8l-5.1-8.6-5.1 8.6h-4.6l7.6-11.9-7.1-11.4h4.6l4.6 8 4.6-8h4.6l-7.1 11.4 7.5 11.9h-4.5z"/><path id="XMLID_67_" class="st1" d="M299 200.3c1.3 0 2.5.2 3.6.7s2 1.1 2.7 1.8c.8.8 1.3 1.7 1.7 2.8.4 1.1.6 2.3.6 3.5v6c0 1.4-.2 2.6-.6 3.7-.4 1.1-1 2-1.8 2.8-.8.8-1.7 1.4-2.7 1.8-1.1.4-2.3.6-3.6.6-1.5 0-2.7-.2-3.8-.7-1.1-.5-2-1.1-2.7-1.9-.7-.8-1.2-1.8-1.6-2.8-.4-1.1-.5-2.2-.5-3.4v-6c0-1.2.2-2.3.5-3.3.4-1.1.9-2 1.6-2.8.7-.8 1.6-1.5 2.7-1.9 1.2-.6 2.5-.9 3.9-.9zm0 3.9c-.8 0-1.5.1-2 .4-.6.3-1 .6-1.4 1.1-.4.5-.7 1-.9 1.6-.2.6-.3 1.2-.3 1.8v6.3c0 .6.1 1.3.3 1.9.2.6.5 1.1.9 1.6s.9.8 1.4 1.1c.6.3 1.2.4 2 .4.7 0 1.4-.1 1.9-.4.6-.3 1.1-.6 1.4-1.1.4-.4.7-1 .9-1.6.2-.6.3-1.3.3-2V209c0-.7-.1-1.3-.3-1.9-.2-.6-.5-1.1-.9-1.5s-.9-.8-1.4-1c-.5-.3-1.2-.4-1.9-.4z"/><path id="XMLID_65_" class="st1" d="M320 204.2v19.7h-4.1v-19.7h-6.5v-3.6h17v3.6H320z"/><path id="XMLID_62_" class="st1" d="M345.5 200.6v23.3h-4.1v-9.8h-3.2c-.4 0-.9.1-1.3.2s-.8.3-1.2.6c-.4.3-.7.7-1.1 1.2-.3.5-.6 1.1-.8 1.9l-1.8 6h-4.3l1.9-6.6c.3-1 .6-1.8 1.1-2.5.4-.7 1.1-1.2 2-1.5-.7-.2-1.4-.5-1.9-.9s-.9-.9-1.2-1.4c-.3-.5-.6-1.1-.7-1.7-.1-.6-.2-1.2-.2-1.8 0-1 .2-2 .5-2.8.4-.9.9-1.6 1.5-2.2.6-.6 1.4-1.1 2.3-1.4.9-.3 1.9-.5 2.9-.5l9.6-.1zm-12.6 7c0 .5.1 1 .3 1.4.2.4.5.7.8.9.4.2.8.4 1.3.5.5.1 1 .2 1.6.2h4.5v-6.4h-4.7c-1.2 0-2.1.3-2.7.9-.7.5-1.1 1.4-1.1 2.5z"/><path id="XMLID_60_" class="st1" d="M358.6 204.2v19.7h-4.1v-19.7H348v-3.6h17v3.6h-6.4z"/><path id="XMLID_57_" class="st1" d="M374.4 220.7c.4-.1.7-.1 1.1-.2.4-.1.7-.2 1.1-.2.5-.4 1-.8 1.3-1.3.3-.5.6-1.1.8-1.9.2-.7.3-1.7.4-2.7.1-1.1.2-2.4.2-3.9l.4-9.8h15.4v19.8h2.2v8.7h-3.6V224H378v5.2h-3.6v-8.5zm8.9-16.4c0 1.1-.1 2.1-.1 3.1s-.1 2.1-.1 3.1-.1 2-.2 3-.1 1.9-.3 2.7c-.1.8-.3 1.6-.5 2.3-.2.7-.5 1.3-.9 1.8h9.8v-16.1l-7.7.1z"/><path id="XMLID_55_" class="st1" d="M400.7 224v-23.3h15.6v3.7h-11.6v6.1h9.8v3.6h-9.8v6.3h11.6v3.7l-15.6-.1z"/><path id="XMLID_53_" class="st1" d="M427.9 204.3V224h-4.1v-19.7h-6.5v-3.6h17v3.6h-6.4z"/><path id="XMLID_51_" class="st1" d="M437.1 224v-23.3h4.1v16.5h.1l5.4-8.3 5.4-8.2h3.4V224h-4.1v-15.8h-.1l-4.6 7.1c-1 1.4-2 2.9-2.9 4.3-1 1.4-1.9 2.9-3 4.3l-3.7.1z"/></svg>