<svg xmlns="http://www.w3.org/2000/svg" viewBox="0 0 2045.251 1235.387"><path d="M0 619.237v-1c.494-.531.513-1.188.499-1.857-.392-18.645.598-37.266 1.033-55.896.265-11.366 3.422-22.352 4.813-33.574 3.728-30.067 12.396-59.007 21.281-87.76 6.328-20.479 14.908-40.323 23.845-59.858 7.619-16.653 15.503-33.217 23.981-49.46 5.162-9.89 11.975-18.825 17.714-28.395 14.774-24.637 32.816-46.951 49.898-69.934 6.548-8.809 15.18-15.859 22.59-23.991 15.268-16.755 32.349-31.683 49.041-46.994 18.086-16.59 38.103-30.744 57.679-45.408 12.37-9.267 26.063-16.76 39.486-24.468 30.516-17.523 62.211-32.506 95.371-44.557 23.839-8.663 48.089-15.863 72.447-22.683 12.78-3.578 26.318-3.913 39.443-6.15 16.787-2.861 33.753-3.118 50.681-4.221 13.334-.869 26.632-.793 39.937-.699 21.309.151 42.562 1.878 63.7 4.401 41.253 4.924 81.718 13.757 121.593 25.442 36.797 10.783 71.476 26.535 105.286 44.318 24.223 12.74 46.993 27.888 69.163 43.864 14.996 10.806 28.729 23.238 42.518 35.564 2.788 1.599 5.047 3.817 7.291 6.055 11.791 11.763 23.705 23.406 34.809 35.837.887.993 1.861 1.91 2.477 3.12 1.27 2.494.547 4.171-2.098 4.969-2.107.636-4.301.425-6.459.427-25.831.03-51.661.061-77.491-.036-4.286-.016-7.747.917-10.493 4.449-5.607 7.213-11.118 14.487-16.522 22.03 1.977 2.078 4.256 1.326 6.26 1.328 43.495.046 86.992.222 130.484-.128 8.474-.068 14.228 2.938 18.975 9.53 5.446 7.562 11.117 14.966 16.77 22.379 1.11 1.456 2.149 2.973 3.019 4.587 2.741 5.083 1.437 7.453-4.311 7.801-2.495.151-4.998.073-7.498.073-62.493.002-124.987.085-187.479-.125-6.509-.022-10.662 1.821-13.348 7.856-2.019 4.537-5.001 8.634-7.556 12.925-1.256 2.11-2.844 4.113-2.952 7.033 2.12 1.7 4.701 1.073 7.075 1.074 74.659.036 149.32.33 223.973-.269 12.366-.099 19.301 4.363 23.909 14.997 2.843 6.562 6.389 12.821 9.537 19.257 3.948 8.071 2.691 10.128-6.108 10.24-2.333.03-4.666.013-6.999.013-88.324 0-176.648.084-264.971-.153-7.368-.02-11.934 1.633-14.126 9.135-1.239 4.242-3.533 8.248-5.343 12.363-2.451 5.571-1.917 6.345 4.001 6.44 1.666.027 3.333.007 4.999.007l290.968.001c2.666 0 5.335.078 7.998.024 4.534-.092 7.594 1.984 9.477 6.017 4.661 9.984 8.252 20.372 11.408 30.903 1.644 5.485-.24 7.875-5.9 8.192-2.662.149-5.332.07-7.998.071-106.988.002-213.977.001-320.965.001-2 0-4.015.161-5.996-.026-4.536-.428-7.107 1.409-8.381 5.88-1.596 5.598-3.504 11.102-4.847 16.784-.821 3.475.257 5.11 3.837 5.123 2 .007 3.999.029 5.999.029 114.321.002 228.642-.002 342.963.004 12.408.001 12.638.214 15.711 12.453 1.823 7.263 3.655 14.524 5.447 21.795 2.175 8.826.601 10.925-8.414 10.935-45.495.05-90.99.02-136.485.021-73.159.003-146.317.011-219.476-.029-3.281-.002-6.681.629-9.793-1.074-2.219-3.514-5.509-4.078-9.437-4.024-13.653.189-27.311.037-40.967.091-5.264.021-6.407.826-6.762 5.804-2.207 30.981-10.09 60.988-15.642 91.388-6.394 35.006-13.605 69.861-20.096 104.85-1.82 9.808-3.382 19.794-2.288 29.771 1.129 10.295 2.851 21.059 12.529 27.071 8.624 5.357 18.379 8.667 28.754 8.95 12.812.35 25.616.177 38.319-1.94 7.562-1.261 8.321-1.858 10.172-9.382 2.505-10.177 5.099-20.331 7.617-30.504.434-1.753.896-3.5.791-5.501-3.302-.979-6.417-.667-9.485-.088-7.08 1.334-14 .465-20.653-1.897-6.515-2.312-9.812-7.684-9.999-14.249-.231-8.128.785-16.255 2.707-24.212.49-2.029 1.388-3.751 3.534-4.495 3.039-1.135 6.204-.712 9.317-.728 9.73-.049 19.461-.055 29.191.006 2.126.013 4.311-.212 6.286.89 2.551 1.495 2.603 4.054 2.735 6.561 1.144 21.749 8.707 41.135 23.304 57.131 13.084 14.338 30.076 22.322 49.25 25.396 13.159 2.11 26.385 3.899 39.752 3.035 16.559-1.07 33.21-1.166 49.272-6.626 6.799-2.311 10.492-5.671 11.394-13.052 1.331-10.889 3.566-21.671 5.672-32.452.225-1.15.449-2.296-.179-3.498-1.876-1.096-3.484.153-5.056.866-16.542 7.501-33.876 11.474-51.977 13.082-12.733 1.131-24.869-.814-36.928-4.168-14.638-4.072-25.294-12.831-31.333-27.057-2.04-4.807-2.593-9.63-1.933-14.647.631-4.794 3.093-6.932 7.998-7.325 1.992-.159 3.997-.072 5.997-.072 38.324-.004 76.649.007 114.973-.009 6.852-.003 6.812-.043 8.138-6.547.432-2.12.647-4.292 1.313-6.356 6.548-20.289 5.46-40.795.998-61.171-2.946-13.452-11.088-23.946-21.4-32.924-12.595-10.967-27.778-15.482-43.757-17.807-20.144-2.931-39.387-.522-58.553 7.446-29.641 12.323-46.066 35.471-57.041 63.897-2.817 7.295-5.175 14.759-6.219 22.589-.341 2.559-.619 5.391-3.268 6.993-2.198.985-4.527 1.026-6.868 1.028-9.83.009-19.661.039-29.491-.022-2.307-.014-4.7.269-6.786-1.138-2.202-1.885-2.133-4.359-1.678-6.882 2.42-13.403 4.667-26.838 7.398-40.182 1.041-5.087 3.026-6.745 8.224-6.889 7.318-.204 14.644-.179 21.961-.026 4.325.091 6.217-1.664 6.885-5.948a1871.913 1871.913 0 0 1 5.537-33.42c.779-4.459.019-5.409-4.49-5.496-6.987-.134-13.977.061-20.964-.082-6.417-.131-8.128-2.13-6.918-8.367.618-3.186.796-6.732 4.075-8.756 2.165-1.146 4.523-1.011 6.846-1.011 123.208-.026 246.416-.037 369.624.01 7.991.003 9.614 1.307 10.99 9.098 1.039 5.88 2.18 11.782 1.721 17.812.219 2.445-.804 4.566-1.918 6.608-13.346 24.47-18.489 51.083-20.561 78.502-.177 2.346-.302 4.696-2.557 6.186-1.653.976-3.487.971-5.307.977-18.037.061-36.075.061-54.112-.004-1.809-.007-3.66.086-5.319-.864-2.529-1.703-2.437-4.207-1.812-6.706 3.842-15.354 11.3-28.099 26.153-35.251 6.995-3.368 14.589-2.763 22.032-2.586 2.922.07 5.347.13 6.135-3.379 3.857-17.176 11.251-33.035 18.285-49.028.268-.609.472-1.248.267-2.088-1.243-1.761-3.248-1.179-4.942-1.049-8.81.674-17.482 2.217-25.957 4.734-4.042 1.2-7.633 3.226-10.613 6.307-5.089 5.263-10.582 10.137-14.967 16.066-1.713 2.317-3.789 4.697-7.05 3.322-3.421-1.442-3.283-4.764-2.897-7.775.698-5.444 1.62-10.859 2.474-16.282.923-5.865.349-6.44-5.409-6.454-13.493-.034-26.987.095-40.477-.074-4.213-.053-5.809 1.29-6.042 5.679-1.194 22.501-6.422 44.41-10.301 66.51-6.384 36.374-13.032 72.703-19.566 109.051-1.682 9.356-4.523 18.416-6.864 27.604-1.435 5.63-1.03 6.12 4.627 6.133 15.325.035 30.65.037 45.975 0 5.781-.014 6.473-.728 7.164-6.471.339-2.815-.468-6.316 3.815-7.029 3.315.493 6.649.433 9.979.435 25.644.011 51.288-.039 76.932.028 8.34.022 10.119 2.256 8.297 10.371-2.043 9.095-4.826 17.99-7.616 26.874-1.721 5.48-3.654 6.742-9.505 6.915-2.497.074-4.995.038-7.493.038-110.069.001-220.139 0-330.208.003-9.891 0-9.911.031-6.804 9.357.841 2.526 1.735 5.035 2.36 7.617.886 4.306-.295 9.588 5.486 11.598 2.672.33 5.342.203 8.006.203 102.652.006 205.303.005 307.955.006 2.5 0 5-.037 7.499.033 6.978.196 8.869 2.552 6.777 9.064-3.209 9.993-6.896 19.802-11.958 29.057-2.23 4.077-5.314 6.218-10.025 6.048-2.661-.096-5.331.008-7.998.008-91.487.001-182.973-.001-274.46.014-2.302 0-4.651-.323-7.04.521-.585 2.573.959 4.532 1.782 6.59 2.102 5.254 4.681 10.309 6.759 15.575 1.393 3.531 3.747 5.327 7.636 5.092 1.99-.12 3.998-.004 5.997-.004 81.321.001 162.643 0 243.964.002 2.499 0 5.007-.111 7.496.112 4.751.425 6.435 2.861 5.203 7.482-.517 1.94-1.425 3.732-2.462 5.45-4.903 8.126-9.925 16.188-14.55 24.472-3.096 5.547-7.264 7.814-13.747 7.796-60.491-.168-120.982-.107-181.473-.102-7.499.001-14.998-.031-22.497.023-1.776.013-3.675-.469-5.274.756-.509 1.53.407 2.642 1.084 3.712 4.01 6.328 7.943 12.704 11.93 19.047 1.884 2.998 4.385 4.378 7.883 4.243 1.995-.077 3.998.006 5.998.006 52.659.003 105.318-.023 157.977.051 3.344.005 7.64-1.318 9.542 2.484 1.891 3.778-1.631 6.537-3.681 9.167-7.674 9.842-15.986 19.168-23.746 28.947-2.265 2.855-5.277 4.497-9.081 4.508-35.328.095-70.655.099-105.983-.01-1.009-.003-1.98-.269-2.91-.429-.263 2.974 2.629 3.352 4.031 4.931a1143.362 1143.362 0 0 1 18.703 18.673c2.624 2.682 5.488 3.871 9.274 3.838 14.292-.124 28.586-.098 42.879-.015 2.745.016 6.206-.68 7.596 2.379 1.474 3.243-1.182 5.719-3.278 7.733-7.781 7.478-16.165 14.304-23.923 21.812a27.081 27.081 0 0 1-4.201 4.26c-22.989 18.722-46.814 36.268-71.73 52.38-29.19 18.876-60.275 34.126-91.707 48.693-16.177 7.497-33.379 12.435-50.238 18.217-31.959 10.959-64.879 17.656-98.169 22.748-18.754 2.869-37.655 4.43-56.575 5.883-9.994.768-19.959.576-29.937.868-29.765.871-59.05-3.486-88.449-7.298-30.18-3.913-59.463-11.576-88.761-19.234-16.431-4.295-32.287-10.619-48.092-16.793-30.785-12.025-59.415-28.397-88.229-44.471-26.92-15.017-50.965-33.966-75.612-52.138-6.563-4.839-11.852-11.185-17.993-16.577-22.689-19.917-43.784-41.592-63.137-64.618-19.031-22.642-36.086-46.948-51.847-72.167-24.168-38.672-41.96-80.149-57.736-122.705-7.501-20.233-11.967-41.247-17.358-62.019-6.071-23.393-8.869-47.43-12.535-71.27-1.305-8.486-.426-17.274-.635-25.924-.265-10.975-.989-21.952-.62-32.941.03-.673.003-1.33-.491-1.861z" fill="#fe0000"/><path d="M1009.845 166.225c11.538-11.787 23.48-23.12 36.791-32.929 11.284-8.315 22.347-16.948 33.867-24.921 9.343-6.467 19.216-12.168 28.862-18.197 6.347-3.967 12.636-8.033 19.077-11.841 10.233-6.051 21.153-10.772 31.781-16.057 4.369-2.172 8.999-3.857 13.24-6.244 12.122-6.824 25.4-10.779 38.246-15.801 10.271-4.015 20.449-8.348 30.936-11.705 11.262-3.605 22.841-6.218 34.273-9.298 6.733-1.814 13.486-3.566 20.159-5.582 6.614-1.998 13.491-2.225 20.228-3.371 8.362-1.422 16.74-2.924 25.175-3.691 9.468-.862 18.718-3.06 28.279-3.512 13.633-.644 27.275-1.486 40.895-2.65 10.092-.862 20.316-.138 30.48-.2 12.544-.076 24.921 1.953 37.379 2.805 11.647.796 23.092 2.816 34.594 4.37 21.269 2.875 42.467 6.324 63.152 12.409 12.439 3.659 25.323 5.689 37.516 10.331 25.482 9.701 51.567 17.795 75.804 30.715 9.154 4.88 18.949 8.762 28.045 13.792 15.791 8.733 31.251 18.08 46.672 27.462 15.231 9.267 28.506 21.234 42.855 31.722 11.075 8.095 20.786 17.702 30.936 26.846 8.972 8.082 18.273 15.826 26.464 24.699 19.161 20.758 37.971 41.735 55.067 64.377a604.885 604.885 0 0 1 47.012 72.456c12.771 23.159 24.813 46.889 33.495 72.094 4.91 14.255 11.234 28.046 15.699 42.425 5.959 19.191 11.001 38.683 15.875 58.186 1.89 7.564 2.185 15.52 3.317 23.281 1.201 8.229 2.904 16.403 3.696 24.667.657 6.859 2.049 13.599 2.413 20.521.716 13.636 1.566 27.272 2.695 40.893.864 10.427.156 20.983.184 31.481.031 11.711-1.917 23.256-2.788 34.88-.859 11.469-2.841 22.748-4.325 34.1-2.699 20.647-5.512 41.302-11.885 61.268-4.337 13.589-6.888 27.705-11.95 41.088-9.588 25.348-18.436 50.91-30.341 75.427-11.918 24.544-25.743 47.801-40.168 70.846-10.243 16.364-22.824 30.954-33.877 46.686-7.695 10.952-17.136 20.388-26.093 30.266-8.11 8.944-15.755 18.358-24.723 26.436-17.719 15.96-34.431 33.04-53.818 47.16-11.334 8.255-21.847 17.701-33.602 25.356-14.026 9.133-28.54 17.521-42.933 26.081-19.372 11.52-40.103 20.384-60.399 30.037-12.544 5.966-26.104 9.766-39.089 14.842-26.065 10.188-53.32 16.293-80.244 23.5-7.519 2.013-15.48 2.365-23.234 3.515-7.907 1.172-15.784 2.577-23.717 3.528-6.497.779-12.886 2.651-19.472 2.427-11.293-.383-22.573.581-33.772 1.304-20.956 1.352-41.893.869-62.793.416-10.326-.224-20.84-1.432-31.179-3.487-10.399-2.067-21.053-2.845-31.594-4.203-15.51-1.999-30.741-5.347-45.841-9.368-11.128-2.963-22.4-5.426-33.422-8.734-8.681-2.604-17.093-6.114-25.595-9.299-9.718-3.64-19.454-7.241-29.091-11.086-12.738-5.082-24.525-12.164-36.953-17.904-18.696-8.635-35.456-20.556-53.132-30.924-22.843-13.398-42.957-30.604-64.931-45.186-1.089-.723-1.936-1.826-2.846-2.799-5.663-6.053-11.965-11.416-18.193-16.857 5.825-6.852 12.899-12.35 19.649-18.205 3.216-2.789 6.464-5.607 8.085-9.829-1.79-1.343-3.672-.764-5.408-.77-15.483-.052-30.966-.102-46.448.031-3.064.026-5.307-.776-7.448-3.036-6.748-7.122-13.707-14.045-20.585-21.044-.981-2.732-4.535-3.634-4.862-6.832 34.998-.049 69.999-.367 104.991.056 7.947.096 13.277-1.968 17.962-8.433 6.779-9.357 14.502-18.029 21.771-27.034 1.206-1.494 2.149-3.199 3.249-4.86-2.253-1.403-4.287-.847-6.201-.848-56-.035-112-.063-168 .047-3.865.008-6.443-.875-8.506-4.394-5.335-9.1-11.044-17.981-17.057-27.681h6.439c70 0 140-.029 210 .073 4.187.006 6.816-.773 9.039-4.914 5.002-9.316 10.871-18.164 16.319-27.243 1.443-2.405 2.538-4.992 2.858-8.124-1.937-1.344-4.147-.766-6.19-.766-85.5-.03-171-.061-256.499.077-4.262.007-6.638-1.074-8.255-5.117-3.552-8.881-7.532-17.591-11.365-26.434 2.21-.961 4.214-.529 6.153-.529 93.333-.026 186.668-.232 279.998.271 10.401.056 16.027-2.613 19.565-12.361 2.757-7.597 5.632-15.197 8.523-22.768.494-1.294 1.466-2.685.831-4.435-1.847-1.372-4.076-.695-6.137-.696-106.167-.038-212.333-.033-318.5-.039-2.332 0-4.663-.088-6.995-.135-2.997-3.382-2.99-7.993-4.843-11.843-1.885-6.787-5.05-13.214-6.152-20.161 2.444-1.344 4.656-.83 6.774-.831 114.161-.028 228.322-.024 342.483-.025 6.537 0 6.641.026 8.344-6.27 2.545-9.409 5.744-18.637 7.75-28.201.347-1.655.834-3.174.271-4.837-1.875-1.179-3.928-.664-5.874-.667-27.832-.036-55.664.002-83.496-.084-1.868-.006-4.555 1.32-5.362-1.958-1.957-1.527-2.029-3.727-1.865-5.864.583-7.563 1.711-15.039 3.947-22.316.555-1.805 1.392-3.347 3.272-4.076 2.045-.882 4.212-.837 6.37-.838 27.405-.022 54.809-.017 82.214-.005 1.994.001 3.988.012 5.909.617 2.411.211 3.688 1.937 5.072 3.657 9.313 11.571 19.002 22.768 32.585 29.621 14.551 7.341 29.972 12.207 46.108 14.099 18.556 2.176 37.2 2.09 55.696-1.07 4.078-.697 7.94-2.433 11.86-3.806 1.896-.664 2.897-2.114 2.922-4.209.027-2.334.636-4.66.639-6.95.017-13.164 4.689-25.075 9.569-36.953.505-1.228 1.09-2.457.419-4.085-2.136-.993-4.026.409-5.942 1.133-16.487 6.229-33.519 10.451-51.141 9.894-21.64-.685-39.275-9.859-52.268-27.696-10.449-14.345-15.596-30.128-14.131-47.786.981-11.828 4.645-23.142 8.026-34.469 5.162-17.291 14.562-32.105 26.944-45.022 11.333-11.823 25.663-17.875 41.789-18.714 14.778-.769 29.597-.195 44.235 2.769 6.75 1.367 13.169 3.38 19.32 6.484 6.822 3.443 9.104 2.502 9.293-4.862.297-11.596 2.851-22.757 4.964-34.037 1.083-5.782.066-7.429-5.379-9.485-12.834-4.844-26.294-6.894-39.745-9.199-11.106-1.903-22.214-2.119-33.342-1.732-22.652.787-43.914 5.992-63.23 18.807-15.399 10.217-28.565 22.224-38.257 38.015-1.549 2.523-2.665 5.955-6.583 6.119-.404-7.768-2.38-15.319-3.172-23.031-.21-2.049-1.296-2.941-3.259-2.964-.999-.012-1.997-.028-2.996-.028l-378.555.01c-1.945-1.471-1.51-3.504-1.188-5.436 1.193-7.143 2.716-14.222 4.233-21.301.381-1.778 1.033-3.505 2.955-4.286h372.977c.905-1.549.819-2.501.563-3.499-2.873-11.201-5.921-22.363-8.474-33.637-.745-3.292-2.255-4.054-5.11-3.866-1.328.087-2.666.014-3.999.014-117.328 0-234.656.002-351.984-.018-2.135 0-4.318.368-6.9-.567.052-5.381 2.103-10.432 3.414-15.582 1.141-4.482 3.064-8.766 4.187-13.251.544-2.172 1.544-2.653 3.42-2.585 1.498.054 2.999.005 4.499.005 111.495 0 222.99.003 334.484-.026 2.11-.001 4.314.519 6.914-.889-2.589-7.735-5.105-15.563-7.846-23.311-1.433-4.05-3.41-7.906-4.87-11.947-1.308-3.621-3.422-4.938-7.437-4.926-47.164.152-94.329.097-141.493.097-55.331 0-110.661.004-165.992-.017-1.975-.001-3.994.342-6.352-.556 2.131-5.174 4.178-10.347 6.388-15.45 1.975-4.561 4.316-8.972 6.119-13.597.779-1.999 1.845-2.481 3.682-2.388 1.33.067 2.666.009 3.999.009 92.662 0 185.325.003 277.987-.025 1.928-.001 3.932.464 6.376-.68-6.603-12.148-11.565-25.016-19.402-36.406-1.693-2.46-4.074-2.949-6.944-2.938-23.665.086-47.331.049-70.997.049-55.664 0-111.328.006-166.992-.023-1.944-.001-3.966.456-6.224-.671 1.964-4.188 4.268-8.103 6.666-12.004 3.638-5.919 7.059-11.974 10.463-18.032.927-1.65 2.038-2.46 3.947-2.288 1.322.119 2.664.018 3.998.018h203.323c-1.803-4.931-4.81-8.455-7.615-12.04-6.315-8.071-11.872-16.718-18.757-24.361-2.43-2.697-5.041-3.689-8.699-3.679-46.664.123-93.329.081-139.993.081h-6.398c5.716-7.678 10.958-14.784 16.274-21.833 2.188-2.902 4.645-5.605 6.775-8.546 1.628-2.247 3.865-1.591 5.921-1.594 27.832-.041 55.664-.028 83.496-.028h5.326c.559-1.29-.24-1.788-.768-2.369-12.432-13.674-25.653-26.579-38.62-39.733-2.104-2.141-5.144-3.161-6.65-5.916z" fill="#fe7f00"/><path d="M337.722 770.001h-58.545c2.799-11.659 5.766-23.175 8.276-34.79 1.543-7.138 2.302-14.441 3.566-21.643 2.049-11.672 3.833-23.393 5.699-35.089 1.511-9.47 3.003-18.969 4.349-28.478 1.615-11.409 3.793-22.738 5.615-34.12 1.208-7.552 2.238-15.133 3.312-22.705.937-6.602 2.303-13.127 3.125-19.758.933-7.525 2.541-14.967 3.855-22.441-2.715-.575-3.248 1.561-3.914 3.124-4.742 11.113-9.392 22.266-14.043 33.418-5.52 13.233-10.992 26.486-16.522 39.715-5.469 13.083-11.02 26.132-16.468 39.225-5.445 13.087-10.756 26.23-16.217 39.311-6.209 14.872-12.536 29.694-18.777 44.553-2.75 6.547-5.414 13.13-8.121 19.708h-51.728c-.681-11.16-1.539-22.12-2.39-33.073-.889-11.438-1.045-22.943-2.681-34.343-.721-5.019-.758-10.208-.9-15.262-.363-12.878-2-25.653-2.382-38.529-.287-9.673-1.419-19.343-1.964-29.039-.544-9.681-1.413-19.35-2.007-29.04-.593-9.681-1.416-19.352-2.026-29.039-.212-3.359-.706-6.812-1.054-10.475-4.721 1.05-3.054 5.403-3.506 7.672-2.72 13.657-5.307 27.343-8.067 41-3.05 15.096-5.298 30.353-8.274 45.465-2.443 12.403-4.842 24.809-7.092 37.248-2.133 11.791-4.594 23.521-6.828 35.294-1.723 9.079-3.45 18.161-4.905 27.284-.591 3.707-.565 7.528-.871 11.275-.361 4.416-1.352 8.762-1.384 13.482H61.118c2.637-10.417 5.475-20.741 7.827-31.175 2.278-10.105 4.027-20.329 6.059-30.49 3.048-15.245 5.874-30.538 8.737-45.814 2.807-14.976 5.669-29.952 8.324-44.963 2.65-14.986 5.913-29.863 8.718-44.823 2.54-13.549 4.375-27.246 7.366-40.69 2.361-10.617 2.301-21.422 4.146-32.412h94.243c1.074 1.404.385 3.293.435 5.041.754 26.416.453 52.865 1.33 79.255.629 18.942-.377 37.894.896 56.765.748 11.087.372 22.164.94 33.163 3.364 1.451 4.665-.595 5.662-3.012 4.423-10.721 8.762-21.477 13.221-32.183 5.514-13.24 11.149-26.429 16.67-39.666 6.14-14.72 12.214-29.466 18.309-44.205 5.356-12.951 10.492-25.999 16.147-38.818 2.411-5.466 3.998-11.3 7.431-16.524h97.376c-3.158 12.03-6.534 23.787-9.271 35.691-1.997 8.684-3.145 17.564-4.684 26.354-1.511 8.627-3.055 17.248-4.555 25.877-1.501 8.636-2.954 17.279-4.446 25.917-1.85 10.712-3.727 21.419-5.574 32.132-1.489 8.637-2.935 17.281-4.428 25.917-1.852 10.711-3.737 21.417-5.598 32.126-1.473 8.474-2.811 16.972-4.425 25.419-2.586 13.532-2.703 27.308-4.252 41.168zm209.28-1.905h-56.077c.55-5.415.967-10.707 1.714-15.953.161-1.128.21-2.262.364-3.386.198-1.451-.189-2.794-1.51-3.386-1.376-.617-2.456.304-3.47 1.283-3.437 3.318-7.012 6.522-10.444 9.805-5.802 5.552-13.018 7.932-20.105 10.454-11.604 4.131-23.707 5.765-36.092 5.387-5.771-.176-11.2-1.526-16.695-3.059-9.35-2.609-17.122-7.547-23.778-14.545-6.885-7.24-11.177-15.605-13.522-25.382-2.331-9.719-3.09-19.234-1.457-29.114 2.097-12.685 7.171-24.161 14.441-34.46 6.431-9.11 14.616-16.594 24.623-22.166 12.262-6.829 25.558-9.685 39.048-12.435 8.212-1.674 16.47-2.214 24.755-3.067 14.898-1.533 29.808-.183 44.768-1.004 1.977-8.915-.357-17.193-6.082-23.258-5.165-5.472-12.006-9.604-20.197-10.665-9.425-1.221-18.852-1.046-28.268-.841-18.478.403-36.78 2.486-54.77 6.926-1.681.415-2.903 2.036-5.35 1.796 2.998-8.181 5.198-16.343 6.588-24.712.743-4.474 2.023-8.887 2.414-13.383.38-4.363 2.497-6.729 6.495-7.668 6.924-1.626 13.821-3.196 20.891-4.334 11.341-1.825 22.771-2.656 34.115-3.367 12.499-.783 25.13-.801 37.763.418 11.255 1.086 21.48 4.362 31.391 9.408 15.435 7.858 24.612 20.568 29.476 36.9 1.967 6.603.65 13.009-.297 19.435-1.373 9.308-3.139 18.557-4.732 27.832-1.456 8.477-2.9 16.956-4.359 25.432-1.541 8.956-3.117 17.906-4.635 26.866-1.98 11.684-3.894 23.378-5.888 35.06-.524 3.068-.577 6.236-.813 9.268-.678 8.714-2 17.452-1.27 26.243.089 1.101.557 2.169.965 3.672zm307.833-117.871c.876-10.916 4.321-21.153 7.888-31.421 4.028-11.596 9.921-22.177 17.415-31.693 9.432-11.976 19.745-22.8 34.765-28.649 10.678-4.159 21.071-9.033 32.423-10.776 6.185-.95 12.608-.443 18.924-.43 16.674.033 32.543 4.004 47.308 11.445 5.959 3.003 10.92 7.961 15.918 12.751 4.752 4.554 7.995 9.779 11.527 14.993 4.079 6.021 5.944 12.913 6.9 19.981 1.053 7.79 2.057 15.565 2.289 23.497.33 11.313-1.403 22.181-4.519 32.888-1.358 4.666-1.12 9.637-3.168 14.427h-5.391c-41.16 0-82.32-.002-123.48.002-5.484.001-6.564 1.058-6.626 6.604-.149 13.255 6.056 22.808 16.457 30.716 10.941 8.319 23.6 9.708 36.407 11.844 10.332 1.723 20.469.124 30.253-1.572 11.276-1.954 22.819-4.433 33.247-9.771 3.922-2.008 8.024-3.32 12.626-5.065-1.139 6.897-2.165 13.393-3.293 19.872-1.528 8.783-3.13 17.554-4.709 26.328-.485 2.697-1.102 4.94-4.276 6.188-7.991 3.141-15.995 5.686-24.584 7.023-16.053 2.499-32.203 3.682-48.285 2.604-18.066-1.211-36.181-3.081-52.706-12.046-13.964-7.576-25.211-17.626-33.161-31.463-6.111-10.636-9.814-21.988-12.11-33.987-.98-5.122-.482-10.198-1.037-15.266-1.325-1.39-1.928-3.051-1.853-4.962.264-6.763.982-13.479 2.082-20.157.29-1.771 1.321-2.975 2.769-3.905zm364.312-87.964c7.761-11.333 14.74-23.316 25.557-32.191 16.338-13.406 33.544-24.581 54.945-29.228 16.423-3.566 32.752-4.157 49.139-3.307 10.286.534 20.694 2.226 30.843 4.868 7.185 1.87 14.496 3.162 21.49 5.831 6.68 2.549 8.395 5.166 6.725 12.278-2.542 10.831-5.285 21.621-4.847 32.887.006.166.01.334-.004.5-.798 9.656-3.438 11.296-11.906 6.849-11.074-5.816-22.954-7.612-35.244-8.689-9.623-.843-19.202-.525-28.796-.84-5.371-.177-10.187 1.62-15.115 3.466-7.159 2.682-14.127 5.424-20.123 10.467-3.352 2.819-5.736 6.329-8.621 9.462-6.665 7.236-12.405 15.143-16.37 24.219-6.002 13.74-10.097 28.058-12.826 42.779-2.718 14.663-.812 28.773 6.154 41.909 4.939 9.315 10.763 18.484 19.502 24.481 8.231 5.649 17.295 10.479 27.453 12.199 8.97 1.519 17.777.5 26.848-.507 14.022-1.556 26.957-5.822 39.819-10.893 1.471-.58 2.069-.181 2.949.643 1.227 1.149 1.446 2.214.77 3.933-2.19 5.571-5.017 10.883-6.51 16.746-1.64 6.444-4.516 12.534-4.087 19.509.301 4.897-1.603 9.764-.724 15.034-11.948 4.452-23.923 7.605-36.592 7.573-7.164-.018-14.328-.051-21.491.006-18.091.143-35.087-4.769-51.861-10.927-9.299-3.414-18.171-8.114-24.993-14.865-7.247-7.173-15.442-13.886-20.214-23.342-1.185-.907-2.334-1.81-3.018-3.225-5.718-11.828-10.716-23.888-12.249-37.104-2.811-9.061-1.666-18.364-1.725-27.591-.01-1.585.804-2.829 1.81-3.968.32-18.682 3.459-37.027 8.426-54.903 3.307-11.899 8.667-23.251 14.886-34.059zM570 719.462c11.996 2.918 23.58 5.269 35.682 6.128 13.364.948 26.704 2.075 40.054 1.498 10.198-.44 18.779-4.372 22.911-14.955 3.338-8.55 2.56-12.941-3.78-19.611-4.381-4.609-9.392-7.54-15.454-9.753-13.014-4.75-25.85-10.369-37.52-17.783-10.111-6.424-19.215-14.612-22.031-27.318-1.606-7.245-3.635-14.322-2.068-22.066 1.085-5.358.33-10.96 2.023-16.482 2.945-9.607 7.662-17.994 13.635-26.015 7.345-9.863 17.899-14.897 28.355-19.922 5.421-2.605 11.612-4.153 17.893-3.928 8.121.292 16.122-1.464 24.273-1.096 10.082.455 20.175.901 30.257 1.292 12.159.471 24.284 2.094 36.843 1.742-4.021 15.529-9.832 30.159-11.125 45.674-3.097-.595-5.769-1.411-8.483-1.58-16.993-1.059-33.956-2.376-51.031-2.252-9.123.066-18.467 7.498-20.139 15.904-1.226 6.165 2.969 10.977 6.542 15.64 5.493 7.168 14.039 9.15 21.653 12.59 13.013 5.879 26.178 11.628 36.475 21.76 7.259 7.142 11.786 16.058 13.102 26.52 2.856 22.696-1.77 43.611-14.091 62.842-1.329 2.075-3.156 3.613-5.249 5.05-11.003 7.552-23.226 11.509-36.252 14.034-20.956 4.06-42.074 5.547-63.296 4.71-13.332-.526-26.648-2.179-39.75-5.066-3.813-.84-3.171-2.664-2.652-5.911 1.916-11.978 4.148-23.985 3.242-36.24-.133-1.794-.019-3.605-.019-5.406zm267.165-214.236l-6 31.023-3.224 14.092h35.067l-8.219 48.896c-10.623 0-20.913.112-31.198-.067-3.195-.056-4.199 1.289-4.633 4.165-1.594 10.551-3.802 21-5.602 31.508-.868 5.067-2.836 10.073-2.191 15.381.487 1.049.984 2.124.824 3.304-1.082 7.966-2.358 15.898-4.487 23.665-.218.797-.938 1.33-1.531 1.899-2.202 3.557-2.286 7.812-2.478 11.596-.335 6.605-3.195 13.25-.485 19.906 1.838 4.515 4.441 7.398 9.817 8.95 9.773 2.822 19.058.983 28.551-.275.782-.104 1.605.102 2.673.184-3.673 14.279-7.261 28.305-10.897 42.319-1.67 6.436-3.343 7.474-10.347 8.514-13.789 2.047-27.677 2.657-41.508 1.775-11.027-.703-21.652-4.27-30.601-10.899-6.268-4.643-7.851-12.527-9.584-19.722-1.938-8.046-1.095-16.228-.324-24.478 1.003-10.742 3.246-21.208 5.25-31.736 3.148-16.536 6.436-33.05 9.613-49.577 2.477-12.884 5.048-25.76 7.406-38.673 2.995-16.4 6.721-32.669 9.527-49.098 1.695-9.927 4.041-19.745 4.629-29.913.333-5.753.39-11.718 2.272-17.545h58.141c1.236 1.853-1.125 3.139-.461 4.806zm277.817 217.886c-2.021 5.28-2.928 10.849-3.899 16.362-.854 4.846-1.436 9.78-1.205 14.746-1.882 4.708-.007 10.006-2.687 14.833h-62.094c2.759-10.946 5.716-21.655 8.113-32.487a466.098 466.098 0 0 0 5.705-30.569c1.271-8.351 3.125-16.586 4.268-24.971 1.442-10.577 3.721-21.048 5.846-31.522 2.835-13.971 5.357-28.022 7.65-42.064 2.383-14.589 6.388-28.96 6.554-43.958.046-4.129.495-8.468.889-12.962h56.949c-.857 5.607-1.722 11.13-2.539 16.661a586.595 586.595 0 0 0-1.523 11.129c-.198 1.546-.062 3.184 1.581 3.805 1.949.737 3.237-.771 4.047-2.154 3.126-5.337 7.794-9.29 11.856-13.8 5.858-6.506 12.581-10.809 21.441-12.586 9.834-1.972 19.58-3.576 30.153-3.276-1.849 4.374-3.337 8.552-5.324 12.477-6.874 13.581-11.831 27.852-15.721 42.523-1.323 4.991-2.946 5.794-8.289 4.897-14.399-2.416-26.444 2.223-35.429 13.517-6.294 7.911-10.149 17.191-11.34 27.395.881 2.045 1.044 4.147.541 6.316-2.017 8.697-3.37 17.544-5.9 26.125-1.749 11.924-4.719 23.6-7.192 35.377-.342 1.634-1.062 3.125-2.451 4.186z" fill="#fefefe"/><path d="M1123.165 683.249c1.905-10.793 4.247-21.493 6.82-32.144l65.85.12c.055 6.828.094 13.656.171 20.484.044 3.932.964 7.734 1.829 11.54-1.524 1.931-3.68 2.064-5.881 2.071-20.969.069-41.939.069-62.908 0-2.202-.007-4.358-.139-5.881-2.071zm-317.194-4.155c.206-7.464 2.252-14.636 3.667-21.894.451-2.311-.55-5.017 1.526-6.974h43.671c-1.467 3.33-1.123 6.991-1.671 10.466-.963 6.104-.939 12.363-1.328 18.558l-45.865-.156z" fill="#fe7f00"/><path d="M1924.956 769.035h-60.559c-1.415-4.429 1.568-8.7.595-13.052-.859-3.843 3.285-8.141-.567-11.784-2.588.636-2.794 2.81-3.903 4.149-8.085 9.762-19.536 13.679-30.793 17.774a87.052 87.052 0 0 1-23.279 4.978c-11.456.842-22.299-2.771-32.7-7.056-7.812-3.218-15.426-7.171-21.626-13.195-10.828-10.52-17.176-23.562-21.086-37.93-4.111-15.109-4.973-30.583-3.875-46.061.665-9.371 3.107-18.601 4.687-27.894 2.622-15.414 8.619-29.393 17.16-42.129 8.024-11.964 16.799-23.817 29.444-31.301 13.284-7.863 27.096-14.678 43.209-15.541 6.261-.336 12.534-.736 18.794-.698 13.896.083 25.582 6.151 36.919 13.587 5.236 3.435 8.361 8.54 12.631 12.697 3.174 3.09 5.879 2.895 6.862-1.426 1.692-7.442 2.845-15.009 4.121-22.541 2.72-16.06 5.356-32.135 8.089-48.193.235-1.383.934-2.686 1.418-4.026h62.466c-3.189 12.087-6.63 23.861-9.345 35.801-2.307 10.147-3.792 20.482-5.612 30.739a11805.783 11805.783 0 0 0-5.488 31.261c-1.848 10.585-3.675 21.174-5.523 31.758-1.737 9.944-3.477 19.887-5.241 29.827a12116.096 12116.096 0 0 1-5.76 32.194c-1.819 10.088-3.851 20.142-5.447 30.265-1.702 10.799-4.482 21.405-4.75 32.48-.119 4.875-.73 9.833-.841 15.317zm-503.238-164.68c2.729-11.214 5.29-21.72 7.842-32.227.498-2.05.98-4.105 1.443-6.163 1.724-7.658 3.627-9.459 11.481-10.699 6.096-.962 12.127-2.267 18.239-3.193 6.611-1.002 13.313-2.294 19.868-2.574 14.902-.637 29.845-2.332 44.757-1.151 12.09.957 23.625 4.359 34.094 10.807 1.933 1.191 4.138 1.966 5.99 3.259 13.529 9.438 22.65 22.223 25.276 38.429 1.674 10.33.208 20.984-2.112 31.409-2.297 10.319-3.776 20.821-5.595 31.246-1.931 11.068-4.153 22.096-5.66 33.222-1.271 9.382-2.673 18.798-4.634 27.982-2.212 10.359-1.794 20.862-3.665 31.161-.718 3.951.829 7.815 1.014 12.066h-53.906V749.86c-2.618-1.249-4.041-.227-5.594 1.276-3.436 3.324-6.682 7.095-10.714 9.49-5.262 3.125-11.081 5.466-16.889 7.488-13.011 4.529-26.54 5.775-40.236 5.096-13.776-.683-26.625-5.06-36.404-14.57-10.584-10.292-16.756-23.117-17.657-38.673-.534-9.215.897-17.887 2.552-26.596 1.688-8.885 6.685-16.515 11.97-23.786 12.289-16.906 29.635-25.617 49.422-30.345 9.405-2.247 18.922-3.37 28.568-4.243 8.469-.767 16.917-.018 25.293-.875 6.913-.707 13.719-1.422 20.582.104 2.722.605 4.121-.668 5.049-3.245 3.375-9.379-.006-17.385-4.939-25.027-4.36-6.754-11.415-8.587-18.78-9.722-11.386-1.755-22.888-1.405-34.26-.756-7.926.452-15.942 1.435-23.835 2.785-9.277 1.585-18.496 3.476-28.56 6.094zm230.581 164.726h-63.228c2.798-11.014 5.802-21.738 8.2-32.596 2.244-10.162 3.849-20.464 5.73-30.706 1.706-9.286 3.37-18.581 5.119-27.859 2.258-11.985 4.589-23.957 6.875-35.938 2.255-11.82 4.851-23.609 6.657-35.472 2.161-14.187 6.527-28.027 6.54-42.603.004-4.306.865-8.762.8-13.416h55.93c-.762 10.673-4.067 20.877-3.877 31.897 3.902-1.088 5.772-3.701 8.011-6.093 9.436-10.086 19.697-18.636 33.695-22.351 8.346-2.215 16.531-3.757 25.087-3.699.959.007 1.917.126 3.343.227-4.315 9.119-8.136 18.087-12.734 26.637-3.894 7.24-4.956 15.087-6.337 22.89-.451 2.547-1.447 5.021-1.22 7.764.181 2.179-1.678 2.505-3.505 2.483-3.332-.039-6.667.069-9.997-.022-17.171-.465-28.449 8.357-36.688 22.597-5.774 9.98-7.564 20.999-9.713 32-3.399 17.395-6.947 34.761-10.32 52.162-2.232 11.515-5.04 22.895-5.901 34.706-.412 5.627.039 11.521-2.467 17.392z" fill="#fefefe"/><path d="M1123.165 683.249h74.671c.946 10.188 4.813 19.521 8.618 28.844 1.501 3.678 3.783 7.035 4.564 11.018h-96.036c1.01-9.355 3.636-18.395 5.387-27.607.782-4.112 1.855-8.171 2.796-12.255z" fill="#fe0000"/><path d="M2008 749.871c1.297 11.512-12.465 26.267-26.049 25.564-13.414-.693-25.36-12.191-25.074-25.959.305-14.655 12.765-25.597 25.599-25.965 11.972-.343 26.207 12.512 25.524 26.36z" fill="#fefefe"/><path d="M500.754 668.345c1.732 16.327-4.429 29.868-13.028 42.653-4.542 6.753-11.218 11.228-18.623 13.332-9.45 2.685-19.331 4.621-29.297 1.281-11.006-3.689-18.264-17.058-15.454-28.294 3.312-13.244 12.353-20.576 24.563-25.082 9.442-3.485 19.209-4.316 29.136-5.258 7.811-.742 15.092.968 22.703 1.368zm454.631-34.108c-10.308 0-20.617.011-30.925-.004-7.435-.011-8.893-2.309-7.7-9.605 1.637-10.011 7.743-16.482 14.959-22.956 8.182-7.34 17.431-9.615 27.808-9.424 13.134.241 27.029 9.801 30.938 22.181 1.422 4.503 3.401 9.171 2.599 14.294-.552 3.527-1.56 5.671-5.758 5.586-10.636-.215-21.28-.072-31.921-.072z" fill="#fe0000"/><path d="M1787.01 672.442c-.962-18.291 5.059-34.769 14.133-50.081 6.038-10.188 15.182-17.762 26.29-22.061 6.225-2.409 13.24-2.928 19.889-1.691 3.007.559 6.096.363 9.118 1.53 12.752 4.924 20.721 13.274 22.703 27.357 1.682 11.948.419 23.479-1.66 35.199-.792 4.461-2.123 8.846-2.504 13.392-.206 2.463-1.267 4.696-2.326 6.874-2.069 4.255-4.417 8.379-6.396 12.674-6.23 13.517-17.583 21.591-31.104 25.004-8.5 2.146-18.346 2.316-27.061-2.356-8.455-4.533-13.888-11.225-17.346-20.28-3.205-8.395-3.835-16.849-3.736-25.561zm-278.818-.205c3.332 0 6.665-.028 9.996.007 4.867.051 6.944 2.333 5.723 6.824-2.63 9.677-4.931 19.534-9.986 28.315-8.176 14.205-20.306 22.29-36.997 22.857-4.625.157-9.344.336-13.67-1.395-15.674-6.27-20.278-13.228-15.99-30.948 2.467-10.194 9.902-15.846 19.44-19.917 6.741-2.877 13.509-2.963 20.396-3.997 7.042-1.056 13.982-2.017 21.088-1.746z" fill="#fe8000"/><path d="M1981.796 772.237c-12.828 1.491-22.553-10.856-22.564-21.315-.015-13.662 9.023-24.414 22.315-24.505 14.056-.096 22.852 10.534 23.307 23.168.404 11.21-9.311 24.399-23.058 22.652z" fill="#fe7f00"/><path d="M1974.023 752.662v11.953c-2.444.979-4.083 1.279-4.052-2.249.088-9.804.031-19.61.031-30.187 7.437.651 14.881-1.684 21.73 2.341 5.445 3.2 5.841 10.443 1.044 14.496-1.125.95-2.028 2.175-3.393 2.59l7.447 13.148c-2.647 1.292-4.24-.036-5.564-1.896-.843-1.183-1.498-2.498-2.288-3.721-4.88-7.542-4.952-7.569-14.955-6.475z" fill="#fefefe"/><path d="M1974.203 748.234v-12.603c4.818-.716 9.449-.578 14.223 1.218 3.208 1.207 3.666 3.641 3.392 5.928-.318 2.658-1.524 5.469-5.172 5.459-3.963-.01-7.925-.002-12.443-.002z" fill="#fe7f00"/></svg>