<svg xmlns="http://www.w3.org/2000/svg" viewBox="0 0 647 183"><path d="M232.8 184h-57.6c0-35.045.014-70.09-.051-105.135-.002-1.28 1.106-3.362-1.687-3.627-2.232-.212-3.573.44-3.923 2.774-.117.78-.463 1.525-.699 2.287l-32.04 103.7h-40c-10.872-35.167-21.773-70.324-32.551-105.52-.749-2.446-1.661-3.754-4.315-3.268-2.87.525-1.461 2.785-1.464 4.153-.09 34.879-.07 69.758-.07 104.636-18.376 0-36.752-.023-55.127.037-1.814.006-2.539-.172-2.536-2.358C.816 122.158.816 62.636.736 3.115.733.913 1.48.76 3.279.765 23.253.821 43.226.8 63.2.8c.288.236.546.624.868.687 14.76 2.912 23.353 11.831 27.265 26.327 7.073 26.212 14.734 52.265 22.124 78.392.51 1.802.616 3.493 3.348 3.493 2.738-.001 2.832-1.71 3.34-3.503 7.655-27.021 15.357-54.029 22.998-81.055 3.379-11.95 11.204-19.326 22.964-22.823 1.202-.357 2.707-.159 3.494-1.519h63.2L232.8 184zM382.4.8H440V184h-57.6c0-35.009.003-70.018-.002-105.027 0-3.493-1.68-4.911-4.299-3.633-1.34.654-1.496 2.133-2.02 3.303-12.592 28.145-25.195 56.287-37.698 84.472-4.603 10.376-11.966 17.408-23.136 20.177-.321.08-.566.465-.846.708h-56.8V.8h57.6c0 35.027-.003 70.054.002 105.081 0 3.427 1.791 4.9 4.351 3.562 1.289-.674 1.487-2.149 2.023-3.323 11.985-26.249 24.21-52.394 35.778-78.826 5.231-11.953 11.75-22.018 24.883-26.14.084-.026.111-.232.164-.354zM465.6 184c0-31.998.033-63.996-.056-95.994-.008-2.907.422-4.097 3.803-4.09 57.197.118 114.393.084 171.59.09.924 0 1.848.08 3.199.142-1.983 6.5-5.21 12.103-9.256 17.2-12.337 15.54-28.491 23.835-48.336 24.16-19.727.323-39.464.161-59.195.015-3.223-.024-4.273.634-4.237 4.081.188 18.13.088 36.264.088 54.396h-57.6z" fill="#4db35e"/><path d="M525.567 72.919c-15.621-3.39-28.976-11.086-40.514-21.91-14.6-13.695-23.804-30.465-27.453-50.21h68l-.033 72.12z" fill="#01b3e5"/><path d="M575.201 75.866l-26.399.001L548.8.8h26.4l.001 75.066z" fill="#03a5dc"/><path d="M575.201 75.866L575.2.8h18.4c2.421 1.621 5.566.776 8 2.354l.001 72.714-26.4-.002z" fill="#059dd6"/><path d="M548.8.8l.002 75.067c-7.9.239-15.661-.613-23.234-2.948L525.601.8H548.8z" fill="#02ade1"/><path d="M648 72c-.698 3.683-3.105 4.252-6.464 4.075-5.832-.307-11.688-.163-17.535-.208l.026-61.557c11.845 8.847 18.868 20.769 22.417 34.951.496 1.981.238 4.173 1.556 5.938V72z" fill="#0890cd"/><path d="M601.6 3.154c8.219 2.225 15.96 5.41 22.427 11.157l-.026 61.557h-22.4L601.6 3.154z" fill="#0696d1"/></svg>