<svg xmlns="http://www.w3.org/2000/svg" viewBox="0 0 281.159 419.757"><linearGradient id="a" gradientUnits="userSpaceOnUse" x1="-40.521" y1="153.286" x2="321.748" y2="322.215"><stop offset="0" stop-color="#f9dc76"/><stop offset=".071" stop-color="#fef5a2"/><stop offset=".087" stop-color="#fef193"/><stop offset=".119" stop-color="#fee86d"/><stop offset=".148" stop-color="#fee037"/><stop offset=".247" stop-color="#eebf1c"/><stop offset=".319" stop-color="#ebae20"/><stop offset=".478" stop-color="#ecb63d"/><stop offset=".615" stop-color="#feed9c"/><stop offset=".659" stop-color="#fff4c7"/><stop offset=".714" stop-color="#fef5a2"/><stop offset=".879" stop-color="#ecaf20"/></linearGradient><path d="M267.662 55.743H13.565C6.111 55.743.068 61.786.068 69.24v337.021c0 7.454 6.043 13.497 13.497 13.497h254.097c7.454 0 13.497-6.042 13.497-13.497V69.24c0-7.454-6.043-13.497-13.497-13.497zm-9.27 333.138a4.98 4.98 0 0 1-4.981 4.981H27.498a4.98 4.98 0 0 1-4.981-4.981V86.59a4.98 4.98 0 0 1 4.981-4.981h225.913a4.98 4.98 0 0 1 4.981 4.981v302.291z" fill="url(#a)"/><linearGradient id="b" gradientUnits="userSpaceOnUse" x1="81.642" y1="54.714" x2="201.042" y2="54.714"><stop offset="0" stop-color="#fff9d3"/><stop offset=".043" stop-color="#fcf1c3"/><stop offset=".128" stop-color="#f4e39d"/><stop offset=".165" stop-color="#f1dc8d"/><stop offset=".632" stop-color="#eaa821"/><stop offset=".934" stop-color="#c57d2a"/></linearGradient><path fill="url(#b)" d="M164.123 59.829l-22.784-40.723-22.783 40.723-36.914-19.981 22.284 50.469 74.825.005 22.291-50.474z"/><linearGradient id="c" gradientUnits="userSpaceOnUse" x1="198.56" y1="36.076" x2="212.349" y2="36.076"><stop offset="0" stop-color="#fff9d3"/><stop offset=".043" stop-color="#fcf1c3"/><stop offset=".128" stop-color="#f4e39d"/><stop offset=".165" stop-color="#f1dc8d"/><stop offset=".632" stop-color="#eaa821"/><stop offset=".934" stop-color="#c57d2a"/></linearGradient><path d="M198.56 35.066a6.836 6.836 0 0 0 2.017 4.87 6.845 6.845 0 0 0 4.873 2.018v2.026l.007-2.026c3.802 0 6.893-3.091 6.893-6.89a6.846 6.846 0 0 0-2.01-4.875 6.816 6.816 0 0 0-4.859-2.017c-3.836 0-6.921 3.093-6.921 6.894z" fill="url(#c)"/><linearGradient id="d" gradientUnits="userSpaceOnUse" x1="70.329" y1="36.114" x2="84.119" y2="36.114"><stop offset="0" stop-color="#fff9d3"/><stop offset=".043" stop-color="#fcf1c3"/><stop offset=".128" stop-color="#f4e39d"/><stop offset=".165" stop-color="#f1dc8d"/><stop offset=".632" stop-color="#eaa821"/><stop offset=".934" stop-color="#c57d2a"/></linearGradient><path d="M77.212 44.06l.011-2.106c3.804 0 6.895-3.091 6.895-6.89a6.83 6.83 0 0 0-2.008-4.875 6.838 6.838 0 0 0-4.872-2.021c-3.816 0-6.91 3.094-6.91 6.898 0 1.839.716 3.568 2.016 4.87a6.837 6.837 0 0 0 4.867 2.018v2.106h.001z" fill="url(#d)"/><linearGradient id="e" gradientUnits="userSpaceOnUse" x1="133.136" y1="8.262" x2="149.536" y2="8.262"><stop offset="0" stop-color="#fff9d3"/><stop offset=".043" stop-color="#fcf1c3"/><stop offset=".128" stop-color="#f4e39d"/><stop offset=".165" stop-color="#f1dc8d"/><stop offset=".632" stop-color="#eaa821"/><stop offset=".934" stop-color="#c57d2a"/></linearGradient><path d="M141.338.06c-2.19 0-4.249.854-5.797 2.403-1.551 1.549-2.405 3.607-2.405 5.798s.852 4.25 2.4 5.798a8.155 8.155 0 0 0 5.802 2.404c2.19 0 4.249-.854 5.797-2.403a8.149 8.149 0 0 0 2.4-5.799 8.147 8.147 0 0 0-2.402-5.797A8.135 8.135 0 0 0 141.338.06z" fill="url(#e)"/><linearGradient id="f" gradientUnits="userSpaceOnUse" x1="40.508" y1="313.331" x2="240.719" y2="313.331"><stop offset="0" stop-color="#fff"/><stop offset=".071" stop-color="#fff156"/><stop offset=".075" stop-color="#fff16a"/><stop offset=".084" stop-color="#fff391"/><stop offset=".095" stop-color="#fff7c8"/><stop offset=".099" stop-color="#fff9db"/><stop offset=".137" stop-color="#fee794"/><stop offset=".187" stop-color="#eebf1c"/><stop offset=".319" stop-color="#ebae20"/><stop offset=".478" stop-color="#ecb63d"/><stop offset=".615" stop-color="#feed9c"/><stop offset=".659" stop-color="#fff4c7"/><stop offset=".714" stop-color="#fef5a2"/><stop offset=".879" stop-color="#ecaf20"/><stop offset=".924" stop-color="#f2c974"/><stop offset="1" stop-color="#fff"/></linearGradient><path fill="url(#f)" d="M40.508 311.73h200.211v3.203H40.508z"/><path d="M72.328 115.593v65.81h-5.432v-58.682H53.194v19.919c0 14.255-.432 30.171-6.234 36.42-1.543 1.562-4.012 3.125-6.419 3.125l-.679-6.835c1.666-.391 3.395-1.953 4.382-3.515 3.333-5.077 3.642-17.966 3.642-28.511v-27.73h24.442zm10.926 18.551l6.481 27.925a176.875 176.875 0 0 1 1.975 9.666h.123c.556-2.832 1.173-6.444 1.913-9.862l5.926-27.73h5.741l-8.148 33.686c-3.889 16.208-6.543 24.41-10.246 29.585-2.716 3.613-5.308 5.077-6.666 5.468l-1.358-7.128c1.358-.684 3.148-2.051 4.753-4.199 1.481-1.855 3.271-5.175 4.567-9.569.247-.879.432-1.562.432-2.05 0-.488-.123-1.172-.432-2.246l-10.987-43.548h5.926zm32.036 0v15.916c0 6.054 1.419 10.057 6.173 10.057 2.345 0 4.814-1.367 6.419-3.222v-22.75h5.37v47.844h-5.37v-19.04h-.062c-2.037 2.051-5.308 3.515-8.148 3.515-5.617 0-9.814-4.589-9.814-15.33v-16.99h5.432zm32.035 0v40.521h10.37v-40.521h5.37v40.521h10.37v-40.521h5.37v47.258h-36.849v-47.258h5.369zm45.368 0v19.919c0 7.421-.123 12.205-.37 18.942l.185.098c1.852-5.761 2.839-9.08 4.876-14.548l9.32-24.41h6.358v47.258h-5.185v-20.016c0-7.714.123-11.717.371-19.431h-.123c-1.975 6.151-3.21 9.959-5 14.744-2.839 7.323-6.173 16.404-9.321 24.703h-6.296v-47.258h5.185zm34.195 0v19.919c0 7.421-.123 12.205-.37 18.942l.185.098c1.852-5.761 2.839-9.08 4.876-14.548l9.32-24.41h6.358v47.258h-5.185v-20.016c0-7.714.123-11.717.371-19.431h-.123c-1.975 6.151-3.21 9.959-5 14.744-2.839 7.323-6.173 16.404-9.32 24.703h-6.296v-47.258h5.184zm3.518-19.235c.186 4.199 1.481 7.421 3.95 7.421 2.654 0 3.889-3.222 4.198-7.421h3.889c-.309 7.909-3.457 12.108-8.21 12.108-5.432 0-7.53-5.468-7.777-12.108h3.95zM49.474 233.82c-.673.476-2.166 1.21-4.068 1.21-4.273 0-7.054-4.279-7.054-10.676 0-6.44 2.985-11.152 7.61-11.152 1.522 0 2.868.562 3.571 1.124l-.585 2.896c-.614-.476-1.58-.994-2.985-.994-3.249 0-5.005 3.587-5.005 7.91 0 4.841 2.107 7.823 4.917 7.823 1.464 0 2.429-.519 3.161-.994l.438 2.853zm4.272-9.033c.059 5.143 2.254 7.261 4.859 7.261 1.844 0 2.985-.476 3.922-1.081l.468 2.723c-.907.605-2.488 1.34-4.741 1.34-4.361 0-6.966-4.279-6.966-10.59s2.517-11.238 6.644-11.238c4.654 0 5.854 5.965 5.854 9.811 0 .778-.029 1.34-.088 1.772h-9.952zm7.551-2.723c.029-2.378-.673-6.138-3.571-6.138-2.634 0-3.746 3.501-3.951 6.138h7.522zm15.13-8.429v2.982h-4.42v17.938h-2.576v-17.938h-4.42v-2.982h11.416zm3.306 11.152c.059 5.143 2.254 7.261 4.858 7.261 1.844 0 2.985-.476 3.922-1.081l.468 2.723c-.907.605-2.488 1.34-4.741 1.34-4.361 0-6.966-4.279-6.966-10.59s2.517-11.238 6.644-11.238c4.654 0 5.854 5.965 5.854 9.811 0 .778-.03 1.34-.088 1.772h-9.951zm7.551-2.723c.029-2.378-.673-6.138-3.571-6.138-2.634 0-3.746 3.501-3.951 6.138h7.522zm5.588-8.17c1.024-.259 2.868-.475 4.507-.475 2.4 0 6.322.605 6.322 5.23 0 2.593-1.346 4.236-2.956 4.754v.086c2.078.432 3.6 2.118 3.6 5.143 0 5.489-4.683 6.181-7.463 6.181-1.58 0-3.249-.173-4.01-.259v-20.66zm2.459 18.197a15.7 15.7 0 0 0 2.049.13c1.756 0 4.332-.562 4.332-3.631 0-3.026-2.078-3.674-4.507-3.674h-1.873v7.175zm.029-9.639h1.932c1.902 0 3.863-.821 3.863-3.328 0-2.075-1.229-3.069-3.805-3.069-.878 0-1.405.086-1.99.173v6.224zm25.052 1.47c0 7.737-3.659 11.108-7.054 11.108-3.805 0-6.79-4.15-6.79-10.762 0-6.959 3.132-11.065 7.025-11.065 4.068 0 6.819 4.365 6.819 10.719zm-11.21.216c0 4.581 1.756 8.039 4.273 8.039 2.458 0 4.302-3.415 4.302-8.126 0-3.544-1.2-7.996-4.244-7.996-3.014 0-4.331 4.15-4.331 8.083zm16.827-10.503v8.817c0 3.285-.059 5.403-.176 8.385l.088.043c.878-2.55 1.346-4.019 2.312-6.44l4.42-10.806h3.015v20.92h-2.459v-8.861c0-3.415.059-5.187.176-8.601h-.059c-.937 2.723-1.522 4.409-2.371 6.527-1.346 3.242-2.927 7.261-4.42 10.935h-2.985v-20.92h2.459zm1.669-8.515c.088 1.858.702 3.285 1.873 3.285 1.258 0 1.844-1.426 1.99-3.285h1.844c-.146 3.501-1.639 5.36-3.893 5.36-2.576 0-3.571-2.42-3.688-5.36h1.874zm18.553 8.515h3.161l2.546 10.546c.381 1.556.966 4.106 1.288 5.749h.059c.322-1.6 1.112-4.885 1.698-7.175l2.254-9.12h3.19l.995 20.92h-2.458l-.322-9.984c-.059-2.291-.176-4.928-.234-7.478h-.088c-.381 1.902-.79 3.544-1.581 6.786l-2.722 10.546h-1.844l-2.517-10.373c-.468-1.945-1.083-4.971-1.434-6.916h-.117c-.059 2.464-.117 5.23-.205 7.521l-.381 9.898h-2.37l1.082-20.92zm28.475 15.906c0 1.815.059 3.588.205 5.014h-2.312l-.205-2.637h-.088c-.79 1.642-2.312 3.112-4.332 3.112-2.868 0-4.332-2.982-4.332-6.008 0-5.057 3.044-7.823 8.517-7.78v-.432c0-1.685-.322-4.841-3.22-4.798-1.346 0-2.722.562-3.717 1.556l-.585-2.55c1.17-1.081 2.898-1.815 4.683-1.815 4.332 0 5.385 4.365 5.385 8.515v7.823zm-2.488-5.662c-2.81-.086-6 .648-6 4.711 0 2.507 1.112 3.631 2.4 3.631 1.873 0 3.073-1.729 3.483-3.501.088-.432.117-.865.117-1.21v-3.631zm15.277-10.244v3.025h-6.147v17.895h-2.546v-20.92h8.693zm12.174 15.906c0 1.815.059 3.588.205 5.014h-2.312l-.205-2.637h-.088c-.79 1.642-2.312 3.112-4.332 3.112-2.868 0-4.332-2.982-4.332-6.008 0-5.057 3.044-7.823 8.517-7.78v-.432c0-1.685-.322-4.841-3.22-4.798-1.346 0-2.722.562-3.717 1.556l-.585-2.55c1.17-1.081 2.898-1.815 4.683-1.815 4.332 0 5.385 4.365 5.385 8.515v7.823zm-2.488-5.662c-2.809-.086-6 .648-6 4.711 0 2.507 1.112 3.631 2.4 3.631 1.873 0 3.073-1.729 3.483-3.501.088-.432.117-.865.117-1.21v-3.631zm7.813-1.47h1.229c2.166 0 3.629-1.469 3.629-3.414 0-1.859-1.141-3.069-2.752-3.069-1.141 0-2.429.605-3.424 1.513l-.644-2.334c1.434-1.296 3.073-1.902 4.712-1.902 2.166 0 4.8 1.426 4.8 5.489 0 2.593-1.61 4.279-3.19 4.754v.086c2.107.303 3.863 2.161 3.863 5.23 0 4.495-3.132 6.224-6.117 6.224-1.639 0-3.336-.648-4.595-1.686l.673-2.593c1.024.865 2.429 1.47 3.746 1.47 2.137 0 3.483-1.513 3.483-3.588 0-2.809-1.99-3.588-4.127-3.588h-1.258l-.028-2.592zm13.813-8.774v8.817c0 3.285-.059 5.403-.176 8.385l.088.043c.878-2.55 1.347-4.019 2.312-6.44l4.419-10.806h3.015v20.92h-2.459v-8.861c0-3.415.059-5.187.176-8.601h-.059c-.936 2.723-1.522 4.409-2.37 6.527-1.346 3.242-2.927 7.261-4.42 10.935h-2.986v-20.92h2.46zm16.329 0v8.428h6.703v-8.428h2.575v20.92h-2.575v-9.466h-6.703v9.466h-2.575v-20.92h2.575zM39.127 250.17c2.974-.536 6.87-.995 11.827-.995 6.091 0 10.552 1.532 13.385 4.289 2.55 2.45 4.178 6.203 4.178 10.798 0 4.672-1.275 8.348-3.683 11.028-3.329 3.753-8.569 5.667-14.589 5.667-1.841 0-3.541-.076-4.957-.46v20.678h-6.161V250.17zm6.162 24.89c1.345.383 3.045.536 5.099.536 7.436 0 11.968-3.983 11.968-10.952 0-6.893-4.532-10.186-11.26-10.186-2.691 0-4.745.23-5.807.536v20.066zm60.336 7.276c0 13.708-8.852 19.682-17.067 19.682-9.206 0-16.43-7.352-16.43-19.07 0-12.33 7.578-19.606 16.996-19.606 9.844.001 16.501 7.736 16.501 18.994zm-27.124.383c0 8.118 4.249 14.245 10.34 14.245 5.949 0 10.41-6.05 10.41-14.398 0-6.28-2.904-14.168-10.269-14.168-7.294-.001-10.481 7.352-10.481 14.321zm59.416 17.155c-1.629.842-5.24 2.145-9.844 2.145-10.34 0-17.067-7.582-17.067-18.917 0-11.411 7.224-19.759 18.413-19.759 3.683 0 6.94.995 8.64 1.991l-1.417 5.131c-1.487-.842-3.824-1.761-7.223-1.761-7.861 0-12.11 6.357-12.11 14.015 0 8.578 5.099 13.862 11.898 13.862 3.541 0 5.878-.919 7.648-1.761l1.062 5.054zm31.3 0c-1.629.842-5.24 2.145-9.844 2.145-10.34 0-17.068-7.582-17.068-18.917 0-11.411 7.224-19.759 18.413-19.759 3.683 0 6.94.995 8.64 1.991l-1.417 5.131c-1.487-.842-3.824-1.761-7.223-1.761-7.861 0-12.11 6.357-12.11 14.015 0 8.578 5.099 13.862 11.898 13.862 3.541 0 5.878-.919 7.648-1.761l1.063 5.054zm13.03-35.766v15.624c0 5.82-.142 9.573-.425 14.857l.212.076c2.124-4.518 3.258-7.122 5.594-11.411l10.694-19.147h7.294v37.068h-5.949v-15.7c0-6.05.142-9.19.425-15.241h-.141c-2.266 4.824-3.683 7.812-5.737 11.564-3.258 5.744-7.082 12.866-10.694 19.376h-7.223v-37.068h5.95zm39.231 0v15.624c0 5.82-.142 9.573-.425 14.857l.212.076c2.124-4.518 3.258-7.122 5.594-11.411l10.694-19.147h7.294v37.068h-5.949v-15.7c0-6.05.142-9.19.425-15.241h-.141c-2.267 4.824-3.683 7.812-5.737 11.564-3.258 5.744-7.082 12.866-10.694 19.376h-7.223v-37.068h5.95z" fill="#eabc29"/><path d="M130.489 358.743V373.1l1.381.104-.144 7.412h-2.37l-.165-4.406h-8.141l-.165 4.406h-2.391l-.124-7.412 1.175-.104a19.846 19.846 0 0 0 1.319-3.887c.371-1.762.536-3.68.536-5.805v-4.665h9.089zm-6.183 5.546c0 2.021-.206 3.991-.618 5.753a18.945 18.945 0 0 1-.948 2.954h4.617v-11.04h-3.05v2.333zm11.561 6.842c.083 1.633 1.381 2.41 2.844 2.41 1.072 0 1.938-.181 2.783-.544l.412 2.669c-1.03.544-2.288.803-3.648.803-3.421 0-5.379-2.488-5.379-6.453 0-3.214 1.587-6.764 5.091-6.764 3.256 0 4.493 3.188 4.493 6.323 0 .674-.061 1.27-.103 1.555h-6.493zm3.69-2.695c0-.959-.33-2.565-1.772-2.565-1.319 0-1.855 1.529-1.937 2.565h3.709zm12.572-4.898v3.032h-2.927v9.641h-3.133v-9.641h-2.927v-3.032h8.987zm4.348 0v3.887c0 2.021-.083 3.447-.165 5.157l.082.026c.474-1.451.742-2.436 1.155-3.628l1.958-5.442h3.834v12.673h-2.968v-3.861c0-1.97.082-2.799.186-5.468h-.082c-.392 1.373-.639 2.203-1.051 3.395-.639 1.762-1.402 3.965-2.103 5.935h-3.813v-12.673h2.967z" fill="#00aeef"/><path d="M57.775 349.273v-2.664l2.853-2.201c4.823-3.677 7.166-5.791 7.234-7.991 0-1.535-1.087-2.751-3.634-2.751-1.902 0-3.566.811-4.721 1.564l-1.46-3.156c1.664-1.071 4.246-1.94 7.234-1.94 4.993 0 7.744 2.49 7.744 5.907 0 3.156-2.683 5.675-5.876 8.107l-2.038 1.448v.058h8.321v3.619H57.775zm34.697-9.497c0 5.82-2.751 9.816-8.389 9.816-5.706 0-8.219-4.372-8.253-9.7 0-5.443 2.717-9.758 8.423-9.758 5.91 0 8.219 4.488 8.219 9.642zm-11.445.116c-.034 4.315 1.189 6.37 3.193 6.37s3.091-2.143 3.091-6.428c0-4.169-1.053-6.37-3.125-6.37-1.903 0-3.193 2.056-3.159 6.428zm18.877-5.531h-.068l-4.211 1.709-.849-3.301 5.842-2.317h4.279v18.821h-4.993v-14.912zm9.887 9.99c0-2.259 1.528-3.822 3.94-4.72v-.087c-2.14-.926-3.193-2.461-3.193-4.112 0-3.185 3.362-5.298 7.778-5.298 5.162 0 7.302 2.548 7.302 4.836 0 1.621-1.019 3.214-3.193 4.14v.087c2.14.695 4.042 2.259 4.042 4.691 0 3.416-3.362 5.704-8.491 5.704-5.604 0-8.185-2.693-8.185-5.241zm11.411-.145c0-1.651-1.426-2.635-3.464-3.098-1.698.405-2.683 1.448-2.683 2.808-.034 1.361 1.189 2.635 3.125 2.635 1.834 0 3.022-1.013 3.022-2.345zm-5.807-8.918c0 1.274 1.359 2.085 3.125 2.548 1.189-.289 2.242-1.216 2.242-2.404 0-1.158-.781-2.316-2.683-2.316-1.767.001-2.684.985-2.684 2.172zm29.548 4.922v2.925h-8.898v-2.925h8.898zm9.918 9.063v-2.664l2.853-2.201c4.823-3.677 7.166-5.791 7.234-7.991 0-1.535-1.087-2.751-3.634-2.751-1.902 0-3.566.811-4.721 1.564l-1.46-3.156c1.664-1.071 4.246-1.94 7.234-1.94 4.993 0 7.744 2.49 7.744 5.907 0 3.156-2.683 5.675-5.876 8.107l-2.038 1.448v.058h8.321v3.619h-15.657zm34.698-9.497c0 5.82-2.751 9.816-8.389 9.816-5.706 0-8.219-4.372-8.253-9.7 0-5.443 2.717-9.758 8.423-9.758 5.909 0 8.219 4.488 8.219 9.642zm-11.446.116c-.034 4.315 1.189 6.37 3.193 6.37s3.091-2.143 3.091-6.428c0-4.169-1.053-6.37-3.124-6.37-1.903 0-3.194 2.056-3.16 6.428zm18.877-5.531h-.068l-4.211 1.709-.849-3.301 5.842-2.317h4.279v18.821h-4.993v-14.912zm11.755 11.728c.645.057 1.223.057 2.242 0 1.562-.087 3.159-.463 4.347-1.158 1.426-.84 2.377-2.056 2.785-3.475l-.102-.029c-.985.869-2.411 1.361-4.415 1.361-3.736 0-6.895-2.23-6.895-5.878 0-3.677 3.464-6.775 8.321-6.775 5.672 0 8.355 3.706 8.355 8.107 0 3.909-1.461 6.775-3.872 8.657-2.106 1.622-4.993 2.52-8.423 2.635-.883.058-1.766.029-2.343 0v-3.445zm3.125-9.44c0 1.622 1.019 3.011 3.124 3.011 1.393 0 2.377-.579 2.853-1.245.17-.26.272-.55.272-1.1 0-1.998-.883-3.967-3.227-3.967-1.765 0-3.056 1.332-3.022 3.301z" fill="#eabc29"/></svg>