<svg xmlns="http://www.w3.org/2000/svg" viewBox="0 0 281.159 419.757"><linearGradient id="a" gradientUnits="userSpaceOnUse" x1="-40.59" y1="153.225" x2="321.68" y2="322.154"><stop offset="0" stop-color="#f9dc76"/><stop offset=".071" stop-color="#fef5a2"/><stop offset=".087" stop-color="#fef193"/><stop offset=".119" stop-color="#fee86d"/><stop offset=".148" stop-color="#fee037"/><stop offset=".247" stop-color="#eebf1c"/><stop offset=".319" stop-color="#ebae20"/><stop offset=".478" stop-color="#ecb63d"/><stop offset=".615" stop-color="#feed9c"/><stop offset=".659" stop-color="#fff4c7"/><stop offset=".714" stop-color="#fef5a2"/><stop offset=".879" stop-color="#ecaf20"/></linearGradient><path d="M267.593 55.683H13.497C6.043 55.683 0 61.726 0 69.18V406.2c0 7.454 6.043 13.497 13.497 13.497h254.097c7.454 0 13.497-6.042 13.497-13.497V69.18c-.001-7.454-6.044-13.497-13.498-13.497zm-9.27 333.137a4.98 4.98 0 0 1-4.981 4.981H27.429a4.98 4.98 0 0 1-4.981-4.981V86.529a4.98 4.98 0 0 1 4.981-4.981h225.913a4.98 4.98 0 0 1 4.981 4.981V388.82z" fill="url(#a)"/><linearGradient id="b" gradientUnits="userSpaceOnUse" x1="81.573" y1="54.654" x2="200.973" y2="54.654"><stop offset="0" stop-color="#fff9d3"/><stop offset=".043" stop-color="#fcf1c3"/><stop offset=".128" stop-color="#f4e39d"/><stop offset=".165" stop-color="#f1dc8d"/><stop offset=".632" stop-color="#eaa821"/><stop offset=".934" stop-color="#c57d2a"/></linearGradient><path fill="url(#b)" d="M164.054 59.768L141.27 19.046l-22.783 40.722-36.914-19.981 22.284 50.47 74.826.005 22.29-50.475z"/><linearGradient id="c" gradientUnits="userSpaceOnUse" x1="198.491" y1="36.015" x2="212.28" y2="36.015"><stop offset="0" stop-color="#fff9d3"/><stop offset=".043" stop-color="#fcf1c3"/><stop offset=".128" stop-color="#f4e39d"/><stop offset=".165" stop-color="#f1dc8d"/><stop offset=".632" stop-color="#eaa821"/><stop offset=".934" stop-color="#c57d2a"/></linearGradient><path d="M198.491 35.006a6.836 6.836 0 0 0 2.017 4.87 6.845 6.845 0 0 0 4.873 2.018v2.025l.007-2.025c3.802 0 6.893-3.091 6.893-6.89a6.846 6.846 0 0 0-2.01-4.875 6.816 6.816 0 0 0-4.859-2.017c-3.836 0-6.921 3.092-6.921 6.894z" fill="url(#c)"/><linearGradient id="d" gradientUnits="userSpaceOnUse" x1="70.26" y1="36.054" x2="84.05" y2="36.054"><stop offset="0" stop-color="#fff9d3"/><stop offset=".043" stop-color="#fcf1c3"/><stop offset=".128" stop-color="#f4e39d"/><stop offset=".165" stop-color="#f1dc8d"/><stop offset=".632" stop-color="#eaa821"/><stop offset=".934" stop-color="#c57d2a"/></linearGradient><path d="M77.144 44l.011-2.106c3.804 0 6.895-3.091 6.895-6.89a6.83 6.83 0 0 0-2.008-4.875 6.838 6.838 0 0 0-4.872-2.021c-3.816 0-6.91 3.094-6.91 6.898 0 1.839.716 3.568 2.016 4.87a6.837 6.837 0 0 0 4.867 2.018V44h.001z" fill="url(#d)"/><linearGradient id="e" gradientUnits="userSpaceOnUse" x1="133.067" y1="8.202" x2="149.467" y2="8.202"><stop offset="0" stop-color="#fff9d3"/><stop offset=".043" stop-color="#fcf1c3"/><stop offset=".128" stop-color="#f4e39d"/><stop offset=".165" stop-color="#f1dc8d"/><stop offset=".632" stop-color="#eaa821"/><stop offset=".934" stop-color="#c57d2a"/></linearGradient><path d="M141.269 0c-2.19 0-4.249.854-5.797 2.403-1.551 1.549-2.405 3.607-2.405 5.798s.852 4.25 2.4 5.798a8.155 8.155 0 0 0 5.802 2.404c2.19 0 4.249-.854 5.797-2.403a8.149 8.149 0 0 0 2.4-5.799 8.147 8.147 0 0 0-2.402-5.797A8.13 8.13 0 0 0 141.269 0z" fill="url(#e)"/><linearGradient id="f" gradientUnits="userSpaceOnUse" x1="40.439" y1="313.271" x2="240.65" y2="313.271"><stop offset="0" stop-color="#fff"/><stop offset=".071" stop-color="#fff156"/><stop offset=".075" stop-color="#fff16a"/><stop offset=".084" stop-color="#fff391"/><stop offset=".095" stop-color="#fff7c8"/><stop offset=".099" stop-color="#fff9db"/><stop offset=".137" stop-color="#fee794"/><stop offset=".187" stop-color="#eebf1c"/><stop offset=".319" stop-color="#ebae20"/><stop offset=".478" stop-color="#ecb63d"/><stop offset=".615" stop-color="#feed9c"/><stop offset=".659" stop-color="#fff4c7"/><stop offset=".714" stop-color="#fef5a2"/><stop offset=".879" stop-color="#ecaf20"/><stop offset=".924" stop-color="#f2c974"/><stop offset="1" stop-color="#fff"/></linearGradient><path fill="url(#f)" d="M40.439 311.669H240.65v3.203H40.439z"/><path d="M37.411 249.606c3.655-.624 9.027-1.04 15.144-1.04 7.46 0 12.682 1.04 16.263 3.743 3.059 2.219 4.7 5.477 4.7 9.774 0 5.892-4.551 9.982-8.877 11.437v.208c3.506 1.317 5.446 4.367 6.714 8.665 1.567 5.338 3.059 11.438 4.028 13.24H63.745c-.746-1.317-2.014-5.13-3.432-10.883-1.417-5.892-3.581-7.417-8.281-7.486h-3.357v18.37H37.411v-46.028zm11.265 20.033h4.476c5.67 0 9.027-2.634 9.027-6.724 0-4.228-3.133-6.447-8.355-6.447-2.76 0-4.327.139-5.147.347v12.824zm66.842 15.112c0 4.436.149 8.041.298 10.883h-9.847l-.522-4.783h-.224c-1.417 2.079-4.849 5.545-11.414 5.545-7.46 0-12.831-4.298-12.831-14.765v-19.895h11.339v18.231c0 4.921 1.716 7.902 5.744 7.902 3.133 0 4.998-2.01 5.67-3.674.298-.624.448-1.387.448-2.288v-20.172h11.339v23.016zm9.028 1.733c2.089 1.178 6.416 2.496 9.773 2.496 3.432 0 4.849-1.04 4.849-2.773 0-1.802-1.119-2.634-5.297-3.951-7.609-2.288-10.519-6.17-10.444-10.121 0-6.378 5.819-11.16 14.845-11.16 4.252 0 7.982.971 10.22 2.01l-1.939 7.209c-1.642-.762-4.849-1.872-7.908-1.872-2.76 0-4.327 1.04-4.327 2.704 0 1.664 1.417 2.495 5.893 3.951 6.938 2.149 9.772 5.476 9.847 10.398 0 6.378-5.296 11.022-15.741 11.022-4.774 0-9.027-1.04-11.787-2.426l2.016-7.487zm32.377 0c2.089 1.178 6.416 2.496 9.773 2.496 3.431 0 4.849-1.04 4.849-2.773 0-1.802-1.119-2.634-5.297-3.951-7.609-2.288-10.518-6.17-10.444-10.121 0-6.378 5.819-11.16 14.846-11.16 4.252 0 7.982.971 10.22 2.01l-1.939 7.209c-1.642-.762-4.849-1.872-7.908-1.872-2.76 0-4.326 1.04-4.326 2.704 0 1.664 1.417 2.495 5.893 3.951 6.938 2.149 9.772 5.476 9.847 10.398 0 6.378-5.296 11.022-15.74 11.022-4.774 0-9.027-1.04-11.787-2.426l2.013-7.487zm38.047-29.183c-3.805 0-6.266-2.495-6.266-5.615 0-3.189 2.536-5.615 6.416-5.615 3.879 0 6.266 2.426 6.341 5.615 0 3.119-2.462 5.615-6.416 5.615h-.075zm-5.596 38.334v-33.897h11.339v33.897h-11.339zm50.803-8.18c0 3.189.149 6.308.597 8.18h-10.22l-.671-3.397h-.224c-2.387 2.704-6.117 4.159-10.444 4.159-7.385 0-11.786-4.991-11.786-10.398 0-8.804 8.504-12.963 21.41-12.963v-.416c0-1.802-1.044-4.367-6.64-4.367-3.729 0-7.684 1.178-10.071 2.495l-2.089-6.724c2.536-1.317 7.535-3.05 14.174-3.05 12.16 0 15.964 6.654 15.964 14.626v11.855zm-10.966-7.833c-5.968 0-10.594 1.317-10.594 5.337 0 2.704 1.94 4.021 4.476 4.021 2.76 0 5.148-1.734 5.894-3.882a7.055 7.055 0 0 0 .224-1.802v-3.674zM48.749 215.324l-2.487 11.549h-8.36l10.899-44.995H59.33l11.111 44.995h-8.677l-2.751-11.549H48.749zm9.048-7.61l-2.222-9.547c-.582-2.67-1.217-6.075-1.746-8.678h-.159c-.476 2.67-1.058 6.075-1.587 8.678l-2.169 9.547h7.883zm19.999 19.159l-8.466-44.995h8.624l2.699 18.492c.793 5.407 1.534 11.215 2.116 15.822h.106c.582-4.94 1.428-10.348 2.328-15.955l3.016-18.358h8.572l2.857 18.959c.793 5.274 1.376 10.081 1.905 15.088h.106c.529-5.007 1.323-10.281 2.064-15.688l2.91-18.358h8.201l-9.206 44.995h-8.73l-3.016-19.36c-.688-4.54-1.27-8.745-1.693-13.886h-.106c-.635 5.073-1.217 9.346-2.064 13.886l-3.386 19.36h-8.837zm46.614-11.549l-2.487 11.549h-8.36l10.9-44.995h10.529l11.111 44.995h-8.678l-2.751-11.549H124.41zm9.048-7.61l-2.222-9.547c-.582-2.67-1.217-6.075-1.746-8.678h-.159c-.476 2.67-1.058 6.075-1.587 8.678l-2.169 9.547h7.883zm17.407-25.168c2.592-.601 6.402-1.001 10.741-1.001 5.291 0 8.995 1.001 11.534 3.605 2.169 2.136 3.334 5.274 3.334 9.413 0 5.674-3.228 9.613-6.296 11.015v.2c2.487 1.268 3.862 4.206 4.762 8.345 1.111 5.14 2.169 11.015 2.857 12.751h-8.254c-.529-1.268-1.429-4.94-2.434-10.481-1.005-5.674-2.54-7.143-5.873-7.21h-2.381v17.691h-7.989v-44.328zm7.989 19.293h3.175c4.021 0 6.402-2.537 6.402-6.476 0-4.072-2.222-6.208-5.926-6.208-1.958 0-3.069.133-3.651.334v12.35zm23.386-19.293c2.963-.667 6.825-1.001 10.846-1.001 6.826 0 11.27 1.402 14.656 4.673 3.704 3.471 6.032 9.079 6.032 17.09 0 8.612-2.487 14.554-5.873 18.225-3.756 3.939-9.524 5.808-16.508 5.808-4.18 0-7.196-.334-9.153-.667v-44.128zm8.042 36.65c.688.2 1.852.2 2.804.2 7.355.067 12.17-5.007 12.17-15.755 0-9.68-4.338-14.286-11.323-14.286-1.746 0-2.963.2-3.651.4v29.441zm29.048-2.738c2.116 1.402 5.502 2.804 8.941 2.804 3.704 0 5.662-1.936 5.662-4.94 0-2.737-1.693-4.406-5.979-6.275-5.926-2.67-9.841-6.809-9.841-13.419 0-7.677 5.132-13.485 13.492-13.485 4.074 0 6.984 1.001 9.101 2.27l-1.799 8.145a13.963 13.963 0 0 0-7.407-2.136c-3.492 0-5.185 2.07-5.185 4.339 0 2.871 1.958 4.139 6.614 6.409 6.296 2.938 9.206 7.076 9.206 13.485 0 7.544-4.55 13.953-14.338 13.953-4.074 0-8.095-1.402-10.106-2.804l1.639-8.346zM45.478 160.676l-7.256-45.628h7.392l2.313 18.752c.68 5.484 1.315 11.373 1.814 16.044h.091c.499-5.01 1.224-10.493 1.995-16.179l2.585-18.617h7.346l2.449 19.226a402.461 402.461 0 0 1 1.633 15.3h.091c.453-5.077 1.133-10.425 1.769-15.909l2.494-18.617h7.029l-7.89 45.628h-7.482l-2.585-19.632c-.589-4.603-1.088-8.868-1.451-14.081h-.091c-.544 5.145-1.043 9.478-1.769 14.081l-2.902 19.632h-7.575zm53.51-19.294H87.741v10.832h12.562v8.462H80.848v-45.628h18.82v8.462H87.741v9.478h11.246v8.394zm6.031-25.657c1.814-.542 5.442-1.016 8.934-1.016 4.217 0 6.802.609 9.024 2.573 2.131 1.692 3.628 4.807 3.628 9.004 0 3.994-1.587 7.718-4.988 9.681v.135c3.492 1.354 6.077 5.348 6.077 11.238 0 4.197-1.27 7.447-3.174 9.681-2.222 2.64-5.941 4.13-12.017 4.13-3.401 0-5.941-.338-7.482-.677v-44.749zm6.848 17.398h2.267c3.673 0 5.578-2.234 5.578-5.619 0-3.453-1.769-5.28-4.898-5.28-1.542 0-2.404.135-2.948.338v10.561zm0 20.241c.68.203 1.496.203 2.676.203 3.129 0 5.895-1.828 5.895-6.634 0-4.603-2.766-6.431-6.213-6.431h-2.358v12.862zm20.768-3.249c1.814 1.422 4.716 2.843 7.664 2.843 3.174 0 4.852-1.963 4.852-5.009 0-2.776-1.451-4.468-5.124-6.363-5.079-2.708-8.435-6.905-8.435-13.607 0-7.785 4.399-13.675 11.564-13.675 3.492 0 5.986 1.016 7.8 2.302l-1.542 8.259c-1.179-.88-3.401-2.166-6.349-2.166-2.993 0-4.444 2.099-4.444 4.4 0 2.911 1.678 4.197 5.669 6.499 5.396 2.979 7.89 7.176 7.89 13.675 0 7.65-3.9 14.149-12.289 14.149-3.492 0-6.938-1.422-8.661-2.843l1.405-8.464zm31.199-35.067v17.601h11.382v-17.601h6.893v45.628h-6.893v-19.023h-11.382v19.023h-6.893v-45.628h6.893zm37.276 46.372c-9.024 0-14.375-10.222-14.375-23.22 0-13.675 5.895-23.897 14.874-23.897 9.387 0 14.511 10.493 14.511 23.085 0 15.029-6.031 24.032-14.965 24.032h-.045zm.318-8.191c4.671 0 7.346-6.567 7.346-15.503 0-8.192-2.585-15.232-7.346-15.232-4.762 0-7.437 6.905-7.437 15.435 0 8.597 2.766 15.3 7.392 15.3h.045zm19.227-37.572c2.131-.542 5.124-.948 9.342-.948 4.263 0 7.347 1.219 9.387 3.723 1.95 2.234 3.22 6.025 3.22 10.493 0 4.536-.953 8.327-2.766 10.831-2.358 3.249-5.895 4.807-9.977 4.807-.907 0-1.723-.068-2.358-.271v16.383h-6.847v-45.018zm6.848 20.715c.59.203 1.315.271 2.313.271 3.673 0 5.941-2.776 5.941-7.379 0-4.197-1.904-6.702-5.397-6.702-1.406 0-2.358.135-2.857.338v13.472z" fill="#eabc29"/><path d="M130.421 358.683v14.357l1.381.104-.144 7.412h-2.37l-.165-4.406h-8.141l-.165 4.406h-2.391l-.124-7.412 1.175-.104a19.846 19.846 0 0 0 1.319-3.887c.371-1.762.536-3.68.536-5.805v-4.665h9.089zm-6.184 5.546c0 2.021-.206 3.991-.618 5.753a18.945 18.945 0 0 1-.948 2.954h4.617v-11.04h-3.05v2.333zm11.562 6.841c.083 1.633 1.381 2.41 2.844 2.41 1.072 0 1.938-.181 2.783-.544l.412 2.669c-1.03.544-2.288.803-3.648.803-3.421 0-5.379-2.488-5.379-6.453 0-3.214 1.587-6.764 5.091-6.764 3.256 0 4.493 3.188 4.493 6.323 0 .674-.061 1.27-.103 1.555h-6.493zm3.689-2.695c0-.959-.33-2.565-1.772-2.565-1.319 0-1.855 1.529-1.937 2.565h3.709zm12.572-4.898v3.032h-2.927v9.641H146v-9.641h-2.927v-3.032h8.987zm4.349 0v3.887c0 2.021-.083 3.447-.165 5.157l.082.026c.474-1.451.742-2.436 1.155-3.628l1.958-5.442h3.834v12.673h-2.968v-3.861c0-1.97.082-2.799.186-5.468h-.082c-.392 1.373-.639 2.203-1.051 3.395-.639 1.762-1.402 3.965-2.103 5.935h-3.813v-12.673h2.967z" fill="#00aeef"/><path d="M57.775 349.273v-2.664l2.853-2.201c4.823-3.677 7.166-5.791 7.234-7.991 0-1.535-1.087-2.751-3.634-2.751-1.902 0-3.566.811-4.721 1.564l-1.46-3.156c1.664-1.071 4.246-1.94 7.234-1.94 4.993 0 7.744 2.49 7.744 5.907 0 3.156-2.683 5.675-5.876 8.107l-2.038 1.448v.058h8.321v3.619H57.775zm34.697-9.497c0 5.82-2.751 9.816-8.389 9.816-5.706 0-8.219-4.372-8.253-9.7 0-5.443 2.717-9.758 8.423-9.758 5.91 0 8.219 4.488 8.219 9.642zm-11.445.116c-.034 4.315 1.189 6.37 3.193 6.37s3.091-2.143 3.091-6.428c0-4.169-1.053-6.37-3.125-6.37-1.903 0-3.193 2.056-3.159 6.428zm18.877-5.531h-.068l-4.211 1.709-.849-3.301 5.842-2.317h4.279v18.821h-4.993v-14.912zm9.887 9.99c0-2.259 1.528-3.822 3.94-4.72v-.087c-2.14-.926-3.193-2.461-3.193-4.112 0-3.185 3.362-5.298 7.778-5.298 5.162 0 7.302 2.548 7.302 4.836 0 1.621-1.019 3.214-3.193 4.14v.087c2.14.695 4.042 2.259 4.042 4.691 0 3.416-3.362 5.704-8.491 5.704-5.604 0-8.185-2.693-8.185-5.241zm11.411-.145c0-1.651-1.426-2.635-3.464-3.098-1.698.405-2.683 1.448-2.683 2.808-.034 1.361 1.189 2.635 3.125 2.635 1.834 0 3.022-1.013 3.022-2.345zm-5.807-8.918c0 1.274 1.359 2.085 3.125 2.548 1.189-.289 2.242-1.216 2.242-2.404 0-1.158-.781-2.316-2.683-2.316-1.767.001-2.684.985-2.684 2.172zm29.548 4.922v2.925h-8.898v-2.925h8.898zm9.918 9.063v-2.664l2.853-2.201c4.823-3.677 7.166-5.791 7.234-7.991 0-1.535-1.087-2.751-3.634-2.751-1.902 0-3.566.811-4.721 1.564l-1.46-3.156c1.664-1.071 4.246-1.94 7.234-1.94 4.993 0 7.744 2.49 7.744 5.907 0 3.156-2.683 5.675-5.876 8.107l-2.038 1.448v.058h8.321v3.619h-15.657zm34.698-9.497c0 5.82-2.751 9.816-8.389 9.816-5.706 0-8.219-4.372-8.253-9.7 0-5.443 2.717-9.758 8.423-9.758 5.909 0 8.219 4.488 8.219 9.642zm-11.446.116c-.034 4.315 1.189 6.37 3.193 6.37s3.091-2.143 3.091-6.428c0-4.169-1.053-6.37-3.124-6.37-1.903 0-3.194 2.056-3.16 6.428zm18.877-5.531h-.068l-4.211 1.709-.849-3.301 5.842-2.317h4.279v18.821h-4.993v-14.912zm11.755 11.728c.645.057 1.223.057 2.242 0 1.562-.087 3.159-.463 4.347-1.158 1.426-.84 2.377-2.056 2.785-3.475l-.102-.029c-.985.869-2.411 1.361-4.415 1.361-3.736 0-6.895-2.23-6.895-5.878 0-3.677 3.464-6.775 8.321-6.775 5.672 0 8.355 3.706 8.355 8.107 0 3.909-1.461 6.775-3.872 8.657-2.106 1.622-4.993 2.52-8.423 2.635-.883.058-1.766.029-2.343 0v-3.445zm3.125-9.44c0 1.622 1.019 3.011 3.124 3.011 1.393 0 2.377-.579 2.853-1.245.17-.26.272-.55.272-1.1 0-1.998-.883-3.967-3.227-3.967-1.765 0-3.056 1.332-3.022 3.301z" fill="#eabc29"/></svg>