<svg xmlns="http://www.w3.org/2000/svg" viewBox="0 0 637.761 194.441"><path d="M351.999 197.28c-6.913-2.339-14.283-2.179-21.318-3.93-5.811-1.447-11.602-2.891-17.258-4.89-2.449-.866-3.236-1.903-2.69-4.718 2.184-11.263 4.217-22.566 5.864-33.918.599-4.127 1.493-4.807 5.332-2.915 17.263 8.507 35.656 11.649 54.785 10.533 7.017-.409 13.921-1.62 19.804-5.948 9.133-6.72 9.024-17.541-.137-24.275-6.612-4.861-13.889-8.512-21.284-11.956-9.7-4.518-18.822-9.972-27.038-16.843-23.232-19.428-19.192-49.98-3.771-67.879 13.051-15.147 30.373-22.369 49.379-26.006 22.14-4.237 44.037-2.569 65.671 3.77 4.468 1.309 5.499 3.17 4.555 7.663-2.154 10.252-3.839 20.609-5.437 30.967-.532 3.449-1.443 3.883-4.658 2.488-16.288-7.066-33.307-9.008-50.826-6.32-3.936.604-7.767 1.712-11.166 4.052-8.154 5.615-8.859 14.645-1.204 20.905 7.793 6.372 17.137 10.155 26.044 14.625 8.501 4.266 16.751 8.848 23.877 15.286 17.096 15.444 21.416 36.606 11.838 57.619-8.658 18.996-24.352 29.347-43.334 35.71-7.909 2.651-16.062 4.275-24.372 5.084-.935.091-2.044-.201-2.656.898-10-.002-20-.002-30-.002z" fill="#155d9e"/><path d="M637.761 194.441c-15.217 0-30.345-.017-45.472.02-2.117.005-2.241-1.4-2.571-2.917-1.554-7.148-3.318-14.253-4.713-21.431-.59-3.037-1.886-3.931-4.964-3.91-19.154.134-38.311.124-57.465-.044-3.173-.028-4.718.913-5.77 3.93-2.463 7.063-5.318 13.99-7.981 20.984-.725 1.903-1.302 3.471-4.019 3.449-16.809-.134-33.62-.067-50.357-.067-.7-1.934.46-3.146 1.028-4.434 11.119-25.268 22.309-50.504 33.439-75.767 13.409-30.436 26.872-60.849 40.109-91.36 4.666-10.756 12.382-16.676 24.151-16.854 13.321-.204 26.649-.04 39.965-.374 3.755-.094 3.946 2.192 4.471 4.601 5.564 25.507 11.068 51.027 16.666 76.526 7.738 35.244 15.544 70.472 23.312 105.709.106.477.091.98.171 1.939zM560.705 58.186l-.918.087c-8.497 22.004-16.982 44.012-25.507 66.004-.967 2.495-.148 3.19 2.366 3.174 11.824-.077 23.649-.119 35.472.027 3.001.037 3.289-1.118 2.751-3.594-4.757-21.892-9.452-43.797-14.164-65.698z" fill="#145d9e"/><path d="M126.938 105.579l6.403 28.349c1.478-3.578 2.609-6.2 3.65-8.857a97994.71 97994.71 0 0 0 36.748-93.824c2.906-7.434 5.756-14.89 8.497-22.386.869-2.378 2.175-3.276 4.77-3.258 15.657.113 31.315.135 46.971-.009 3.465-.032 3.877.726 2.511 3.867-10.547 24.247-20.953 48.556-31.377 72.857-15.341 35.759-30.728 71.499-45.889 107.334-1.562 3.692-3.388 4.833-7.316 4.767-14.987-.254-29.982-.195-44.971-.026-3.161.036-4.596-.735-5.49-3.982-10.152-36.87-20.503-73.686-30.753-110.529-4.056-14.578-7.99-29.191-11.993-43.784-.435-1.586-1.243-3.102-.749-4.827 9.054 3.946 16.804 9.961 24.41 16.039 19.65 15.701 34.566 35.137 44.578 58.269zm125.596 88.825c-7.161 0-14.326-.123-21.482.056-3.217.081-4.171-.52-3.547-4.113 5.435-31.296 10.62-62.636 15.904-93.958 4.87-28.866 9.838-57.716 14.564-86.606.551-3.371 1.702-4.39 5.047-4.351 14.32.165 28.645.155 42.966.009 3.358-.034 4.175.704 3.566 4.229-9.42 54.579-18.691 109.185-27.97 163.788-.975 5.739-1.992 11.485-2.602 17.268-.324 3.072-1.589 3.81-4.464 3.739-7.323-.182-14.654-.061-21.982-.061z" fill="#155d9e"/><path d="M126.938 105.579C116.926 82.447 102.01 63.011 82.36 47.31c-7.606-6.078-15.356-12.093-24.41-16.039l.079.075-.856-.786c-14.96-8.969-31.27-14.592-47.937-19.328-1.118-.318-2.233-.665-3.371-.889C4.321 10.04 2.826 9.8 3.24 7.615c.365-1.932 1.729-2.205 3.351-2.154.997.031 1.996.001 2.994.001 24.29 0 48.581-.036 72.871.039 3.642.011 7.336.244 10.911.892 8.418 1.526 14.539 6.245 16.37 14.766 5.932 27.601 11.513 55.278 17.213 82.928.099.476-.003.993-.012 1.492z" fill="#efa93c"/><path d="M57.173 30.561l.856.786c-.822.323-.701-.382-.856-.786z" fill="#155d9e"/></svg>