<svg xmlns="http://www.w3.org/2000/svg" viewBox="0 0 238.08 62.16"><path d="M35.12.16c1.866.644 3.857.772 5.726 1.422 2.076.721 4.097 1.542 6.152 2.74-.91.826-1.754 1.579-2.583 2.348-.461.427-.635-.064-.846-.274-1.016-1.018-2.063-2.014-2.987-3.113-.642-.764-1.057-.58-1.675-.008-1.848 1.709-3.758 3.351-5.608 5.058-.548.506-.883.596-1.418-.044-.997-1.194-2.125-2.279-3.136-3.462-.393-.459-.636-.443-1.045-.073a2561.867 2561.867 0 0 1-12.381 11.151c-.525.469-.342.722.039 1.138 2.459 2.678 4.874 5.396 7.348 8.06.564.608.735.949-.023 1.562-.882.713-2.363 1.348-2.336 2.355.023.864 1.3 1.703 2.04 2.538 1.855 2.093 3.703 4.192 5.594 6.253.498.543.484.841-.08 1.328-.893.771-2.468 1.456-2.416 2.428.05.94 1.412 1.817 2.211 2.709 2.987 3.332 5.991 6.648 8.959 9.998.494.557.774.688 1.384.098 1.894-1.833 3.879-3.573 5.796-5.383.532-.503.849-.589 1.379.044 1.64 1.96 3.327 3.883 5.053 5.769.568.621.452.888-.173 1.361-11.493 8.697-28.012 8.158-38.9-1.293-13.402-11.636-14.668-31.386-2.78-44.559C13.411 4.774 19.7 1.525 27.084.416c.217-.033.498.063.596-.256h7.44z" fill="#017dc6"/><path d="M238.4 25.6c-.429.203-.408.649-.528 1.009-2.481 7.458-4.935 14.924-7.443 22.373-.75 2.227-1.697 4.372-4.309 5.025-2.26.565-4.257-.018-6.04-1.466-.329-.267-.467-.52-.123-.878.193-.201.376-.42.518-.658.544-.912 1.006-1.161 2.055-.393 1.721 1.259 3.549.527 4.483-1.42.893-1.86.978-3.551.114-5.551-2.513-5.817-4.769-11.746-7.163-17.615-.363-.89-.381-1.228.758-1.209 2.884.049 2.912-.01 3.936 2.644 1.722 4.461 3.72 8.815 5.244 13.55.693-2.136 1.352-4.137 1.993-6.144.958-3 1.936-5.994 2.833-9.012.236-.792.559-1.127 1.399-1.03.75.086 1.515.043 2.274.056l-.001.719zM71.318 29.123c0-3.319.027-6.638-.019-9.956-.012-.854.155-1.178 1.102-1.17 3.041.028 3.041-.015 3.041 3.035 0 5.798-.006 11.596.004 17.394.003 1.947.894 3.007 2.474 3.012 1.429.004 2.388-.831 2.538-2.327.092-.911.056-1.837.057-2.756.004-5.718.024-11.436-.02-17.154-.007-.943.237-1.217 1.192-1.203 2.914.043 2.915.001 2.915 2.934 0 5.558-.006 11.116.008 16.674.002.635.051 1.282.181 1.901.28 1.336 1.136 1.971 2.481 1.93 1.293-.039 2.146-.785 2.35-2.106.073-.471.077-.955.078-1.434.005-6.198.022-12.396-.016-18.593-.006-.942.162-1.33 1.223-1.31 2.977.056 2.978.006 2.978 2.995 0 5.678-.006 11.356.006 17.034.002.927-.081 1.841-.314 2.73-1.151 4.386-6.206 6.298-10.064 3.754-.735-.484-1.159-.442-1.852.016-3.414 2.258-9.936 1.183-10.277-5.329-.176-3.349-.031-6.715-.031-10.073-.012.002-.023.002-.035.002z" fill="#057fc6"/><path d="M159.202 34.144c0 3.359-.018 6.718.015 10.077.007.7-.133.966-.91.979-3.152.053-3.151.083-3.151-3.058 0-5.558.004-11.117-.005-16.675-.001-.597-.001-1.209-.126-1.788-.283-1.306-1.182-1.973-2.491-1.951-1.204.021-2.114.741-2.387 1.965-.103.461-.097.953-.098 1.43-.006 6.278-.027 12.557.02 18.834.008 1.013-.292 1.263-1.272 1.245-2.837-.054-2.838-.011-2.838-2.891 0-5.678-.004-11.357.006-17.035.001-.605-.035-1.199-.203-1.778-.329-1.137-1.103-1.728-2.279-1.765-1.163-.037-2.014.471-2.431 1.572-.256.676-.296 1.398-.295 2.124.009 6.158-.014 12.317.026 18.475.006.94-.151 1.326-1.213 1.302-2.826-.063-2.827-.009-2.827-2.805 0-5.958-.051-11.917.014-17.875.065-5.913 4.969-7.968 8.971-6.413 1.65.641 2.726.731 4.405.022 4.541-1.919 8.994 1.243 9.061 6.172.044 3.278.008 6.558.008 9.837z" fill="#067fc6"/><path d="M120.616 25.376c1.595-.612 3.183-1.008 4.832-.886 4.338.323 7.074 2.747 7.876 7.042.451 2.416.437 4.869-.131 7.263-1.151 4.85-5.093 7.35-10.363 6.661a16.52 16.52 0 0 1-5.239-1.614c-.605-.3-.856-.667-.853-1.384.03-7.957.031-15.914 0-23.871-.003-.853.253-1.07 1.08-1.067 2.708.01 2.707-.022 2.708 2.66.001 1.599.004 3.199.009 4.798 0 .078.03.156.081.398zm8.807 9.332c0-.998.063-2-.012-2.992-.209-2.774-1.971-4.5-4.615-4.517-1.217-.008-2.288.66-3.453.903-.693.145-.839.52-.833 1.176.031 3.394.014 6.788.014 10.182 0 2.387.271 2.716 2.634 3.153.353.065.711.105 1.069.139 2.593.24 4.475-1.198 4.976-3.75.279-1.424.267-2.858.22-4.294zm82.668 1.215c-1.799 0-3.598.025-5.396-.013-.639-.013-.797.213-.809.823-.074 3.708 2.67 6.189 6.448 5.821a13.434 13.434 0 0 0 4.26-1.126c.591-.267.947-.241 1.178.416.131.374.321.732.522 1.075.258.44.179.69-.293.934-3.218 1.662-6.576 2.222-10.082 1.166-2.513-.757-4.35-2.4-5.239-4.881-1.324-3.693-1.466-7.452.154-11.092 1.586-3.561 5.201-5.213 9.27-4.44 3.565.678 5.879 3.388 6.158 7.245.075 1.034.04 2.077.131 3.108.073.825-.269.999-1.025.977-1.758-.048-3.518-.013-5.277-.013zm-1.937-2.781c1.038 0 2.083-.074 3.112.021 1.009.094 1.258-.333 1.136-1.217-.049-.355-.024-.72-.074-1.074-.308-2.189-1.521-3.457-3.462-3.665-3.653-.391-4.987 2.702-4.968 5.318.004.581.348.62.783.618 1.157-.007 2.315-.003 3.473-.001z" fill="#0780c7"/><path d="M107.236 35.922c-1.759 0-3.518.026-5.277-.013-.655-.014-.899.151-.889.853.061 4.107 2.47 5.867 6.321 5.782 1.448-.032 2.845-.434 4.143-1.08.689-.343 1.018-.24 1.358.481.776 1.643.825 1.638-.809 2.347-2.549 1.105-5.192 1.597-7.947.992-3.399-.746-5.741-2.699-6.653-6.14-.793-2.991-.887-6.016.055-8.98 1.76-5.54 8.657-7.554 13.188-3.895 1.698 1.371 2.388 3.266 2.589 5.351.115 1.19.039 2.396.097 3.593.03.613-.244.725-.779.718-1.799-.024-3.598-.009-5.397-.009zm-1.878-2.78h2.635c1.594-.001 1.594-.001 1.495-1.638-.156-2.611-1.492-4.155-3.738-4.32-2.823-.208-5.295 2.726-4.674 5.502.122.547.474.447.807.45 1.159.013 2.317.006 3.475.006z" fill="#0680c7"/><path d="M161.807 34.882a12.89 12.89 0 0 1 .644-4.72c1.305-3.877 4.89-6.099 9.198-5.722 4.307.377 7.311 3.278 7.937 7.645.326 2.276.326 4.538-.216 6.782-1.041 4.306-4.354 6.756-8.987 6.656-4.253-.092-7.468-2.834-8.303-7.067a15.317 15.317 0 0 1-.273-3.574zm4.145.105c0 1.038-.079 2.084.015 3.113.263 2.886 1.989 4.604 4.632 4.708 2.563.102 4.551-1.526 4.901-4.125a27.528 27.528 0 0 0-.003-7.405c-.339-2.496-2.077-4.012-4.543-4.099-2.491-.087-4.242 1.287-4.829 3.751-.32 1.343-.194 2.703-.173 4.057z" fill="#057fc6"/><path d="M186.41 26.503c1.951-1.114 3.666-2.02 5.692-2.084 4.329-.138 7.017 2.229 7.133 6.579.119 4.437.033 8.879.056 13.318.003.54-.121.748-.72.783-3.097.18-3.096.201-3.096-2.864 0-3.52.006-7.04-.002-10.56-.008-3.686-2.238-5.303-5.761-4.177-.378.121-.738.298-1.105.453-1.342.564-1.946 1.416-1.892 3.025.143 4.315.028 8.638.067 12.958.007.841-.133 1.188-1.092 1.174-2.694-.04-2.695.009-2.695-2.673 0-5.48.017-10.96-.017-16.439-.006-.932.107-1.499 1.223-1.172.221.065.48.037.717.009 1.052-.122 1.875.005 1.492 1.67z" fill="#0680c7"/><path d="M34.423 17.324c-.066.352-.33.489-.533.672-2.049 1.845-4.113 3.673-6.141 5.541-.486.448-.745.49-1.218-.053-1.839-2.107-3.729-4.172-5.626-6.227-.416-.451-.437-.708.053-1.136 2.134-1.87 4.226-3.788 6.343-5.678.231-.207.437-.624.854-.157 1.997 2.236 4.013 4.455 6.019 6.682.102.113.178.252.249.356zm-1.398 5.386c.371-.024.492.275.669.47 1.879 2.072 3.739 4.161 5.628 6.224.405.443.439.716-.048 1.143a383.222 383.222 0 0 0-6.326 5.696c-.419.385-.647.406-1.039-.04-1.902-2.158-3.838-4.287-5.768-6.42-.257-.284-.476-.503-.068-.867 2.235-1.997 4.452-4.013 6.677-6.021.086-.077.195-.132.275-.185zm12.011 20.055c-.172.186-.319.369-.491.525-2.104 1.903-4.227 3.786-6.308 5.714-.505.468-.768.304-1.143-.116a526.489 526.489 0 0 0-5.626-6.228c-.407-.441-.48-.683.027-1.128 2.133-1.871 4.221-3.794 6.327-5.696.298-.269.544-.551.964-.076 1.96 2.214 3.952 4.4 5.931 6.597.104.118.194.248.319.408z" fill="#037ec6"/><path d="M49.75 24.907c-.195.127-.417.234-.595.393-1.485 1.329-2.971 2.656-4.433 4.009-.437.404-.713.435-1.137-.055a161.646 161.646 0 0 0-4.006-4.435c-.414-.445-.424-.73.054-1.145a210.184 210.184 0 0 0 4.447-3.992c.373-.342.63-.512 1.049-.03 1.387 1.592 2.813 3.149 4.222 4.722.106.116.19.25.399.533zm-5.153-11.145c-.206.144-.417.262-.593.419-1.489 1.331-2.987 2.652-4.445 4.016-.432.404-.678.36-1.045-.057a196.53 196.53 0 0 0-4.012-4.449c-.418-.448-.461-.729.024-1.152a274.589 274.589 0 0 0 4.551-4.079c.303-.276.51-.436.86-.038 1.426 1.618 2.88 3.212 4.319 4.819.102.112.17.255.341.521zm4.786 17.202c.213.19.433.353.613.553 1.31 1.452 2.595 2.927 3.928 4.358.416.447.471.703-.03 1.136-1.54 1.33-3.041 2.706-4.539 4.084-.373.343-.598.36-.955-.048a237.294 237.294 0 0 0-4.091-4.535c-.367-.398-.423-.684.026-1.077 1.562-1.366 3.096-2.765 4.642-4.149.117-.106.247-.197.406-.322zm4.894 11.185c.17.16.35.308.505.479 1.341 1.479 2.66 2.978 4.024 4.435.433.463.418.742-.058 1.157a172.256 172.256 0 0 0-4.448 4.011c-.47.439-.75.35-1.135-.091-1.313-1.503-2.657-2.98-3.991-4.465-.239-.266-.555-.493-.126-.875 1.638-1.462 3.264-2.939 4.896-4.408.087-.078.189-.138.333-.243z" fill="#047ec6"/><path d="M53.249 10.852c-.125.15-.213.284-.328.389-.971.883-1.952 1.756-2.919 2.644-.298.274-.527.265-.798-.042-.87-.984-1.745-1.964-2.642-2.922-.352-.376-.198-.601.113-.874 1.076-.945 2.14-1.903 3.208-2.857 1.169.907 1.999 2.136 3.016 3.187.131.138.228.309.35.475z" fill="#0680c7"/><path d="M57.923 21.72c.012.356-.244.451-.414.598-1.072.932-2.009 2.024-3.247 2.761-.921-.986-1.81-2.006-2.777-2.946-.555-.539-.472-.844.089-1.296.867-.698 1.682-1.464 2.487-2.235.422-.404.716-.473 1.132.028.763.918 1.591 1.783 2.389 2.672.131.146.248.303.341.418z" fill="#067fc6"/><path d="M59.422 29.178c.125.104.257.19.36.303.884.973 1.756 1.957 2.647 2.922.267.289.341.516-.026.769-.162.112-.292.271-.447.395-1.014.816-1.836 1.859-2.977 2.525-.968-1.056-1.935-2.113-2.905-3.167-.221-.241-.47-.455-.1-.783 1.042-.926 2.072-1.866 3.112-2.794.083-.074.204-.105.336-.17z" fill="#057fc6"/></svg>