<svg xmlns="http://www.w3.org/2000/svg" viewBox="-243.298 390.488 13.187 13.135"><path d="M-234.097 398.046l1.17-1.057 1.058 1.17-1.171 1.058zm-2.726 1.276l1.562-1.405 1.406 1.562-1.561 1.405zm5.228-2.01l.78-.703.703.78-.78.703zm-4.587-4.118l1.172-1.055 1.055 1.172-1.172 1.055zm3.59 1.794l.779-.703.704.78-.779.703zm-5.341 1.63l1.563-1.407 1.406 1.562-1.563 1.407zm-1.115-2.662l1.562-1.407 1.406 1.563-1.562 1.406zm3.945 1.597l1.17-1.056 1.057 1.172-1.17 1.055zm1.507-2.888l.78-.703.703.78-.78.703zm.529 7.745l1.172-1.056 1.056 1.173-1.171 1.055z"/><path d="M-233.95 400.683l-1.527 1.408-2.578-2.869.717-.631-1.805-2.021.721-.632-1.832-2.019 2.859-2.574.908.994 1.533-1.368.906.939.604-.541a6.539 6.539 0 0 0-3.286-.881c-3.617 0-6.568 2.95-6.568 6.568 0 3.617 2.951 6.567 6.568 6.567a6.516 6.516 0 0 0 3.237-.856c.315-.178.602-.371.864-.574l-1.321-1.51z"/></svg>