<svg xmlns="http://www.w3.org/2000/svg" viewBox="0 0 1170.674 449.38"><path d="M1112.206 176.367c16.16-.044 32.323.055 48.479-.229 4.219-.074 3.534 2.347 3.534 4.789.002 37.49.001 74.98.001 112.47 0 43.655-.055 87.311.087 130.965.014 4.262-.67 5.852-5.523 5.844-95.974-.168-191.949-.119-287.924-.131-20.439-.003-33.64-13.306-33.64-33.821 0-61.984.178-123.968-.116-185.95-.082-17.18 5.744-31.443 17.277-43.817 14.407-15.457 31.653-27.473 48.268-40.265 51.73-39.827 102.845-80.437 153.984-121.017 1.933-1.534 3.901-3.025 6.718-5.206l-.001 175.908c-.044 2.164-.125 4.328-.125 6.492-.008 30.32-.033 60.641.036 90.961.007 3.056-.642 5.179-3.442 7.064-15.976 10.756-31.744 21.822-47.662 32.666-33.624 22.91-67.304 45.74-100.951 68.619-10.52 7.153-21.005 14.359-31.506 21.542 2.063.381 3.752-.104 5.421-.646 26.697-8.674 53.395-17.345 80.085-26.039 47.699-15.538 95.386-31.114 143.106-46.587 3.028-.982 4.006-2.466 3.998-5.674-.118-49.313-.095-98.626-.104-147.938zm-92.804-1.814c.046-12.582-8.249-19.324-20.546-16.698-15.501 3.309-29.531 20.187-29.808 35.86-.219 12.372 8.357 19.552 20.48 17.147 15.521-3.079 29.816-20.453 29.874-36.309z" fill="#fecb00"/><path d="M121.224 289.575c0 40.154-.069 80.308.093 120.461.019 4.663-1.062 6.713-6.067 6.302a88.966 88.966 0 0 0-14.481.001c-4.837.396-5.837-1.607-5.808-6.055.177-27.49-.037-54.983.209-82.472.042-4.71-1.495-5.24-5.774-5.784-8.692-1.106-12.656 2.613-16.326 10.136-13.111 26.877-27.088 53.33-40.585 80.02-1.499 2.964-3.292 4.193-6.54 4.115-6.494-.156-12.995-.028-19.493-.051-7.032-.024-7.976-1.687-4.474-8.045 10.825-19.651 21.687-39.282 32.532-58.922 5.303-9.604 10.517-19.258 15.96-28.781 1.328-2.323.99-3.215-1.34-4.395-28.819-14.599-40.164-39.262-40.039-70.321.065-16.149 2.662-31.849 10.213-46.346 12.401-23.809 32.121-36.191 58.968-36.832 12.322-.294 24.66.077 36.986-.116 4.535-.071 6.063 1.535 6.046 6.125-.14 40.319-.08 80.639-.08 120.96zm-26.17-46.994c0-17.833-.08-35.667.071-53.499.029-3.379-.755-4.862-4.382-4.543-3.308.291-6.665.168-9.994.044-17.871-.669-29.768 8.1-36.738 23.879-8.093 18.323-8.761 37.504-4.211 56.721 4.162 17.583 14.142 30.335 32.775 34.418 6.08 1.332 12.307.263 18.441.707 3.419.247 4.13-1.054 4.105-4.227-.139-17.832-.067-35.666-.067-53.5z" fill="#fe0202"/><path d="M1112.206 176.367c.01 49.312-.013 98.624.105 147.936.008 3.209-.97 4.692-3.998 5.674-47.72 15.473-95.407 31.049-143.106 46.587-26.69 8.694-53.388 17.365-80.085 26.039-1.669.542-3.358 1.027-5.421.646 10.501-7.182 20.985-14.388 31.506-21.542 33.647-22.879 67.327-45.708 100.953-68.617 15.918-10.844 31.685-21.91 47.662-32.666 2.8-1.885 3.448-4.008 3.442-7.064-.069-30.32-.044-60.641-.036-90.961.001-2.164.081-4.329.125-6.492 14.464.07 28.927.131 43.391.218 1.82.012 3.641.159 5.462.242z" fill="#d5aa05"/><path d="M371.069 319.568c0 22.319-.008 44.639.005 66.958.004 6.947.884 8.119 7.632 7.93 4.535-.127 5.666 1.627 5.603 5.864-.208 13.988-.054 27.982-.09 41.973-.015 5.901-1.095 6.925-7.031 6.965-3.831.026-7.684-.256-11.487.072-4.559.393-5.713-1.562-5.568-5.802.273-7.986-.055-15.991.149-23.981.074-2.908-.879-3.531-3.626-3.517-21.486.108-42.973.124-64.459-.012-3.023-.019-3.975.664-3.874 3.803.246 7.654-.048 15.324.129 22.982.102 4.413-1.654 6.541-6.123 6.467-4.496-.074-8.997-.103-13.49.024-2.908.082-4.207-.903-4.187-4.014.099-15.49.107-30.981-.006-46.47-.024-3.323 1.325-4.771 4.449-4.213 4.629.827 6.64-1.433 8.515-5.406 9.61-20.365 14.669-41.928 17.614-64.093 3.208-24.145 3.642-48.434 3.363-72.733-.055-4.752 1.52-5.935 5.998-5.893 20.319.19 40.642.204 60.96-.013 4.415-.047 5.662 1.256 5.621 5.651-.209 22.485-.097 44.972-.097 67.458zm-74.564 74.986c15.757 0 30.562-.051 45.366.046 2.717.018 2.848-1.387 2.847-3.443-.029-39.968-.049-79.936.04-119.904.006-2.759-.978-3.303-3.437-3.212-4.49.167-9.018.353-13.479-.044-3.978-.354-4.461 1.23-4.539 4.751-.507 22.969-2.24 45.825-6.948 68.386-3.851 18.457-10.085 36.015-19.85 53.42z" fill="#050505"/><path d="M246.4 331.574c0 26.329-.094 52.659.093 78.987.031 4.397-1.208 5.94-5.649 5.612-4.972-.367-10.009-.339-14.986-.007-4.334.288-5.778-1.096-5.74-5.579.202-23.661.001-47.326.192-70.987.03-3.731-.847-4.722-4.603-4.611-9.99.296-19.998.255-29.99.015-3.367-.081-4.061.989-4.044 4.157.129 23.662-.012 47.326.145 70.988.029 4.343-.854 6.464-5.792 6.043-5.294-.452-10.664-.272-15.986-.042-3.491.151-4.801-1.142-4.706-4.59.155-5.661.042-11.33.042-16.996 0-47.159-.002-94.319.002-141.478.001-6.393.108-6.502 6.328-6.523 4.999-.017 10.011.218 14.994-.074 3.936-.231 5.167 1.102 5.128 5.078-.185 18.662.159 37.332-.235 55.987-.112 5.327 1.567 6.305 6.385 6.115 9.484-.374 18.996-.249 28.49-.031 3.122.072 3.845-.834 3.822-3.875-.145-19.163.042-38.328-.161-57.49-.046-4.352 1.241-6.042 5.667-5.782 4.982.293 10.009.304 14.989-.004 4.309-.267 5.752 1.103 5.718 5.6-.206 26.495-.103 52.991-.103 79.487z" fill="#040404"/><path d="M549.07 322.567c3.156-2.599 4.088-5.457 5.353-8.09 9.706-20.201 19.501-40.36 29.021-60.649 2.452-5.225 5.995-7.562 11.687-7.321 5.155.219 10.328.02 15.492.053 5.383.035 5.512.294 2.822 5.223-12.246 22.443-24.426 44.923-36.824 67.282-1.672 3.016-1.564 5.245-.023 8.176 14.359 27.328 28.586 54.727 42.849 82.106.614 1.178 1.198 2.373 1.826 3.543 1.335 2.489.318 3.24-2.187 3.219-7.33-.06-14.662.053-21.991-.062-4.113-.065-6.596-2.499-8.337-6.106-11.473-23.765-23.021-47.493-34.554-71.229-1.352-2.783-2.756-5.541-5.134-8.217v4.6c0 24.99-.111 49.982.096 74.971.04 4.83-1.414 6.485-6.25 6.116-5.301-.404-10.668-.309-15.983-.015-3.481.193-4.357-1.275-4.272-4.354.124-4.495.031-8.996.031-13.494 0-48.482.075-96.964-.112-145.446-.02-5.085 1.375-6.854 6.463-6.411 4.795.418 9.676.365 14.481.01 4.583-.338 5.638 1.645 5.612 5.815-.141 21.991-.066 43.983-.066 65.975v4.305z" fill="#050505"/><path d="M462.178 337.256c-10.069-.233-21.746.628-33.346-1.097-1.876-.279-3.551-.478-3.489 2.505.238 11.506.794 22.947 5.132 33.81 6.837 17.12 20.74 25.322 39.112 23.231 5.461-.622 10.932-1.281 16.17-2.925 3.54-1.111 5.078-.272 6.024 3.374 3.246 12.506 3.257 12.852-8.708 17.83-14.159 5.89-28.782 8.596-43.801 4.013-18.453-5.63-28.76-19.481-35.143-36.763-6.46-17.492-7.465-35.692-6.453-54.11 1.019-18.542 3.808-36.722 11.612-53.766 5.984-13.068 14.268-24.133 28.569-28.96 18.352-6.195 36.497 1.994 46.231 20.591 7.971 15.229 10.588 31.717 11.284 48.628.26 6.317.07 12.656.439 18.965.211 3.604-.633 4.923-4.571 4.781-9.153-.332-18.324-.107-29.062-.107zm-11.872-21.343c4.821 0 9.649-.146 14.461.056 2.776.117 3.91-.674 3.65-3.579-.579-6.447-.647-12.954-1.52-19.355-1.075-7.89-2.692-15.745-7.215-22.553-5.769-8.683-14.961-9.028-21.536-.953-1.803 2.214-3.136 4.686-4.212 7.301-4.934 11.995-6.267 24.682-7.248 37.451-.214 2.784 1.132 2.963 3.23 2.653 6.764-.998 13.576-1.046 20.39-1.021zm176.285 28.434c.231-26.094 2.819-45.413 10.43-63.849 2.614-6.331 5.876-12.281 9.942-17.775 13.904-18.786 32.965-24.712 55.076-17.007 4.375 1.525 8.585 3.544 12.809 5.471 3.021 1.379 3.654 3.671 1.918 6.524a1698.632 1698.632 0 0 1-9.121 14.864c-1.665 2.674-3.564 3.081-6.085.809-3.325-2.998-6.77-5.863-10.951-7.716-7.936-3.517-14.976-1.998-20.531 4.699-6.894 8.311-9.983 18.301-12.099 28.606-4.709 22.936-5.524 45.894 1.243 68.586 3.817 12.799 10.69 23.386 24.493 27.236 8.908 2.484 17.819.8 26.642-1.168 7.592-1.693 6.956-3.64 8.977 5.273 2.224 9.808 2.304 9.932-6.888 14.18-18.273 8.446-36.708 10.739-54.858-.12-14.23-8.513-21.674-22.095-26.293-37.459-3.67-12.212-4.832-24.768-4.704-31.154z" fill="#030303"/><path d="M1019.402 174.553c-.058 15.857-14.353 33.231-29.874 36.309-12.124 2.405-20.699-4.775-20.48-17.147.278-15.673 14.307-32.551 29.808-35.86 12.297-2.626 20.592 4.115 20.546 16.698z" fill="#020200"/></svg>