<?xml version="1.0" encoding="utf-8"?>
<!-- Generator: Adobe Illustrator 21.1.0, SVG Export Plug-In . SVG Version: 6.00 Build 0)  -->
<svg version="1.1" id="Layer_1" xmlns="http://www.w3.org/2000/svg" xmlns:xlink="http://www.w3.org/1999/xlink" x="0px" y="0px"
	 viewBox="0 0 457.7 229.3" style="enable-background:new 0 0 457.7 229.3;" xml:space="preserve">
<style type="text/css">
	.st0{fill:#ED7B37;}
	.st1{fill:#F15A22;}
	.st2{fill:#FFFFFF;}
	.st3{fill:#52C6D8;}
	.st4{fill:#ADE0EE;}
	.st5{fill:#FAA74B;}
</style>
<g>
	<g>
		<polygon class="st0" points="273.6,45.7 319.2,91.3 364.7,137 410.3,91.5 364.8,45.8 319.3,0.1 		"/>
		<g>
			
				<rect x="163.5" y="26.7" transform="matrix(0.7082 -0.706 0.706 0.7082 2.1546 187.5653)" class="st1" width="128.9" height="128.9"/>
			<g>
				<path id="XMLID_1696_" class="st2" d="M227,34.1c-2,2-2.9,2.5-3.2,5.7c-0.3,3.2,2.8,10.6,3.3,11.7c0.5,1.1,1.1,2.2,1.6,3.4
					l-0.1,0.1l-0.1,0.1l-0.1,0c-1.1-0.6-2.2-1.1-3.3-1.6c-1.1-0.5-8.5-3.6-11.7-3.3c-3.2,0.3-3.7,1.2-5.7,3.2c0,0,0.2,1.2,1.4,2.4
					c1.2,1.2,2.4,1.5,2.4,1.5c0.9-0.9,1.3-1.3,2-1.4c2.4-0.3,5.7,1,5.7,1l11.6,4.7l10.6,10.6c0,0,1.5-0.6,2.6-1.7
					c1.1-1.1,1.6-2.5,1.6-2.5l-10.6-10.6l-4.7-11.6c0,0-1.3-3.4-1-5.7c0.1-0.6,0.5-1.1,1.4-2c0,0-0.3-1.3-1.5-2.4
					C228.2,34.3,227,34.1,227,34.1"/>
				<path id="XMLID_1695_" class="st2" d="M256.6,68.1c0,0-1.1,0.1-2.7,1.7c-1.6,1.6-1.6,2.6-1.6,2.6l18.2,18.3
					c1.2,1.2,1.7,2.4,1.7,3.8c0,1.4-0.5,2.6-1.6,3.6c-1.2,1.2-2.6,1.8-4,1.6c-1.4-0.2-2.7-0.8-3.8-1.9l-18-18c0,0-1.3,0.3-2.6,1.6
					c-1.3,1.3-1.6,2.6-1.6,2.6l17.9,17.9c1.1,1.1,2.4,2.1,3.7,2.7c1.3,0.7,2.7,1.1,4.1,1.1c1.4,0.1,2.8-0.2,4.3-0.7
					c1.4-0.6,2.8-1.5,4.2-2.9c1.2-1.2,2.1-2.4,2.7-3.8c0.6-1.3,0.9-2.7,0.9-4.1c0-1.4-0.3-2.8-0.9-4.2c-0.6-1.4-1.5-2.7-2.8-4
					L256.6,68.1"/>
				<path class="st2" d="M260.4,108.6c0,0-1.6,1.7-2.9,1.6c-1.3-0.1-1.8-0.3-2.7-0.7c-1-0.5-7.4-3.4-7.4-3.4c0.7-2,0.9-3.9,0.4-5.8
					c-0.5-1.9-1.6-3.6-3.2-5.3c-1.2-1.2-2.5-2.1-3.8-2.7c-1.3-0.6-2.6-0.8-3.9-0.8c-1.3,0-2.5,0.4-3.8,1c-1.2,0.6-2.4,1.4-3.5,2.5
					l-8.4,8.3l25.9,26c0,0,1.3-0.4,2.5-1.7c1.2-1.2,1.7-2.6,1.7-2.6l-10.8-10.8l3.3-3.3c0,0,8.9,4.5,10.3,4.9c1.8,0.5,3.5,0.9,5.6,0
					c2.3-1,4.3-3.4,4.3-3.4s-0.4-1.2-1.3-2.2C261.8,109.1,260.4,108.6,260.4,108.6z M242.2,103c0,1.3-0.6,2.5-1.7,3.6l-3.7,3.7
					l-7.4-7.4l3.8-3.8c1.2-1.2,2.4-1.8,3.6-1.8c1.2,0,2.4,0.6,3.6,1.8C241.6,100.4,242.2,101.7,242.2,103z"/>
				<path id="XMLID_1692_" class="st2" d="M233.9,142.5c0,0,1.4-0.6,2.8-2c1.4-1.4,1.8-2.6,1.8-2.6s-0.5-1.3-2-2.8
					c-1.5-1.5-2.8-2-2.8-2s-1.2,0.4-2.7,1.9c-1.5,1.5-1.9,2.7-1.9,2.7s0.5,1.3,2,2.8C232.6,142.1,233.9,142.5,233.9,142.5"/>
				<path class="st2" d="M210.4,61.1c-1.3-0.6-2.6-1-4-1.1c-1.4-0.1-2.9,0.1-4.3,0.6c-1.5,0.5-2.9,1.5-4.3,2.8
					c-1.5,1.5-2.5,2.9-3,4.4c-0.5,1.5-0.7,3-0.6,4.4c0.1,1.4,0.5,2.7,1.2,4c0.7,1.2,1.4,2.3,2.4,3.2l9.8,9.8
					c1.1,1.1,2.4,2.1,3.7,2.8c1.3,0.7,2.7,1.2,4.1,1.3c1.4,0.1,2.9-0.1,4.3-0.6c1.5-0.6,2.9-1.5,4.3-3c1.2-1.2,2.1-2.4,2.7-3.8
					c0.6-1.3,0.9-2.7,0.9-4.1c0-1.4-0.3-2.8-0.9-4.2c-0.6-1.4-1.5-2.7-2.8-3.9l-10.2-10.3C212.8,62.6,211.7,61.7,210.4,61.1z
					 M220,78.5c1.1,1.1,1.7,2.4,1.6,3.8c-0.1,1.4-0.6,2.5-1.5,3.5c-1.4,1.4-2.8,1.9-4.2,1.6c-1.4-0.3-2.7-1-4-2.3l-10-9.9
					c-0.4-0.4-0.8-0.9-1.1-1.5c-0.3-0.6-0.5-1.2-0.6-1.9c-0.1-0.7,0-1.4,0.2-2.1c0.2-0.7,0.7-1.5,1.4-2.2c0.7-0.7,1.5-1.2,2.2-1.3
					c0.7-0.2,1.5-0.2,2.1-0.1c0.7,0.1,1.3,0.4,1.8,0.7c0.5,0.3,1,0.7,1.3,1L220,78.5z"/>
				<path id="XMLID_1689_" class="st2" d="M190.7,78.6c0,0-0.3-1.3-1.5-2.5c-1.2-1.2-2.4-1.4-2.4-1.4l-15.7,15.7
					c0,0,0.3,1.1,1.4,2.3c1.2,1.2,2.4,1.6,2.4,1.6l5.7-5.7l22,22.1c0,0,1.3-0.7,2.5-1.8c1.2-1.2,1.8-2.5,1.8-2.5l-22-22.1
					L190.7,78.6z"/>
			</g>
		</g>
		<polygon class="st3" points="0,136.4 45.5,182.1 91.1,136.6 136.7,182.2 182.3,136.7 91.3,45.4 		"/>
		
			<rect x="104.6" y="13.2" transform="matrix(0.7082 -0.706 0.706 0.7082 7.8563 109.8971)" class="st4" width="64.5" height="64.5"/>
		<path class="st4" d="M114,91l-22.8,22.8L68.4,90.9l22.8-22.8L114,91z"/>
		<path class="st4" d="M121.6,121.4l30.4,0l0,30.4l-30.4,0L121.6,121.4z"/>
		<path class="st3" d="M154.1,45.5c0,9.5-7.7,17.2-17.2,17.2c-9.5,0-17.2-7.7-17.2-17.2c0-9.5,7.7-17.2,17.2-17.2
			C146.4,28.3,154.1,36,154.1,45.5"/>
		
			<rect x="286.9" y="104.7" transform="matrix(0.7082 -0.706 0.706 0.7082 -3.5471 265.2334)" class="st5" width="64.5" height="64.5"/>
		<path class="st0" d="M336.3,136.9c0,9.5-7.7,17.2-17.2,17.2c-9.5,0-17.2-7.7-17.2-17.2c0-9.5,7.7-17.2,17.2-17.2
			C328.6,119.7,336.3,127.4,336.3,136.9"/>
		
			<rect x="378.2" y="13.6" transform="matrix(0.7082 -0.706 0.706 0.7082 87.374 303.1427)" class="st5" width="64.5" height="64.5"/>
		<path class="st5" d="M381.9,91.4c0,9.5-7.7,17.2-17.2,17.2c-9.5,0-17.2-7.7-17.2-17.2c0-9.5,7.7-17.2,17.2-17.2
			C374.3,74.2,382,81.9,381.9,91.4"/>
		<path class="st5" d="M336.4,45.8c0,9.5-7.7,17.2-17.2,17.2c-9.5,0-17.2-7.7-17.2-17.2c0-9.5,7.7-17.2,17.2-17.2
			C328.8,28.5,336.4,36.3,336.4,45.8"/>
		<path class="st4" d="M62.7,136.5c0,9.5-7.7,17.2-17.2,17.2c-9.5,0-17.2-7.7-17.2-17.2c0-9.5,7.7-17.2,17.2-17.2
			C55.1,119.3,62.8,127,62.7,136.5"/>
		<path class="st0" d="M433.2,45.9l-22.8,22.8l-22.8-22.8l22.8-22.8L433.2,45.9z"/>
	</g>
	<g>
		<path id="XMLID_98_" class="st1" d="M16.8,223.4l0-13.8l-0.1,0l-1.2,3l-1.7,3.7l-1.8,3.8l-3.2,0l-1.3-2.8l-2.2-4.9L4,209.5
			l-0.1,0.1l0,13.8l-4.1,0l0-23.3l3.8,0l3,6.7c0.6,1.4,1.3,2.8,1.9,4.2c0.6,1.4,1.2,2.8,1.8,4.2l0.1,0l1.9-4.5l1.7-3.9l3-6.7l3.9,0
			l0,23.3L16.8,223.4z"/>
		<path id="XMLID_94_" class="st1" d="M25.6,223.4l0-23.3l4.1,0l0,9.5l5.3,0c1.2,0,2.4,0.2,3.3,0.5c1,0.4,1.8,0.8,2.4,1.4
			c0.7,0.6,1.2,1.3,1.5,2.1c0.3,0.8,0.5,1.7,0.5,2.6c0,1.2-0.2,2.2-0.6,3.1c-0.4,0.9-1,1.6-1.7,2.2c-0.7,0.6-1.5,1-2.5,1.3
			c-1,0.3-2,0.4-3.1,0.4L25.6,223.4z M38.6,216.5c0-0.8-0.3-1.5-0.9-2.2c-0.6-0.6-1.6-1-2.8-1l-5.1,0l0,6.4l5.1,0
			c1.2,0,2.1-0.3,2.8-0.9C38.2,218.3,38.6,217.5,38.6,216.5z M44.8,223.4l0-23.3l4.1,0l0,23.3L44.8,223.4z"/>
		<path id="XMLID_92_" class="st1" d="M68.8,223.6c-2.1,0-3.9-0.5-5.4-1.4c-1.5-0.9-2.6-2.2-3.2-3.9l3.8-1.7
			c0.2,0.4,0.4,0.9,0.7,1.2s0.7,0.7,1.2,1c0.4,0.3,0.9,0.5,1.4,0.7c0.5,0.2,1.1,0.3,1.6,0.3c1.3,0,2.4-0.3,3.2-0.9
			c0.8-0.6,1.3-1.5,1.3-2.6c0-1.1-0.3-1.9-1-2.5c-0.7-0.6-1.6-0.9-2.8-0.9l-2.7,0l0-3.4l2.8,0c1,0,1.9-0.3,2.6-0.8
			c0.7-0.5,1-1.3,1-2.1c0-0.9-0.4-1.6-1.1-2.1c-0.7-0.5-1.6-0.7-2.7-0.7c-1.1,0-2.1,0.3-3,0.8c-0.9,0.5-1.5,1.3-1.9,2.1l-3.5-1.8
			c0.7-1.5,1.7-2.7,3.2-3.6c1.4-0.9,3.2-1.4,5.3-1.3c2.4,0,4.4,0.5,5.8,1.6c1.4,1.1,2.1,2.6,2.1,4.5c0,0.4-0.1,0.8-0.2,1.3
			c-0.1,0.5-0.3,0.9-0.6,1.4s-0.6,0.9-1,1.3s-1,0.7-1.6,1c0,0,0,0.1,0,0.1c0,0,0,0,0,0.1c0.7,0.2,1.3,0.5,1.8,1
			c0.5,0.4,0.8,0.9,1.1,1.4c0.3,0.5,0.5,1,0.6,1.5c0.1,0.5,0.1,1,0.1,1.4c0,1.1-0.2,2.1-0.7,3c-0.4,0.9-1.1,1.6-1.8,2.2
			c-0.8,0.6-1.7,1.1-2.8,1.4C71.2,223.5,70,223.6,68.8,223.6z"/>
		<path id="XMLID_90_" class="st1" d="M94.4,223.5l0-10l-9,0l0,10l-4.1,0l0-23.3l4.1,0l0,9.8l9,0l0-9.8l4.1,0l0,23.3L94.4,223.5z"/>
		<path id="XMLID_87_" class="st1" d="M117.5,223.5l-1.8-5.2l-8.6,0l-1.9,5.2l-4.3,0l8.8-23.3l3.3,0l8.8,23.3L117.5,223.5z
			 M113,210.2l-1.5-4.8l-0.1,0l-1.5,4.7l-1.6,4.8l6.3,0L113,210.2z"/>
		<path id="XMLID_85_" class="st1" d="M124.4,223.6l0-23.3l15.6,0l0,3.7l-11.6,0l0,6.1l9.8,0l0,3.6l-9.8,0l0,6.3l11.6,0l0,3.7
			L124.4,223.6z"/>
		<path id="XMLID_83_" class="st1" d="M160.3,223.6l0-13.8l-0.1,0l-1.2,3l-1.7,3.7l-1.8,3.8l-3.2,0l-1.3-2.8l-2.2-4.9l-1.2-2.8
			l-0.1,0.1l0,13.8l-4.1,0l0-23.3l3.8,0l3,6.7c0.6,1.4,1.3,2.8,1.9,4.2c0.6,1.4,1.2,2.8,1.8,4.2l0.1,0l1.9-4.5l1.7-3.9l3-6.7l3.9,0
			l0,23.3L160.3,223.6z"/>
		<path id="XMLID_81_" class="st1" d="M168.5,228l1.2-4.4l-1.1,0l0-4.7l4.6,0l0,4.5l-2.6,4.6L168.5,228z"/>
		<path id="XMLID_79_" class="st1" d="M188.9,200.3l0,6.9c0,1.5,0.4,2.6,1.1,3.3c0.7,0.7,1.8,1.1,3.1,1.1c0.6,0,1.4-0.1,2.2-0.3
			c0.9-0.2,1.7-0.6,2.3-1.1l0-9.8l4,0l0,23.3l-4.1,0l0-10.1l0,0c-0.8,0.5-1.8,0.9-2.7,1.1c-1,0.2-1.9,0.3-2.8,0.3
			c-1,0-2-0.2-2.8-0.5c-0.9-0.3-1.6-0.8-2.3-1.3c-0.6-0.6-1.1-1.3-1.5-2.2c-0.4-0.9-0.5-2-0.5-3.2l0-7.3L188.9,200.3z"/>
		<path id="XMLID_77_" class="st1" d="M206.6,223.7l0-23.3l15.6,0l0,3.7l-11.6,0l0,6.1l9.8,0l0,3.6l-9.8,0l0,6.3l11.6,0l0,3.7
			L206.6,223.7z"/>
		<path id="XMLID_75_" class="st1" d="M229.6,204.1l0,19.6l-4.1,0l0-23.3l15.6,0l0,3.7L229.6,204.1z"/>
		<path id="XMLID_72_" class="st1" d="M250.9,200.3c1.3,0,2.5,0.2,3.6,0.7c1.1,0.4,2,1.1,2.7,1.8c0.8,0.8,1.3,1.7,1.7,2.8
			c0.4,1.1,0.6,2.3,0.6,3.5l0,6c0,1.4-0.2,2.6-0.6,3.7c-0.4,1.1-1,2-1.8,2.8c-0.8,0.8-1.7,1.4-2.7,1.8s-2.3,0.6-3.6,0.6
			c-1.5,0-2.7-0.2-3.8-0.7c-1.1-0.5-2-1.1-2.7-1.9c-0.7-0.8-1.2-1.8-1.6-2.8c-0.4-1.1-0.5-2.2-0.5-3.4l0-6c0-1.2,0.2-2.3,0.5-3.3
			c0.4-1.1,0.9-2,1.6-2.8c0.7-0.8,1.6-1.5,2.7-1.9C248.2,200.5,249.4,200.3,250.9,200.3z M250.9,204.1c-0.8,0-1.5,0.1-2,0.4
			c-0.6,0.3-1,0.6-1.4,1.1c-0.4,0.5-0.7,1-0.9,1.6c-0.2,0.6-0.3,1.2-0.3,1.8l0,6.3c0,0.6,0.1,1.3,0.3,1.9c0.2,0.6,0.5,1.1,0.9,1.6
			c0.4,0.5,0.9,0.8,1.4,1.1s1.2,0.4,2,0.4c0.7,0,1.4-0.1,1.9-0.4c0.6-0.3,1.1-0.6,1.4-1.1c0.4-0.4,0.7-1,0.9-1.6
			c0.2-0.6,0.3-1.3,0.3-2l0-6.3c0-0.7-0.1-1.3-0.3-1.9c-0.2-0.6-0.5-1.1-0.9-1.5s-0.9-0.8-1.4-1
			C252.2,204.2,251.6,204.1,250.9,204.1z"/>
		<path id="XMLID_70_" class="st1" d="M284.2,223.8l-5.1-8.6l-5.1,8.6l-4.6,0l7.6-11.9l-7.1-11.4l4.6,0l4.6,8l4.6-8l4.6,0l-7.1,11.4
			l7.5,11.9L284.2,223.8z"/>
		<path id="XMLID_67_" class="st1" d="M299,200.3c1.3,0,2.5,0.2,3.6,0.7s2,1.1,2.7,1.8c0.8,0.8,1.3,1.7,1.7,2.8
			c0.4,1.1,0.6,2.3,0.6,3.5l0,6c0,1.4-0.2,2.6-0.6,3.7c-0.4,1.1-1,2-1.8,2.8c-0.8,0.8-1.7,1.4-2.7,1.8c-1.1,0.4-2.3,0.6-3.6,0.6
			c-1.5,0-2.7-0.2-3.8-0.7c-1.1-0.5-2-1.1-2.7-1.9c-0.7-0.8-1.2-1.8-1.6-2.8c-0.4-1.1-0.5-2.2-0.5-3.4l0-6c0-1.2,0.2-2.3,0.5-3.3
			c0.4-1.1,0.9-2,1.6-2.8c0.7-0.8,1.6-1.5,2.7-1.9C296.3,200.6,297.6,200.3,299,200.3z M299,204.2c-0.8,0-1.5,0.1-2,0.4
			c-0.6,0.3-1,0.6-1.4,1.1c-0.4,0.5-0.7,1-0.9,1.6c-0.2,0.6-0.3,1.2-0.3,1.8l0,6.3c0,0.6,0.1,1.3,0.3,1.9c0.2,0.6,0.5,1.1,0.9,1.6
			c0.4,0.5,0.9,0.8,1.4,1.1c0.6,0.3,1.2,0.4,2,0.4c0.7,0,1.4-0.1,1.9-0.4c0.6-0.3,1.1-0.6,1.4-1.1c0.4-0.4,0.7-1,0.9-1.6
			c0.2-0.6,0.3-1.3,0.3-2l0-6.3c0-0.7-0.1-1.3-0.3-1.9c-0.2-0.6-0.5-1.1-0.9-1.5s-0.9-0.8-1.4-1C300.4,204.3,299.7,204.2,299,204.2z
			"/>
		<path id="XMLID_65_" class="st1" d="M320,204.2l0,19.7l-4.1,0l0-19.7l-6.5,0l0-3.6l17,0l0,3.6L320,204.2z"/>
		<path id="XMLID_62_" class="st1" d="M345.5,200.6l0,23.3l-4.1,0l0-9.8l-3.2,0c-0.4,0-0.9,0.1-1.3,0.2c-0.4,0.1-0.8,0.3-1.2,0.6
			c-0.4,0.3-0.7,0.7-1.1,1.2c-0.3,0.5-0.6,1.1-0.8,1.9l-1.8,6l-4.3,0l1.9-6.6c0.3-1,0.6-1.8,1.1-2.5c0.4-0.7,1.1-1.2,2-1.5
			c-0.7-0.2-1.4-0.5-1.9-0.9c-0.5-0.4-0.9-0.9-1.2-1.4c-0.3-0.5-0.6-1.1-0.7-1.7c-0.1-0.6-0.2-1.2-0.2-1.8c0-1,0.2-2,0.5-2.8
			c0.4-0.9,0.9-1.6,1.5-2.2c0.6-0.6,1.4-1.1,2.3-1.4c0.9-0.3,1.9-0.5,2.9-0.5L345.5,200.6z M332.9,207.6c0,0.5,0.1,1,0.3,1.4
			c0.2,0.4,0.5,0.7,0.8,0.9c0.4,0.2,0.8,0.4,1.3,0.5c0.5,0.1,1,0.2,1.6,0.2l4.5,0l0-6.4l-4.7,0c-1.2,0-2.1,0.3-2.7,0.9
			C333.3,205.6,332.9,206.5,332.9,207.6z"/>
		<path id="XMLID_60_" class="st1" d="M358.6,204.2l0,19.7l-4.1,0l0-19.7l-6.5,0l0-3.6l17,0l0,3.6L358.6,204.2z"/>
		<path id="XMLID_57_" class="st1" d="M374.4,220.7c0.4-0.1,0.7-0.1,1.1-0.2c0.4-0.1,0.7-0.2,1.1-0.2c0.5-0.4,1-0.8,1.3-1.3
			c0.3-0.5,0.6-1.1,0.8-1.9c0.2-0.7,0.3-1.7,0.4-2.7c0.1-1.1,0.2-2.4,0.2-3.9l0.4-9.8l15.4,0c0,3.3,0,6.6,0,9.9c0,3.3,0,6.6,0,9.9
			l2.2,0l0,8.7l-3.6,0l0-5.2l-15.7,0l0,5.2l-3.6,0L374.4,220.7z M383.3,204.3c0,1.1-0.1,2.1-0.1,3.1c0,1-0.1,2.1-0.1,3.1
			c0,1-0.1,2-0.2,3c-0.1,1-0.1,1.9-0.3,2.7c-0.1,0.8-0.3,1.6-0.5,2.3c-0.2,0.7-0.5,1.3-0.9,1.8l9.8,0l0-16.1L383.3,204.3z"/>
		<path id="XMLID_55_" class="st1" d="M400.7,224l0-23.3l15.6,0l0,3.7l-11.6,0l0,6.1l9.8,0l0,3.6l-9.8,0l0,6.3l11.6,0l0,3.7
			L400.7,224z"/>
		<path id="XMLID_53_" class="st1" d="M427.9,204.3l0,19.7l-4.1,0l0-19.7l-6.5,0l0-3.6l17,0l0,3.6L427.9,204.3z"/>
		<path id="XMLID_51_" class="st1" d="M437.1,224l0-23.3l4.1,0l0,16.5c0,0,0.1,0,0.1,0l5.4-8.3l5.4-8.2l3.4,0l0,23.3l-4.1,0l0-15.8
			l-0.1,0l-4.6,7.1c-1,1.4-2,2.9-2.9,4.3c-1,1.4-1.9,2.9-3,4.3L437.1,224z"/>
	</g>
</g>
</svg>
