<?xml version="1.0" encoding="iso-8859-1"?>
<!-- Generator: Adobe Illustrator 21.1.0, SVG Export Plug-In . SVG Version: 6.00 Build 0)  -->
<svg version="1.1" id="Layer_1" xmlns="http://www.w3.org/2000/svg" xmlns:xlink="http://www.w3.org/1999/xlink" x="0px" y="0px"
	 viewBox="0 0 2045.251 1235.387" style="enable-background:new 0 0 2045.251 1235.387;" xml:space="preserve">
<g>
	<path style="fill:#FE0000;" d="M0,619.237c0-0.333,0-0.667,0-1c0.494-0.531,0.513-1.188,0.499-1.857
		c-0.392-18.645,0.598-37.266,1.033-55.896c0.265-11.366,3.422-22.352,4.813-33.574c3.728-30.067,12.396-59.007,21.281-87.76
		c6.328-20.479,14.908-40.323,23.845-59.858c7.619-16.653,15.503-33.217,23.981-49.46c5.162-9.89,11.975-18.825,17.714-28.395
		c14.774-24.637,32.816-46.951,49.898-69.934c6.548-8.809,15.18-15.859,22.59-23.991c15.268-16.755,32.349-31.683,49.041-46.994
		c18.086-16.59,38.103-30.744,57.679-45.408c12.37-9.267,26.063-16.76,39.486-24.468c30.516-17.523,62.211-32.506,95.371-44.557
		c23.839-8.663,48.089-15.863,72.447-22.683c12.78-3.578,26.318-3.913,39.443-6.15c16.787-2.861,33.753-3.118,50.681-4.221
		c13.334-0.869,26.632-0.793,39.937-0.699c21.309,0.151,42.562,1.878,63.7,4.401c41.253,4.924,81.718,13.757,121.593,25.442
		c36.797,10.783,71.476,26.535,105.286,44.318c24.223,12.74,46.993,27.888,69.163,43.864c14.996,10.806,28.729,23.238,42.518,35.564
		c2.788,1.599,5.047,3.817,7.291,6.055c11.791,11.763,23.705,23.406,34.809,35.837c0.887,0.993,1.861,1.91,2.477,3.12
		c1.27,2.494,0.547,4.171-2.098,4.969c-2.107,0.636-4.301,0.425-6.459,0.427c-25.831,0.03-51.661,0.061-77.491-0.036
		c-4.286-0.016-7.747,0.917-10.493,4.449c-5.607,7.213-11.118,14.487-16.522,22.03c1.977,2.078,4.256,1.326,6.26,1.328
		c43.495,0.046,86.992,0.222,130.484-0.128c8.474-0.068,14.228,2.938,18.975,9.53c5.446,7.562,11.117,14.966,16.77,22.379
		c1.11,1.456,2.149,2.973,3.019,4.587c2.741,5.083,1.437,7.453-4.311,7.801c-2.495,0.151-4.998,0.073-7.498,0.073
		c-62.493,0.002-124.987,0.085-187.479-0.125c-6.509-0.022-10.662,1.821-13.348,7.856c-2.019,4.537-5.001,8.634-7.556,12.925
		c-1.256,2.11-2.844,4.113-2.952,7.033c2.12,1.7,4.701,1.073,7.075,1.074c74.659,0.036,149.32,0.33,223.973-0.269
		c12.366-0.099,19.301,4.363,23.909,14.997c2.843,6.562,6.389,12.821,9.537,19.257c3.948,8.071,2.691,10.128-6.108,10.24
		c-2.333,0.03-4.666,0.013-6.999,0.013c-88.324,0-176.648,0.084-264.971-0.153c-7.368-0.02-11.934,1.633-14.126,9.135
		c-1.239,4.242-3.533,8.248-5.343,12.363c-2.451,5.571-1.917,6.345,4.001,6.44c1.666,0.027,3.333,0.007,4.999,0.007
		c96.989,0,193.979,0,290.968,0.001c2.666,0,5.335,0.078,7.998,0.024c4.534-0.092,7.594,1.984,9.477,6.017
		c4.661,9.984,8.252,20.372,11.408,30.903c1.644,5.485-0.24,7.875-5.9,8.192c-2.662,0.149-5.332,0.07-7.998,0.071
		c-106.988,0.002-213.977,0.001-320.965,0.001c-2,0-4.015,0.161-5.996-0.026c-4.536-0.428-7.107,1.409-8.381,5.88
		c-1.596,5.598-3.504,11.102-4.847,16.784c-0.821,3.475,0.257,5.11,3.837,5.123c2,0.007,3.999,0.029,5.999,0.029
		c114.321,0.002,228.642-0.002,342.963,0.004c12.408,0.001,12.638,0.214,15.711,12.453c1.823,7.263,3.655,14.524,5.447,21.795
		c2.175,8.826,0.601,10.925-8.414,10.935c-45.495,0.05-90.99,0.02-136.485,0.021c-73.159,0.003-146.317,0.011-219.476-0.029
		c-3.281-0.002-6.681,0.629-9.793-1.074c-2.219-3.514-5.509-4.078-9.437-4.024c-13.653,0.189-27.311,0.037-40.967,0.091
		c-5.264,0.021-6.407,0.826-6.762,5.804c-2.207,30.981-10.09,60.988-15.642,91.388c-6.394,35.006-13.605,69.861-20.096,104.85
		c-1.82,9.808-3.382,19.794-2.288,29.771c1.129,10.295,2.851,21.059,12.529,27.071c8.624,5.357,18.379,8.667,28.754,8.95
		c12.812,0.35,25.616,0.177,38.319-1.94c7.562-1.261,8.321-1.858,10.172-9.382c2.505-10.177,5.099-20.331,7.617-30.504
		c0.434-1.753,0.896-3.5,0.791-5.501c-3.302-0.979-6.417-0.667-9.485-0.088c-7.08,1.334-14,0.465-20.653-1.897
		c-6.515-2.312-9.812-7.684-9.999-14.249c-0.231-8.128,0.785-16.255,2.707-24.212c0.49-2.029,1.388-3.751,3.534-4.495
		c3.039-1.135,6.204-0.712,9.317-0.728c9.73-0.049,19.461-0.055,29.191,0.006c2.126,0.013,4.311-0.212,6.286,0.89
		c2.551,1.495,2.603,4.054,2.735,6.561c1.144,21.749,8.707,41.135,23.304,57.131c13.084,14.338,30.076,22.322,49.25,25.396
		c13.159,2.11,26.385,3.899,39.752,3.035c16.559-1.07,33.21-1.166,49.272-6.626c6.799-2.311,10.492-5.671,11.394-13.052
		c1.331-10.889,3.566-21.671,5.672-32.452c0.225-1.15,0.449-2.296-0.179-3.498c-1.876-1.096-3.484,0.153-5.056,0.866
		c-16.542,7.501-33.876,11.474-51.977,13.082c-12.733,1.131-24.869-0.814-36.928-4.168c-14.638-4.072-25.294-12.831-31.333-27.057
		c-2.04-4.807-2.593-9.63-1.933-14.647c0.631-4.794,3.093-6.932,7.998-7.325c1.992-0.159,3.997-0.072,5.997-0.072
		c38.324-0.004,76.649,0.007,114.973-0.009c6.852-0.003,6.812-0.043,8.138-6.547c0.432-2.12,0.647-4.292,1.313-6.356
		c6.548-20.289,5.46-40.795,0.998-61.171c-2.946-13.452-11.088-23.946-21.4-32.924c-12.595-10.967-27.778-15.482-43.757-17.807
		c-20.144-2.931-39.387-0.522-58.553,7.446c-29.641,12.323-46.066,35.471-57.041,63.897c-2.817,7.295-5.175,14.759-6.219,22.589
		c-0.341,2.559-0.619,5.391-3.268,6.993c-2.198,0.985-4.527,1.026-6.868,1.028c-9.83,0.009-19.661,0.039-29.491-0.022
		c-2.307-0.014-4.7,0.269-6.786-1.138c-2.202-1.885-2.133-4.359-1.678-6.882c2.42-13.403,4.667-26.838,7.398-40.182
		c1.041-5.087,3.026-6.745,8.224-6.889c7.318-0.204,14.644-0.179,21.961-0.026c4.325,0.091,6.217-1.664,6.885-5.948
		c1.74-11.155,3.595-22.296,5.537-33.42c0.779-4.459,0.019-5.409-4.49-5.496c-6.987-0.134-13.977,0.061-20.964-0.082
		c-6.417-0.131-8.128-2.13-6.918-8.367c0.618-3.186,0.796-6.732,4.075-8.756c2.165-1.146,4.523-1.011,6.846-1.011
		c123.208-0.026,246.416-0.037,369.624,0.01c7.991,0.003,9.614,1.307,10.99,9.098c1.039,5.88,2.18,11.782,1.721,17.812
		c0.219,2.445-0.804,4.566-1.918,6.608c-13.346,24.47-18.489,51.083-20.561,78.502c-0.177,2.346-0.302,4.696-2.557,6.186
		c-1.653,0.976-3.487,0.971-5.307,0.977c-18.037,0.061-36.075,0.061-54.112-0.004c-1.809-0.007-3.66,0.086-5.319-0.864
		c-2.529-1.703-2.437-4.207-1.812-6.706c3.842-15.354,11.3-28.099,26.153-35.251c6.995-3.368,14.589-2.763,22.032-2.586
		c2.922,0.07,5.347,0.13,6.135-3.379c3.857-17.176,11.251-33.035,18.285-49.028c0.268-0.609,0.472-1.248,0.267-2.088
		c-1.243-1.761-3.248-1.179-4.942-1.049c-8.81,0.674-17.482,2.217-25.957,4.734c-4.042,1.2-7.633,3.226-10.613,6.307
		c-5.089,5.263-10.582,10.137-14.967,16.066c-1.713,2.317-3.789,4.697-7.05,3.322c-3.421-1.442-3.283-4.764-2.897-7.775
		c0.698-5.444,1.62-10.859,2.474-16.282c0.923-5.865,0.349-6.44-5.409-6.454c-13.493-0.034-26.987,0.095-40.477-0.074
		c-4.213-0.053-5.809,1.29-6.042,5.679c-1.194,22.501-6.422,44.41-10.301,66.51c-6.384,36.374-13.032,72.703-19.566,109.051
		c-1.682,9.356-4.523,18.416-6.864,27.604c-1.435,5.63-1.03,6.12,4.627,6.133c15.325,0.035,30.65,0.037,45.975,0
		c5.781-0.014,6.473-0.728,7.164-6.471c0.339-2.815-0.468-6.316,3.815-7.029c3.315,0.493,6.649,0.433,9.979,0.435
		c25.644,0.011,51.288-0.039,76.932,0.028c8.34,0.022,10.119,2.256,8.297,10.371c-2.043,9.095-4.826,17.99-7.616,26.874
		c-1.721,5.48-3.654,6.742-9.505,6.915c-2.497,0.074-4.995,0.038-7.493,0.038c-110.069,0.001-220.139,0-330.208,0.003
		c-9.891,0-9.911,0.031-6.804,9.357c0.841,2.526,1.735,5.035,2.36,7.617c0.886,4.306-0.295,9.588,5.486,11.598
		c2.672,0.33,5.342,0.203,8.006,0.203c102.652,0.006,205.303,0.005,307.955,0.006c2.5,0,5-0.037,7.499,0.033
		c6.978,0.196,8.869,2.552,6.777,9.064c-3.209,9.993-6.896,19.802-11.958,29.057c-2.23,4.077-5.314,6.218-10.025,6.048
		c-2.661-0.096-5.331,0.008-7.998,0.008c-91.487,0.001-182.973-0.001-274.46,0.014c-2.302,0-4.651-0.323-7.04,0.521
		c-0.585,2.573,0.959,4.532,1.782,6.59c2.102,5.254,4.681,10.309,6.759,15.575c1.393,3.531,3.747,5.327,7.636,5.092
		c1.99-0.12,3.998-0.004,5.997-0.004c81.321,0.001,162.643,0,243.964,0.002c2.499,0,5.007-0.111,7.496,0.112
		c4.751,0.425,6.435,2.861,5.203,7.482c-0.517,1.94-1.425,3.732-2.462,5.45c-4.903,8.126-9.925,16.188-14.55,24.472
		c-3.096,5.547-7.264,7.814-13.747,7.796c-60.491-0.168-120.982-0.107-181.473-0.102c-7.499,0.001-14.998-0.031-22.497,0.023
		c-1.776,0.013-3.675-0.469-5.274,0.756c-0.509,1.53,0.407,2.642,1.084,3.712c4.01,6.328,7.943,12.704,11.93,19.047
		c1.884,2.998,4.385,4.378,7.883,4.243c1.995-0.077,3.998,0.006,5.998,0.006c52.659,0.003,105.318-0.023,157.977,0.051
		c3.344,0.005,7.64-1.318,9.542,2.484c1.891,3.778-1.631,6.537-3.681,9.167c-7.674,9.842-15.986,19.168-23.746,28.947
		c-2.265,2.855-5.277,4.497-9.081,4.508c-35.328,0.095-70.655,0.099-105.983-0.01c-1.009-0.003-1.98-0.269-2.91-0.429
		c-0.263,2.974,2.629,3.352,4.031,4.931c6.307,6.157,12.545,12.377,18.703,18.673c2.624,2.682,5.488,3.871,9.274,3.838
		c14.292-0.124,28.586-0.098,42.879-0.015c2.745,0.016,6.206-0.68,7.596,2.379c1.474,3.243-1.182,5.719-3.278,7.733
		c-7.781,7.478-16.165,14.304-23.923,21.812c-1.241,1.577-2.645,2.993-4.201,4.26c-22.989,18.722-46.814,36.268-71.73,52.38
		c-29.19,18.876-60.275,34.126-91.707,48.693c-16.177,7.497-33.379,12.435-50.238,18.217
		c-31.959,10.959-64.879,17.656-98.169,22.748c-18.754,2.869-37.655,4.43-56.575,5.883c-9.994,0.768-19.959,0.576-29.937,0.868
		c-29.765,0.871-59.05-3.486-88.449-7.298c-30.18-3.913-59.463-11.576-88.761-19.234c-16.431-4.295-32.287-10.619-48.092-16.793
		c-30.785-12.025-59.415-28.397-88.229-44.471c-26.92-15.017-50.965-33.966-75.612-52.138c-6.563-4.839-11.852-11.185-17.993-16.577
		c-22.689-19.917-43.784-41.592-63.137-64.618c-19.031-22.642-36.086-46.948-51.847-72.167
		c-24.168-38.672-41.96-80.149-57.736-122.705c-7.501-20.233-11.967-41.247-17.358-62.019c-6.071-23.393-8.869-47.43-12.535-71.27
		c-1.305-8.486-0.426-17.274-0.635-25.924c-0.265-10.975-0.989-21.952-0.62-32.941C0.521,620.425,0.494,619.768,0,619.237z"/>
	<path style="fill:#FE7F00;" d="M1009.845,166.225c11.538-11.787,23.48-23.12,36.791-32.929
		c11.284-8.315,22.347-16.948,33.867-24.921c9.343-6.467,19.216-12.168,28.862-18.197c6.347-3.967,12.636-8.033,19.077-11.841
		c10.233-6.051,21.153-10.772,31.781-16.057c4.369-2.172,8.999-3.857,13.24-6.244c12.122-6.824,25.4-10.779,38.246-15.801
		c10.271-4.015,20.449-8.348,30.936-11.705c11.262-3.605,22.841-6.218,34.273-9.298c6.733-1.814,13.486-3.566,20.159-5.582
		c6.614-1.998,13.491-2.225,20.228-3.371c8.362-1.422,16.74-2.924,25.175-3.691c9.468-0.862,18.718-3.06,28.279-3.512
		c13.633-0.644,27.275-1.486,40.895-2.65c10.092-0.862,20.316-0.138,30.48-0.2c12.544-0.076,24.921,1.953,37.379,2.805
		c11.647,0.796,23.092,2.816,34.594,4.37c21.269,2.875,42.467,6.324,63.152,12.409c12.439,3.659,25.323,5.689,37.516,10.331
		c25.482,9.701,51.567,17.795,75.804,30.715c9.154,4.88,18.949,8.762,28.045,13.792c15.791,8.733,31.251,18.08,46.672,27.462
		c15.231,9.267,28.506,21.234,42.855,31.722c11.075,8.095,20.786,17.702,30.936,26.846c8.972,8.082,18.273,15.826,26.464,24.699
		c19.161,20.758,37.971,41.735,55.067,64.377c17.446,23.106,33.129,47.279,47.012,72.456c12.771,23.159,24.813,46.889,33.495,72.094
		c4.91,14.255,11.234,28.046,15.699,42.425c5.959,19.191,11.001,38.683,15.875,58.186c1.89,7.564,2.185,15.52,3.317,23.281
		c1.201,8.229,2.904,16.403,3.696,24.667c0.657,6.859,2.049,13.599,2.413,20.521c0.716,13.636,1.566,27.272,2.695,40.893
		c0.864,10.427,0.156,20.983,0.184,31.481c0.031,11.711-1.917,23.256-2.788,34.88c-0.859,11.469-2.841,22.748-4.325,34.1
		c-2.699,20.647-5.512,41.302-11.885,61.268c-4.337,13.589-6.888,27.705-11.95,41.088c-9.588,25.348-18.436,50.91-30.341,75.427
		c-11.918,24.544-25.743,47.801-40.168,70.846c-10.243,16.364-22.824,30.954-33.877,46.686
		c-7.695,10.952-17.136,20.388-26.093,30.266c-8.11,8.944-15.755,18.358-24.723,26.436c-17.719,15.96-34.431,33.04-53.818,47.16
		c-11.334,8.255-21.847,17.701-33.602,25.356c-14.026,9.133-28.54,17.521-42.933,26.081c-19.372,11.52-40.103,20.384-60.399,30.037
		c-12.544,5.966-26.104,9.766-39.089,14.842c-26.065,10.188-53.32,16.293-80.244,23.5c-7.519,2.013-15.48,2.365-23.234,3.515
		c-7.907,1.172-15.784,2.577-23.717,3.528c-6.497,0.779-12.886,2.651-19.472,2.427c-11.293-0.383-22.573,0.581-33.772,1.304
		c-20.956,1.352-41.893,0.869-62.793,0.416c-10.326-0.224-20.84-1.432-31.179-3.487c-10.399-2.067-21.053-2.845-31.594-4.203
		c-15.51-1.999-30.741-5.347-45.841-9.368c-11.128-2.963-22.4-5.426-33.422-8.734c-8.681-2.604-17.093-6.114-25.595-9.299
		c-9.718-3.64-19.454-7.241-29.091-11.086c-12.738-5.082-24.525-12.164-36.953-17.904c-18.696-8.635-35.456-20.556-53.132-30.924
		c-22.843-13.398-42.957-30.604-64.931-45.186c-1.089-0.723-1.936-1.826-2.846-2.799c-5.663-6.053-11.965-11.416-18.193-16.857
		c5.825-6.852,12.899-12.35,19.649-18.205c3.216-2.789,6.464-5.607,8.085-9.829c-1.79-1.343-3.672-0.764-5.408-0.77
		c-15.483-0.052-30.966-0.102-46.448,0.031c-3.064,0.026-5.307-0.776-7.448-3.036c-6.748-7.122-13.707-14.045-20.585-21.044
		c-0.981-2.732-4.535-3.634-4.862-6.832c34.998-0.049,69.999-0.367,104.991,0.056c7.947,0.096,13.277-1.968,17.962-8.433
		c6.779-9.357,14.502-18.029,21.771-27.034c1.206-1.494,2.149-3.199,3.249-4.86c-2.253-1.403-4.287-0.847-6.201-0.848
		c-56-0.035-112-0.063-168,0.047c-3.865,0.008-6.443-0.875-8.506-4.394c-5.335-9.1-11.044-17.981-17.057-27.681
		c2.598,0,4.519,0,6.439,0c70,0,140-0.029,210,0.073c4.187,0.006,6.816-0.773,9.039-4.914c5.002-9.316,10.871-18.164,16.319-27.243
		c1.443-2.405,2.538-4.992,2.858-8.124c-1.937-1.344-4.147-0.766-6.19-0.766c-85.5-0.03-171-0.061-256.499,0.077
		c-4.262,0.007-6.638-1.074-8.255-5.117c-3.552-8.881-7.532-17.591-11.365-26.434c2.21-0.961,4.214-0.529,6.153-0.529
		c93.333-0.026,186.668-0.232,279.998,0.271c10.401,0.056,16.027-2.613,19.565-12.361c2.757-7.597,5.632-15.197,8.523-22.768
		c0.494-1.294,1.466-2.685,0.831-4.435c-1.847-1.372-4.076-0.695-6.137-0.696c-106.167-0.038-212.333-0.033-318.5-0.039
		c-2.332,0-4.663-0.088-6.995-0.135c-2.997-3.382-2.99-7.993-4.843-11.843c-1.885-6.787-5.05-13.214-6.152-20.161
		c2.444-1.344,4.656-0.83,6.774-0.831c114.161-0.028,228.322-0.024,342.483-0.025c6.537,0,6.641,0.026,8.344-6.27
		c2.545-9.409,5.744-18.637,7.75-28.201c0.347-1.655,0.834-3.174,0.271-4.837c-1.875-1.179-3.928-0.664-5.874-0.667
		c-27.832-0.036-55.664,0.002-83.496-0.084c-1.868-0.006-4.555,1.32-5.362-1.958c-1.957-1.527-2.029-3.727-1.865-5.864
		c0.583-7.563,1.711-15.039,3.947-22.316c0.555-1.805,1.392-3.347,3.272-4.076c2.045-0.882,4.212-0.837,6.37-0.838
		c27.405-0.022,54.809-0.017,82.214-0.005c1.994,0.001,3.988,0.012,5.909,0.617c2.411,0.211,3.688,1.937,5.072,3.657
		c9.313,11.571,19.002,22.768,32.585,29.621c14.551,7.341,29.972,12.207,46.108,14.099c18.556,2.176,37.2,2.09,55.696-1.07
		c4.078-0.697,7.94-2.433,11.86-3.806c1.896-0.664,2.897-2.114,2.922-4.209c0.027-2.334,0.636-4.66,0.639-6.95
		c0.017-13.164,4.689-25.075,9.569-36.953c0.505-1.228,1.09-2.457,0.419-4.085c-2.136-0.993-4.026,0.409-5.942,1.133
		c-16.487,6.229-33.519,10.451-51.141,9.894c-21.64-0.685-39.275-9.859-52.268-27.696c-10.449-14.345-15.596-30.128-14.131-47.786
		c0.981-11.828,4.645-23.142,8.026-34.469c5.162-17.291,14.562-32.105,26.944-45.022c11.333-11.823,25.663-17.875,41.789-18.714
		c14.778-0.769,29.597-0.195,44.235,2.769c6.75,1.367,13.169,3.38,19.32,6.484c6.822,3.443,9.104,2.502,9.293-4.862
		c0.297-11.596,2.851-22.757,4.964-34.037c1.083-5.782,0.066-7.429-5.379-9.485c-12.834-4.844-26.294-6.894-39.745-9.199
		c-11.106-1.903-22.214-2.119-33.342-1.732c-22.652,0.787-43.914,5.992-63.23,18.807c-15.399,10.217-28.565,22.224-38.257,38.015
		c-1.549,2.523-2.665,5.955-6.583,6.119c-0.404-7.768-2.38-15.319-3.172-23.031c-0.21-2.049-1.296-2.941-3.259-2.964
		c-0.999-0.012-1.997-0.028-2.996-0.028c-126.185,0.003-252.37,0.006-378.555,0.01c-1.945-1.471-1.51-3.504-1.188-5.436
		c1.193-7.143,2.716-14.222,4.233-21.301c0.381-1.778,1.033-3.505,2.955-4.286c124.446,0,248.892,0,372.977,0
		c0.905-1.549,0.819-2.501,0.563-3.499c-2.873-11.201-5.921-22.363-8.474-33.637c-0.745-3.292-2.255-4.054-5.11-3.866
		c-1.328,0.087-2.666,0.014-3.999,0.014c-117.328,0-234.656,0.002-351.984-0.018c-2.135,0-4.318,0.368-6.9-0.567
		c0.052-5.381,2.103-10.432,3.414-15.582c1.141-4.482,3.064-8.766,4.187-13.251c0.544-2.172,1.544-2.653,3.42-2.585
		c1.498,0.054,2.999,0.005,4.499,0.005c111.495,0,222.99,0.003,334.484-0.026c2.11-0.001,4.314,0.519,6.914-0.889
		c-2.589-7.735-5.105-15.563-7.846-23.311c-1.433-4.05-3.41-7.906-4.87-11.947c-1.308-3.621-3.422-4.938-7.437-4.926
		c-47.164,0.152-94.329,0.097-141.493,0.097c-55.331,0-110.661,0.004-165.992-0.017c-1.975-0.001-3.994,0.342-6.352-0.556
		c2.131-5.174,4.178-10.347,6.388-15.45c1.975-4.561,4.316-8.972,6.119-13.597c0.779-1.999,1.845-2.481,3.682-2.388
		c1.33,0.067,2.666,0.009,3.999,0.009c92.662,0,185.325,0.003,277.987-0.025c1.928-0.001,3.932,0.464,6.376-0.68
		c-6.603-12.148-11.565-25.016-19.402-36.406c-1.693-2.46-4.074-2.949-6.944-2.938c-23.665,0.086-47.331,0.049-70.997,0.049
		c-55.664,0-111.328,0.006-166.992-0.023c-1.944-0.001-3.966,0.456-6.224-0.671c1.964-4.188,4.268-8.103,6.666-12.004
		c3.638-5.919,7.059-11.974,10.463-18.032c0.927-1.65,2.038-2.46,3.947-2.288c1.322,0.119,2.664,0.018,3.998,0.018
		c65.664,0,131.327,0,196.991,0c1.961,0,3.923,0,6.332,0c-1.803-4.931-4.81-8.455-7.615-12.04
		c-6.315-8.071-11.872-16.718-18.757-24.361c-2.43-2.697-5.041-3.689-8.699-3.679c-46.664,0.123-93.329,0.081-139.993,0.081
		c-1.825,0-3.649,0-6.398,0c5.716-7.678,10.958-14.784,16.274-21.833c2.188-2.902,4.645-5.605,6.775-8.546
		c1.628-2.247,3.865-1.591,5.921-1.594c27.832-0.041,55.664-0.028,83.496-0.028c1.815,0,3.629,0,5.326,0
		c0.559-1.29-0.24-1.788-0.768-2.369c-12.432-13.674-25.653-26.579-38.62-39.733C1014.391,170,1011.351,168.98,1009.845,166.225z"/>
	<path style="fill:#FEFEFE;" d="M337.722,770.001c-19.495,0-38.928,0-58.545,0c2.799-11.659,5.766-23.175,8.276-34.79
		c1.543-7.138,2.302-14.441,3.566-21.643c2.049-11.672,3.833-23.393,5.699-35.089c1.511-9.47,3.003-18.969,4.349-28.478
		c1.615-11.409,3.793-22.738,5.615-34.12c1.208-7.552,2.238-15.133,3.312-22.705c0.937-6.602,2.303-13.127,3.125-19.758
		c0.933-7.525,2.541-14.967,3.855-22.441c-2.715-0.575-3.248,1.561-3.914,3.124c-4.742,11.113-9.392,22.266-14.043,33.418
		c-5.52,13.233-10.992,26.486-16.522,39.715c-5.469,13.083-11.02,26.132-16.468,39.225c-5.445,13.087-10.756,26.23-16.217,39.311
		c-6.209,14.872-12.536,29.694-18.777,44.553c-2.75,6.547-5.414,13.13-8.121,19.708c-17.286,0-34.392,0-51.728,0
		c-0.681-11.16-1.539-22.12-2.39-33.073c-0.889-11.438-1.045-22.943-2.681-34.343c-0.721-5.019-0.758-10.208-0.9-15.262
		c-0.363-12.878-2-25.653-2.382-38.529c-0.287-9.673-1.419-19.343-1.964-29.039c-0.544-9.681-1.413-19.35-2.007-29.04
		c-0.593-9.681-1.416-19.352-2.026-29.039c-0.212-3.359-0.706-6.812-1.054-10.475c-4.721,1.05-3.054,5.403-3.506,7.672
		c-2.72,13.657-5.307,27.343-8.067,41c-3.05,15.096-5.298,30.353-8.274,45.465c-2.443,12.403-4.842,24.809-7.092,37.248
		c-2.133,11.791-4.594,23.521-6.828,35.294c-1.723,9.079-3.45,18.161-4.905,27.284c-0.591,3.707-0.565,7.528-0.871,11.275
		c-0.361,4.416-1.352,8.762-1.384,13.482c-17.791,0-35.554,0-53.735,0c2.637-10.417,5.475-20.741,7.827-31.175
		c2.278-10.105,4.027-20.329,6.059-30.49c3.048-15.245,5.874-30.538,8.737-45.814c2.807-14.976,5.669-29.952,8.324-44.963
		c2.65-14.986,5.913-29.863,8.718-44.823c2.54-13.549,4.375-27.246,7.366-40.69c2.361-10.617,2.301-21.422,4.146-32.412
		c31.195,0,62.6,0,94.243,0c1.074,1.404,0.385,3.293,0.435,5.041c0.754,26.416,0.453,52.865,1.33,79.255
		c0.629,18.942-0.377,37.894,0.896,56.765c0.748,11.087,0.372,22.164,0.94,33.163c3.364,1.451,4.665-0.595,5.662-3.012
		c4.423-10.721,8.762-21.477,13.221-32.183c5.514-13.24,11.149-26.429,16.67-39.666c6.14-14.72,12.214-29.466,18.309-44.205
		c5.356-12.951,10.492-25.999,16.147-38.818c2.411-5.466,3.998-11.3,7.431-16.524c32.21,0,64.677,0,97.376,0
		c-3.158,12.03-6.534,23.787-9.271,35.691c-1.997,8.684-3.145,17.564-4.684,26.354c-1.511,8.627-3.055,17.248-4.555,25.877
		c-1.501,8.636-2.954,17.279-4.446,25.917c-1.85,10.712-3.727,21.419-5.574,32.132c-1.489,8.637-2.935,17.281-4.428,25.917
		c-1.852,10.711-3.737,21.417-5.598,32.126c-1.473,8.474-2.811,16.972-4.425,25.419
		C339.388,742.365,339.271,756.141,337.722,770.001z"/>
	<path style="fill:#FEFEFE;" d="M547.002,768.096c-18.795,0-37.087,0-56.077,0c0.55-5.415,0.967-10.707,1.714-15.953
		c0.161-1.128,0.21-2.262,0.364-3.386c0.198-1.451-0.189-2.794-1.51-3.386c-1.376-0.617-2.456,0.304-3.47,1.283
		c-3.437,3.318-7.012,6.522-10.444,9.805c-5.802,5.552-13.018,7.932-20.105,10.454c-11.604,4.131-23.707,5.765-36.092,5.387
		c-5.771-0.176-11.2-1.526-16.695-3.059c-9.35-2.609-17.122-7.547-23.778-14.545c-6.885-7.24-11.177-15.605-13.522-25.382
		c-2.331-9.719-3.09-19.234-1.457-29.114c2.097-12.685,7.171-24.161,14.441-34.46c6.431-9.11,14.616-16.594,24.623-22.166
		c12.262-6.829,25.558-9.685,39.048-12.435c8.212-1.674,16.47-2.214,24.755-3.067c14.898-1.533,29.808-0.183,44.768-1.004
		c1.977-8.915-0.357-17.193-6.082-23.258c-5.165-5.472-12.006-9.604-20.197-10.665c-9.425-1.221-18.852-1.046-28.268-0.841
		c-18.478,0.403-36.78,2.486-54.77,6.926c-1.681,0.415-2.903,2.036-5.35,1.796c2.998-8.181,5.198-16.343,6.588-24.712
		c0.743-4.474,2.023-8.887,2.414-13.383c0.38-4.363,2.497-6.729,6.495-7.668c6.924-1.626,13.821-3.196,20.891-4.334
		c11.341-1.825,22.771-2.656,34.115-3.367c12.499-0.783,25.13-0.801,37.763,0.418c11.255,1.086,21.48,4.362,31.391,9.408
		c15.435,7.858,24.612,20.568,29.476,36.9c1.967,6.603,0.65,13.009-0.297,19.435c-1.373,9.308-3.139,18.557-4.732,27.832
		c-1.456,8.477-2.9,16.956-4.359,25.432c-1.541,8.956-3.117,17.906-4.635,26.866c-1.98,11.684-3.894,23.378-5.888,35.06
		c-0.524,3.068-0.577,6.236-0.813,9.268c-0.678,8.714-2,17.452-1.27,26.243C546.126,765.525,546.594,766.593,547.002,768.096z"/>
	<path style="fill:#FEFEFE;" d="M854.835,650.225c0.876-10.916,4.321-21.153,7.888-31.421c4.028-11.596,9.921-22.177,17.415-31.693
		c9.432-11.976,19.745-22.8,34.765-28.649c10.678-4.159,21.071-9.033,32.423-10.776c6.185-0.95,12.608-0.443,18.924-0.43
		c16.674,0.033,32.543,4.004,47.308,11.445c5.959,3.003,10.92,7.961,15.918,12.751c4.752,4.554,7.995,9.779,11.527,14.993
		c4.079,6.021,5.944,12.913,6.9,19.981c1.053,7.79,2.057,15.565,2.289,23.497c0.33,11.313-1.403,22.181-4.519,32.888
		c-1.358,4.666-1.12,9.637-3.168,14.427c-1.765,0-3.578,0-5.391,0c-41.16,0-82.32-0.002-123.48,0.002
		c-5.484,0.001-6.564,1.058-6.626,6.604c-0.149,13.255,6.056,22.808,16.457,30.716c10.941,8.319,23.6,9.708,36.407,11.844
		c10.332,1.723,20.469,0.124,30.253-1.572c11.276-1.954,22.819-4.433,33.247-9.771c3.922-2.008,8.024-3.32,12.626-5.065
		c-1.139,6.897-2.165,13.393-3.293,19.872c-1.528,8.783-3.13,17.554-4.709,26.328c-0.485,2.697-1.102,4.94-4.276,6.188
		c-7.991,3.141-15.995,5.686-24.584,7.023c-16.053,2.499-32.203,3.682-48.285,2.604c-18.066-1.211-36.181-3.081-52.706-12.046
		c-13.964-7.576-25.211-17.626-33.161-31.463c-6.111-10.636-9.814-21.988-12.11-33.987c-0.98-5.122-0.482-10.198-1.037-15.266
		c-1.325-1.39-1.928-3.051-1.853-4.962c0.264-6.763,0.982-13.479,2.082-20.157C852.356,652.359,853.387,651.155,854.835,650.225z"/>
	<path style="fill:#FEFEFE;" d="M1219.147,562.261c7.761-11.333,14.74-23.316,25.557-32.191
		c16.338-13.406,33.544-24.581,54.945-29.228c16.423-3.566,32.752-4.157,49.139-3.307c10.286,0.534,20.694,2.226,30.843,4.868
		c7.185,1.87,14.496,3.162,21.49,5.831c6.68,2.549,8.395,5.166,6.725,12.278c-2.542,10.831-5.285,21.621-4.847,32.887
		c0.006,0.166,0.01,0.334-0.004,0.5c-0.798,9.656-3.438,11.296-11.906,6.849c-11.074-5.816-22.954-7.612-35.244-8.689
		c-9.623-0.843-19.202-0.525-28.796-0.84c-5.371-0.177-10.187,1.62-15.115,3.466c-7.159,2.682-14.127,5.424-20.123,10.467
		c-3.352,2.819-5.736,6.329-8.621,9.462c-6.665,7.236-12.405,15.143-16.37,24.219c-6.002,13.74-10.097,28.058-12.826,42.779
		c-2.718,14.663-0.812,28.773,6.154,41.909c4.939,9.315,10.763,18.484,19.502,24.481c8.231,5.649,17.295,10.479,27.453,12.199
		c8.97,1.519,17.777,0.5,26.848-0.507c14.022-1.556,26.957-5.822,39.819-10.893c1.471-0.58,2.069-0.181,2.949,0.643
		c1.227,1.149,1.446,2.214,0.77,3.933c-2.19,5.571-5.017,10.883-6.51,16.746c-1.64,6.444-4.516,12.534-4.087,19.509
		c0.301,4.897-1.603,9.764-0.724,15.034c-11.948,4.452-23.923,7.605-36.592,7.573c-7.164-0.018-14.328-0.051-21.491,0.006
		c-18.091,0.143-35.087-4.769-51.861-10.927c-9.299-3.414-18.171-8.114-24.993-14.865c-7.247-7.173-15.442-13.886-20.214-23.342
		c-1.185-0.907-2.334-1.81-3.018-3.225c-5.718-11.828-10.716-23.888-12.249-37.104c-2.811-9.061-1.666-18.364-1.725-27.591
		c-0.01-1.585,0.804-2.829,1.81-3.968c0.32-18.682,3.459-37.027,8.426-54.903C1207.568,584.421,1212.928,573.069,1219.147,562.261z"
		/>
	<path style="fill:#FEFEFE;" d="M570,719.462c11.996,2.918,23.58,5.269,35.682,6.128c13.364,0.948,26.704,2.075,40.054,1.498
		c10.198-0.44,18.779-4.372,22.911-14.955c3.338-8.55,2.56-12.941-3.78-19.611c-4.381-4.609-9.392-7.54-15.454-9.753
		c-13.014-4.75-25.85-10.369-37.52-17.783c-10.111-6.424-19.215-14.612-22.031-27.318c-1.606-7.245-3.635-14.322-2.068-22.066
		c1.085-5.358,0.33-10.96,2.023-16.482c2.945-9.607,7.662-17.994,13.635-26.015c7.345-9.863,17.899-14.897,28.355-19.922
		c5.421-2.605,11.612-4.153,17.893-3.928c8.121,0.292,16.122-1.464,24.273-1.096c10.082,0.455,20.175,0.901,30.257,1.292
		c12.159,0.471,24.284,2.094,36.843,1.742c-4.021,15.529-9.832,30.159-11.125,45.674c-3.097-0.595-5.769-1.411-8.483-1.58
		c-16.993-1.059-33.956-2.376-51.031-2.252c-9.123,0.066-18.467,7.498-20.139,15.904c-1.226,6.165,2.969,10.977,6.542,15.64
		c5.493,7.168,14.039,9.15,21.653,12.59c13.013,5.879,26.178,11.628,36.475,21.76c7.259,7.142,11.786,16.058,13.102,26.52
		c2.856,22.696-1.77,43.611-14.091,62.842c-1.329,2.075-3.156,3.613-5.249,5.05c-11.003,7.552-23.226,11.509-36.252,14.034
		c-20.956,4.06-42.074,5.547-63.296,4.71c-13.332-0.526-26.648-2.179-39.75-5.066c-3.813-0.84-3.171-2.664-2.652-5.911
		c1.916-11.978,4.148-23.985,3.242-36.24C569.886,723.074,570,721.263,570,719.462z"/>
	<path style="fill:#FEFEFE;" d="M837.165,505.226c-2,10.341-4,20.682-6,31.023c-1.036,4.527-2.071,9.055-3.224,14.092
		c11.844,0,23.401,0,35.067,0c-2.782,16.55-5.484,32.622-8.219,48.896c-10.623,0-20.913,0.112-31.198-0.067
		c-3.195-0.056-4.199,1.289-4.633,4.165c-1.594,10.551-3.802,21-5.602,31.508c-0.868,5.067-2.836,10.073-2.191,15.381
		c0.487,1.049,0.984,2.124,0.824,3.304c-1.082,7.966-2.358,15.898-4.487,23.665c-0.218,0.797-0.938,1.33-1.531,1.899
		c-2.202,3.557-2.286,7.812-2.478,11.596c-0.335,6.605-3.195,13.25-0.485,19.906c1.838,4.515,4.441,7.398,9.817,8.95
		c9.773,2.822,19.058,0.983,28.551-0.275c0.782-0.104,1.605,0.102,2.673,0.184c-3.673,14.279-7.261,28.305-10.897,42.319
		c-1.67,6.436-3.343,7.474-10.347,8.514c-13.789,2.047-27.677,2.657-41.508,1.775c-11.027-0.703-21.652-4.27-30.601-10.899
		c-6.268-4.643-7.851-12.527-9.584-19.722c-1.938-8.046-1.095-16.228-0.324-24.478c1.003-10.742,3.246-21.208,5.25-31.736
		c3.148-16.536,6.436-33.05,9.613-49.577c2.477-12.884,5.048-25.76,7.406-38.673c2.995-16.4,6.721-32.669,9.527-49.098
		c1.695-9.927,4.041-19.745,4.629-29.913c0.333-5.753,0.39-11.718,2.272-17.545c19.382,0,38.826,0,58.141,0
		C838.862,502.273,836.501,503.559,837.165,505.226z"/>
	<path style="fill:#FEFEFE;" d="M1114.982,723.112c-2.021,5.28-2.928,10.849-3.899,16.362c-0.854,4.846-1.436,9.78-1.205,14.746
		c-1.882,4.708-0.007,10.006-2.687,14.833c-20.387,0-41.159,0-62.094,0c2.759-10.946,5.716-21.655,8.113-32.487
		c2.239-10.117,4.146-20.325,5.705-30.569c1.271-8.351,3.125-16.586,4.268-24.971c1.442-10.577,3.721-21.048,5.846-31.522
		c2.835-13.971,5.357-28.022,7.65-42.064c2.383-14.589,6.388-28.96,6.554-43.958c0.046-4.129,0.495-8.468,0.889-12.962
		c18.885,0,37.623,0,56.949,0c-0.857,5.607-1.722,11.13-2.539,16.661c-0.547,3.704-1.047,7.415-1.523,11.129
		c-0.198,1.546-0.062,3.184,1.581,3.805c1.949,0.737,3.237-0.771,4.047-2.154c3.126-5.337,7.794-9.29,11.856-13.8
		c5.858-6.506,12.581-10.809,21.441-12.586c9.834-1.972,19.58-3.576,30.153-3.276c-1.849,4.374-3.337,8.552-5.324,12.477
		c-6.874,13.581-11.831,27.852-15.721,42.523c-1.323,4.991-2.946,5.794-8.289,4.897c-14.399-2.416-26.444,2.223-35.429,13.517
		c-6.294,7.911-10.149,17.191-11.34,27.395c0.881,2.045,1.044,4.147,0.541,6.316c-2.017,8.697-3.37,17.544-5.9,26.125
		c-1.749,11.924-4.719,23.6-7.192,35.377C1117.091,720.56,1116.371,722.051,1114.982,723.112z"/>
	<path style="fill:#FE7F00;" d="M1123.165,683.249c1.905-10.793,4.247-21.493,6.82-32.144c21.95,0.04,43.9,0.08,65.85,0.12
		c0.055,6.828,0.094,13.656,0.171,20.484c0.044,3.932,0.964,7.734,1.829,11.54c-1.524,1.931-3.68,2.064-5.881,2.071
		c-20.969,0.069-41.939,0.069-62.908,0C1126.844,685.313,1124.688,685.181,1123.165,683.249z"/>
	<path style="fill:#FE7F00;" d="M805.971,679.094c0.206-7.464,2.252-14.636,3.667-21.894c0.451-2.311-0.55-5.017,1.526-6.974
		c14.557,0,29.114,0,43.671,0c-1.467,3.33-1.123,6.991-1.671,10.466c-0.963,6.104-0.939,12.363-1.328,18.558
		C836.547,679.197,821.259,679.145,805.971,679.094z"/>
	<path style="fill:#FEFEFE;" d="M1924.956,769.035c-20.407,0-40.338,0-60.559,0c-1.415-4.429,1.568-8.7,0.595-13.052
		c-0.859-3.843,3.285-8.141-0.567-11.784c-2.588,0.636-2.794,2.81-3.903,4.149c-8.085,9.762-19.536,13.679-30.793,17.774
		c-7.478,2.72-15.378,4.397-23.279,4.978c-11.456,0.842-22.299-2.771-32.7-7.056c-7.812-3.218-15.426-7.171-21.626-13.195
		c-10.828-10.52-17.176-23.562-21.086-37.93c-4.111-15.109-4.973-30.583-3.875-46.061c0.665-9.371,3.107-18.601,4.687-27.894
		c2.622-15.414,8.619-29.393,17.16-42.129c8.024-11.964,16.799-23.817,29.444-31.301c13.284-7.863,27.096-14.678,43.209-15.541
		c6.261-0.336,12.534-0.736,18.794-0.698c13.896,0.083,25.582,6.151,36.919,13.587c5.236,3.435,8.361,8.54,12.631,12.697
		c3.174,3.09,5.879,2.895,6.862-1.426c1.692-7.442,2.845-15.009,4.121-22.541c2.72-16.06,5.356-32.135,8.089-48.193
		c0.235-1.383,0.934-2.686,1.418-4.026c20.815,0,41.442,0,62.466,0c-3.189,12.087-6.63,23.861-9.345,35.801
		c-2.307,10.147-3.792,20.482-5.612,30.739c-1.848,10.417-3.668,20.839-5.488,31.261c-1.848,10.585-3.675,21.174-5.523,31.758
		c-1.737,9.944-3.477,19.887-5.241,29.827c-1.905,10.734-3.826,21.465-5.76,32.194c-1.819,10.088-3.851,20.142-5.447,30.265
		c-1.702,10.799-4.482,21.405-4.75,32.48C1925.678,758.593,1925.067,763.551,1924.956,769.035z"/>
	<path style="fill:#FEFEFE;" d="M1421.718,604.355c2.729-11.214,5.29-21.72,7.842-32.227c0.498-2.05,0.98-4.105,1.443-6.163
		c1.724-7.658,3.627-9.459,11.481-10.699c6.096-0.962,12.127-2.267,18.239-3.193c6.611-1.002,13.313-2.294,19.868-2.574
		c14.902-0.637,29.845-2.332,44.757-1.151c12.09,0.957,23.625,4.359,34.094,10.807c1.933,1.191,4.138,1.966,5.99,3.259
		c13.529,9.438,22.65,22.223,25.276,38.429c1.674,10.33,0.208,20.984-2.112,31.409c-2.297,10.319-3.776,20.821-5.595,31.246
		c-1.931,11.068-4.153,22.096-5.66,33.222c-1.271,9.382-2.673,18.798-4.634,27.982c-2.212,10.359-1.794,20.862-3.665,31.161
		c-0.718,3.951,0.829,7.815,1.014,12.066c-17.959,0-35.701,0-53.906,0c0-6.076,0-12.161,0-18.069
		c-2.618-1.249-4.041-0.227-5.594,1.276c-3.436,3.324-6.682,7.095-10.714,9.49c-5.262,3.125-11.081,5.466-16.889,7.488
		c-13.011,4.529-26.54,5.775-40.236,5.096c-13.776-0.683-26.625-5.06-36.404-14.57c-10.584-10.292-16.756-23.117-17.657-38.673
		c-0.534-9.215,0.897-17.887,2.552-26.596c1.688-8.885,6.685-16.515,11.97-23.786c12.289-16.906,29.635-25.617,49.422-30.345
		c9.405-2.247,18.922-3.37,28.568-4.243c8.469-0.767,16.917-0.018,25.293-0.875c6.913-0.707,13.719-1.422,20.582,0.104
		c2.722,0.605,4.121-0.668,5.049-3.245c3.375-9.379-0.006-17.385-4.939-25.027c-4.36-6.754-11.415-8.587-18.78-9.722
		c-11.386-1.755-22.888-1.405-34.26-0.756c-7.926,0.452-15.942,1.435-23.835,2.785
		C1441.001,599.846,1431.782,601.737,1421.718,604.355z"/>
	<path style="fill:#FEFEFE;" d="M1652.299,769.081c-20.945,0-41.905,0-63.228,0c2.798-11.014,5.802-21.738,8.2-32.596
		c2.244-10.162,3.849-20.464,5.73-30.706c1.706-9.286,3.37-18.581,5.119-27.859c2.258-11.985,4.589-23.957,6.875-35.938
		c2.255-11.82,4.851-23.609,6.657-35.472c2.161-14.187,6.527-28.027,6.54-42.603c0.004-4.306,0.865-8.762,0.8-13.416
		c18.824,0,37.231,0,55.93,0c-0.762,10.673-4.067,20.877-3.877,31.897c3.902-1.088,5.772-3.701,8.011-6.093
		c9.436-10.086,19.697-18.636,33.695-22.351c8.346-2.215,16.531-3.757,25.087-3.699c0.959,0.007,1.917,0.126,3.343,0.227
		c-4.315,9.119-8.136,18.087-12.734,26.637c-3.894,7.24-4.956,15.087-6.337,22.89c-0.451,2.547-1.447,5.021-1.22,7.764
		c0.181,2.179-1.678,2.505-3.505,2.483c-3.332-0.039-6.667,0.069-9.997-0.022c-17.171-0.465-28.449,8.357-36.688,22.597
		c-5.774,9.98-7.564,20.999-9.713,32c-3.399,17.395-6.947,34.761-10.32,52.162c-2.232,11.515-5.04,22.895-5.901,34.706
		C1654.354,757.316,1654.805,763.21,1652.299,769.081z"/>
	<path style="fill:#FE0000;" d="M1123.165,683.249c24.89,0,49.781,0,74.671,0c0.946,10.188,4.813,19.521,8.618,28.844
		c1.501,3.678,3.783,7.035,4.564,11.018c-32.012,0-64.024,0-96.036,0c1.01-9.355,3.636-18.395,5.387-27.607
		C1121.151,691.392,1122.224,687.333,1123.165,683.249z"/>
	<path style="fill:#FEFEFE;" d="M2008,749.871c1.297,11.512-12.465,26.267-26.049,25.564c-13.414-0.693-25.36-12.191-25.074-25.959
		c0.305-14.655,12.765-25.597,25.599-25.965C1994.448,723.168,2008.683,736.023,2008,749.871z"/>
	<path style="fill:#FE0000;" d="M500.754,668.345c1.732,16.327-4.429,29.868-13.028,42.653
		c-4.542,6.753-11.218,11.228-18.623,13.332c-9.45,2.685-19.331,4.621-29.297,1.281c-11.006-3.689-18.264-17.058-15.454-28.294
		c3.312-13.244,12.353-20.576,24.563-25.082c9.442-3.485,19.209-4.316,29.136-5.258
		C485.862,666.235,493.143,667.945,500.754,668.345z"/>
	<path style="fill:#FE0000;" d="M955.385,634.237c-10.308,0-20.617,0.011-30.925-0.004c-7.435-0.011-8.893-2.309-7.7-9.605
		c1.637-10.011,7.743-16.482,14.959-22.956c8.182-7.34,17.431-9.615,27.808-9.424c13.134,0.241,27.029,9.801,30.938,22.181
		c1.422,4.503,3.401,9.171,2.599,14.294c-0.552,3.527-1.56,5.671-5.758,5.586C976.67,634.094,966.026,634.237,955.385,634.237z"/>
	<path style="fill:#FE8000;" d="M1787.01,672.442c-0.962-18.291,5.059-34.769,14.133-50.081
		c6.038-10.188,15.182-17.762,26.29-22.061c6.225-2.409,13.24-2.928,19.889-1.691c3.007,0.559,6.096,0.363,9.118,1.53
		c12.752,4.924,20.721,13.274,22.703,27.357c1.682,11.948,0.419,23.479-1.66,35.199c-0.792,4.461-2.123,8.846-2.504,13.392
		c-0.206,2.463-1.267,4.696-2.326,6.874c-2.069,4.255-4.417,8.379-6.396,12.674c-6.23,13.517-17.583,21.591-31.104,25.004
		c-8.5,2.146-18.346,2.316-27.061-2.356c-8.455-4.533-13.888-11.225-17.346-20.28
		C1787.541,689.608,1786.911,681.154,1787.01,672.442z"/>
	<path style="fill:#FE8000;" d="M1508.192,672.237c3.332,0,6.665-0.028,9.996,0.007c4.867,0.051,6.944,2.333,5.723,6.824
		c-2.63,9.677-4.931,19.534-9.986,28.315c-8.176,14.205-20.306,22.29-36.997,22.857c-4.625,0.157-9.344,0.336-13.67-1.395
		c-15.674-6.27-20.278-13.228-15.99-30.948c2.467-10.194,9.902-15.846,19.44-19.917c6.741-2.877,13.509-2.963,20.396-3.997
		C1494.146,672.927,1501.086,671.966,1508.192,672.237z"/>
	<path style="fill:#FE7F00;" d="M1981.796,772.237c-12.828,1.491-22.553-10.856-22.564-21.315
		c-0.015-13.662,9.023-24.414,22.315-24.505c14.056-0.096,22.852,10.534,23.307,23.168
		C2005.258,760.795,1995.543,773.984,1981.796,772.237z"/>
	<path style="fill:#FEFEFE;" d="M1974.023,752.662c0,4.122,0,7.931,0,11.953c-2.444,0.979-4.083,1.279-4.052-2.249
		c0.088-9.804,0.031-19.61,0.031-30.187c7.437,0.651,14.881-1.684,21.73,2.341c5.445,3.2,5.841,10.443,1.044,14.496
		c-1.125,0.95-2.028,2.175-3.393,2.59c2.485,4.388,4.958,8.754,7.447,13.148c-2.647,1.292-4.24-0.036-5.564-1.896
		c-0.843-1.183-1.498-2.498-2.288-3.721C1984.098,751.595,1984.026,751.568,1974.023,752.662z"/>
	<path style="fill:#FE7F00;" d="M1974.203,748.234c0-4.425,0-8.343,0-12.603c4.818-0.716,9.449-0.578,14.223,1.218
		c3.208,1.207,3.666,3.641,3.392,5.928c-0.318,2.658-1.524,5.469-5.172,5.459C1982.683,748.226,1978.721,748.234,1974.203,748.234z"
		/>
</g>
</svg>
