<?xml version="1.0" encoding="iso-8859-1"?>
<!-- Generator: Adobe Illustrator 21.1.0, SVG Export Plug-In . SVG Version: 6.00 Build 0)  -->
<svg version="1.1" id="Layer_1" xmlns="http://www.w3.org/2000/svg" xmlns:xlink="http://www.w3.org/1999/xlink" x="0px" y="0px"
	 viewBox="0 0 647 183" style="enable-background:new 0 0 647 183;" xml:space="preserve">
<g>
	<g>
		<path style="fill:#4DB35E;" d="M232.8,184c-19.2,0-38.4,0-57.6,0c0-35.045,0.014-70.09-0.051-105.135
			c-0.002-1.28,1.106-3.362-1.687-3.627c-2.232-0.212-3.573,0.44-3.923,2.774c-0.117,0.78-0.463,1.525-0.699,2.287
			c-10.68,34.567-21.36,69.134-32.04,103.7c-13.333,0-26.667,0-40,0c-10.872-35.167-21.773-70.324-32.551-105.52
			c-0.749-2.446-1.661-3.754-4.315-3.268c-2.87,0.525-1.461,2.785-1.464,4.153C58.38,114.243,58.4,149.122,58.4,184
			c-18.376,0-36.752-0.023-55.127,0.037c-1.814,0.006-2.539-0.172-2.536-2.358C0.816,122.158,0.816,62.636,0.736,3.115
			C0.733,0.913,1.48,0.76,3.279,0.765C23.253,0.821,43.226,0.8,63.2,0.8c0.288,0.236,0.546,0.624,0.868,0.687
			c14.76,2.912,23.353,11.831,27.265,26.327c7.073,26.212,14.734,52.265,22.124,78.392c0.51,1.802,0.616,3.493,3.348,3.493
			c2.738-0.001,2.832-1.71,3.34-3.503c7.655-27.021,15.357-54.029,22.998-81.055c3.379-11.95,11.204-19.326,22.964-22.823
			c1.202-0.357,2.707-0.159,3.494-1.519c21.067,0,42.133,0,63.2,0C232.8,61.867,232.8,122.933,232.8,184z"/>
		<path style="fill:#4DB35E;" d="M382.4,0.8c19.2,0,38.4,0,57.6,0c0,61.067,0,122.133,0,183.2c-19.2,0-38.4,0-57.6,0
			c0-35.009,0.003-70.018-0.002-105.027c0-3.493-1.68-4.911-4.299-3.633c-1.34,0.654-1.496,2.133-2.02,3.303
			c-12.592,28.145-25.195,56.287-37.698,84.472c-4.603,10.376-11.966,17.408-23.136,20.177c-0.321,0.08-0.566,0.465-0.846,0.708
			c-18.933,0-37.867,0-56.8,0c0-61.067,0-122.133,0-183.2c19.2,0,38.4,0,57.6,0c0,35.027-0.003,70.054,0.002,105.081
			c0,3.427,1.791,4.9,4.351,3.562c1.289-0.674,1.487-2.149,2.023-3.323c11.985-26.249,24.21-52.394,35.778-78.826
			c5.231-11.953,11.75-22.018,24.883-26.14C382.32,1.128,382.347,0.922,382.4,0.8z"/>
		<path style="fill:#4DB35E;" d="M465.6,184c0-31.998,0.033-63.996-0.056-95.994c-0.008-2.907,0.422-4.097,3.803-4.09
			c57.197,0.118,114.393,0.084,171.59,0.09c0.924,0,1.848,0.08,3.199,0.142c-1.983,6.5-5.21,12.103-9.256,17.2
			c-12.337,15.54-28.491,23.835-48.336,24.16c-19.727,0.323-39.464,0.161-59.195,0.015c-3.223-0.024-4.273,0.634-4.237,4.081
			c0.188,18.13,0.088,36.264,0.088,54.396C504,184,484.8,184,465.6,184z"/>
		<path style="fill:#01B3E5;" d="M525.567,72.919c-15.621-3.39-28.976-11.086-40.514-21.91c-14.6-13.695-23.804-30.465-27.453-50.21
			c22.667,0,45.333,0,68,0C525.589,24.84,525.578,48.88,525.567,72.919z"/>
		<path style="fill:#03A5DC;" d="M575.201,75.866c-8.8,0-17.6,0.001-26.399,0.001c0-25.022-0.001-50.045-0.002-75.067
			c8.8,0,17.6,0,26.4,0C575.2,25.822,575.201,50.844,575.201,75.866z"/>
		<path style="fill:#059DD6;" d="M575.201,75.866c0-25.022,0-50.044-0.001-75.066c6.133,0,12.267,0,18.4,0
			c2.421,1.621,5.566,0.776,8,2.354c0,24.238,0.001,48.476,0.001,72.714C592.801,75.867,584.001,75.866,575.201,75.866z"/>
		<path style="fill:#02ADE1;" d="M548.8,0.8c0.001,25.022,0.001,50.045,0.002,75.067c-7.9,0.239-15.661-0.613-23.234-2.948
			c0.011-24.04,0.022-48.08,0.033-72.119C533.333,0.8,541.067,0.8,548.8,0.8z"/>
		<path style="fill:#0890CD;" d="M648,72c-0.698,3.683-3.105,4.252-6.464,4.075c-5.832-0.307-11.688-0.163-17.535-0.208
			c0.009-20.519,0.017-41.038,0.026-61.557c11.845,8.847,18.868,20.769,22.417,34.951c0.496,1.981,0.238,4.173,1.556,5.938
			C648,60.8,648,66.4,648,72z"/>
		<path style="fill:#0696D1;" d="M601.6,3.154c8.219,2.225,15.96,5.41,22.427,11.157c-0.009,20.519-0.017,41.038-0.026,61.557
			c-7.467,0-14.933,0-22.4,0C601.6,51.629,601.6,27.391,601.6,3.154z"/>
	</g>
</g>
</svg>
