<?xml version="1.0" encoding="iso-8859-1"?>
<!-- Generator: Adobe Illustrator 21.1.0, SVG Export Plug-In . SVG Version: 6.00 Build 0)  -->
<svg version="1.1" id="&#x421;&#x43B;&#x43E;&#x439;_1"
	 xmlns="http://www.w3.org/2000/svg" xmlns:xlink="http://www.w3.org/1999/xlink" x="0px" y="0px" viewBox="0 0 281.159 419.757"
	 style="enable-background:new 0 0 281.159 419.757;" xml:space="preserve">
<g style="display:none;">
	<linearGradient id="SVGID_1_" gradientUnits="userSpaceOnUse" x1="-40.5211" y1="153.2858" x2="321.7485" y2="322.2149">
		<stop  offset="0" style="stop-color:#F9DC76"/>
		<stop  offset="0.0714" style="stop-color:#FEF5A2"/>
		<stop  offset="0.0874" style="stop-color:#FEF193"/>
		<stop  offset="0.1189" style="stop-color:#FEE86D"/>
		<stop  offset="0.1484" style="stop-color:#FEE037"/>
		<stop  offset="0.2473" style="stop-color:#EEBF1C"/>
		<stop  offset="0.3187" style="stop-color:#EBAE20"/>
		<stop  offset="0.478" style="stop-color:#ECB63D"/>
		<stop  offset="0.6154" style="stop-color:#FEED9C"/>
		<stop  offset="0.6593" style="stop-color:#FFF4C7"/>
		<stop  offset="0.7143" style="stop-color:#FEF5A2"/>
		<stop  offset="0.8791" style="stop-color:#ECAF20"/>
	</linearGradient>
	<path style="display:inline;fill:url(#SVGID_1_);" d="M267.662,55.743H13.565c-7.454,0-13.497,6.043-13.497,13.497v337.021
		c0,7.454,6.043,13.497,13.497,13.497h254.097c7.454,0,13.497-6.042,13.497-13.497V69.24
		C281.159,61.786,275.116,55.743,267.662,55.743z M258.392,388.881c0,2.751-2.23,4.981-4.981,4.981H27.498
		c-2.751,0-4.981-2.23-4.981-4.981V86.59c0-2.751,2.23-4.981,4.981-4.981h225.913c2.751,0,4.981,2.23,4.981,4.981V388.881z"/>
	<g id="Crown_6_" style="display:inline;">
		<linearGradient id="SVGID_2_" gradientUnits="userSpaceOnUse" x1="81.6417" y1="54.7143" x2="201.0418" y2="54.7143">
			<stop  offset="0" style="stop-color:#FFF9D3"/>
			<stop  offset="0.0431" style="stop-color:#FCF1C3"/>
			<stop  offset="0.1284" style="stop-color:#F4E39D"/>
			<stop  offset="0.1648" style="stop-color:#F1DC8D"/>
			<stop  offset="0.6319" style="stop-color:#EAA821"/>
			<stop  offset="0.9341" style="stop-color:#C57D2A"/>
		</linearGradient>
		<polygon style="fill:url(#SVGID_2_);" points="164.123,59.829 141.339,19.106 118.556,59.829 81.642,39.848 103.926,90.317 
			178.751,90.322 201.042,39.848 		"/>
		<linearGradient id="SVGID_3_" gradientUnits="userSpaceOnUse" x1="198.5597" y1="36.0761" x2="212.3493" y2="36.0761">
			<stop  offset="0" style="stop-color:#FFF9D3"/>
			<stop  offset="0.0431" style="stop-color:#FCF1C3"/>
			<stop  offset="0.1284" style="stop-color:#F4E39D"/>
			<stop  offset="0.1648" style="stop-color:#F1DC8D"/>
			<stop  offset="0.6319" style="stop-color:#EAA821"/>
			<stop  offset="0.9341" style="stop-color:#C57D2A"/>
		</linearGradient>
		<path style="fill:url(#SVGID_3_);" d="M198.56,35.066c-0.001,1.839,0.715,3.568,2.017,4.87c1.302,1.302,3.032,2.018,4.873,2.018
			l0,2.026l0.007-2.026c3.802,0,6.893-3.091,6.893-6.89c0.002-1.843-0.712-3.573-2.01-4.875c-1.297-1.301-3.023-2.017-4.859-2.017
			C201.645,28.172,198.56,31.265,198.56,35.066z"/>
		<linearGradient id="SVGID_4_" gradientUnits="userSpaceOnUse" x1="70.3288" y1="36.1141" x2="84.1186" y2="36.1141">
			<stop  offset="0" style="stop-color:#FFF9D3"/>
			<stop  offset="0.0431" style="stop-color:#FCF1C3"/>
			<stop  offset="0.1284" style="stop-color:#F4E39D"/>
			<stop  offset="0.1648" style="stop-color:#F1DC8D"/>
			<stop  offset="0.6319" style="stop-color:#EAA821"/>
			<stop  offset="0.9341" style="stop-color:#C57D2A"/>
		</linearGradient>
		<path style="fill:url(#SVGID_4_);" d="M77.212,44.06l0.011-2.106c3.804,0,6.895-3.091,6.895-6.89
			c0.004-1.844-0.709-3.573-2.008-4.875c-1.3-1.303-3.031-2.021-4.872-2.021c-3.816,0-6.91,3.094-6.91,6.898
			c0,1.839,0.716,3.568,2.016,4.87c1.3,1.301,3.029,2.018,4.867,2.018V44.06L77.212,44.06z"/>
		<linearGradient id="SVGID_5_" gradientUnits="userSpaceOnUse" x1="133.1355" y1="8.2623" x2="149.5356" y2="8.2623">
			<stop  offset="0" style="stop-color:#FFF9D3"/>
			<stop  offset="0.0431" style="stop-color:#FCF1C3"/>
			<stop  offset="0.1284" style="stop-color:#F4E39D"/>
			<stop  offset="0.1648" style="stop-color:#F1DC8D"/>
			<stop  offset="0.6319" style="stop-color:#EAA821"/>
			<stop  offset="0.9341" style="stop-color:#C57D2A"/>
		</linearGradient>
		<path style="fill:url(#SVGID_5_);" d="M141.338,0.06c-2.19,0-4.249,0.854-5.797,2.403c-1.551,1.549-2.405,3.607-2.405,5.798
			s0.852,4.25,2.4,5.798c1.551,1.55,3.611,2.404,5.802,2.404c2.19,0,4.249-0.854,5.797-2.403c1.548-1.549,2.4-3.608,2.4-5.799
			c-0.001-2.191-0.854-4.25-2.402-5.797C145.585,0.914,143.528,0.06,141.338,0.06z"/>
	</g>
	<linearGradient id="Divider_line_1_" gradientUnits="userSpaceOnUse" x1="40.5078" y1="313.3312" x2="240.719" y2="313.3312">
		<stop  offset="0" style="stop-color:#FFFFFF"/>
		<stop  offset="0.0714" style="stop-color:#FFF156"/>
		<stop  offset="0.0755" style="stop-color:#FFF16A"/>
		<stop  offset="0.0837" style="stop-color:#FFF391"/>
		<stop  offset="0.0951" style="stop-color:#FFF7C8"/>
		<stop  offset="0.0989" style="stop-color:#FFF9DB"/>
		<stop  offset="0.1374" style="stop-color:#FEE794"/>
		<stop  offset="0.1868" style="stop-color:#EEBF1C"/>
		<stop  offset="0.3187" style="stop-color:#EBAE20"/>
		<stop  offset="0.478" style="stop-color:#ECB63D"/>
		<stop  offset="0.6154" style="stop-color:#FEED9C"/>
		<stop  offset="0.6593" style="stop-color:#FFF4C7"/>
		<stop  offset="0.7143" style="stop-color:#FEF5A2"/>
		<stop  offset="0.8791" style="stop-color:#ECAF20"/>
		<stop  offset="0.9244" style="stop-color:#F2C974"/>
		<stop  offset="1" style="stop-color:#FFFFFF"/>
	</linearGradient>
	
		<rect id="Divider_line_7_" x="40.508" y="311.73" style="display:inline;fill:url(#Divider_line_1_);" width="200.211" height="3.203"/>
	<g style="display:inline;">
		<path style="fill:#EABC29;" d="M72.328,115.593v65.81h-5.432v-58.682H53.194v19.919c0,14.255-0.432,30.171-6.234,36.42
			c-1.543,1.562-4.012,3.125-6.419,3.125l-0.679-6.835c1.666-0.391,3.395-1.953,4.382-3.515c3.333-5.077,3.642-17.966,3.642-28.511
			v-27.73H72.328z"/>
		<path style="fill:#EABC29;" d="M83.254,134.144l6.481,27.925c0.741,3.124,1.481,6.835,1.975,9.666h0.123
			c0.556-2.832,1.173-6.444,1.913-9.862l5.926-27.73h5.741l-8.148,33.686c-3.889,16.208-6.543,24.41-10.246,29.585
			c-2.716,3.613-5.308,5.077-6.666,5.468l-1.358-7.128c1.358-0.684,3.148-2.051,4.753-4.199c1.481-1.855,3.271-5.175,4.567-9.569
			c0.247-0.879,0.432-1.562,0.432-2.05c0-0.488-0.123-1.172-0.432-2.246l-10.987-43.548H83.254z"/>
		<path style="fill:#EABC29;" d="M115.29,134.144v15.916c0,6.054,1.419,10.057,6.173,10.057c2.345,0,4.814-1.367,6.419-3.222v-22.75
			h5.37v47.844h-5.37v-19.04h-0.062c-2.037,2.051-5.308,3.515-8.148,3.515c-5.617,0-9.814-4.589-9.814-15.33v-16.99H115.29z"/>
		<path style="fill:#EABC29;" d="M147.325,134.144v40.521h10.37v-40.521h5.37v40.521h10.37v-40.521h5.37v47.258h-36.849v-47.258
			H147.325z"/>
		<path style="fill:#EABC29;" d="M192.693,134.144v19.919c0,7.421-0.123,12.205-0.37,18.942l0.185,0.098
			c1.852-5.761,2.839-9.08,4.876-14.548l9.32-24.41h6.358v47.258h-5.185v-20.016c0-7.714,0.123-11.717,0.371-19.431h-0.123
			c-1.975,6.151-3.21,9.959-5,14.744c-2.839,7.323-6.173,16.404-9.321,24.703h-6.296v-47.258H192.693z"/>
		<path style="fill:#EABC29;" d="M226.888,134.144v19.919c0,7.421-0.123,12.205-0.37,18.942l0.185,0.098
			c1.852-5.761,2.839-9.08,4.876-14.548l9.32-24.41h6.358v47.258h-5.185v-20.016c0-7.714,0.123-11.717,0.371-19.431h-0.123
			c-1.975,6.151-3.21,9.959-5,14.744c-2.839,7.323-6.173,16.404-9.32,24.703h-6.296v-47.258H226.888z M230.406,114.909
			c0.186,4.199,1.481,7.421,3.95,7.421c2.654,0,3.889-3.222,4.198-7.421h3.889c-0.309,7.909-3.457,12.108-8.21,12.108
			c-5.432,0-7.53-5.468-7.777-12.108H230.406z"/>
	</g>
	<g style="display:inline;">
		<path style="fill:#EABC29;" d="M49.474,233.82c-0.673,0.476-2.166,1.21-4.068,1.21c-4.273,0-7.054-4.279-7.054-10.676
			c0-6.44,2.985-11.152,7.61-11.152c1.522,0,2.868,0.562,3.571,1.124l-0.585,2.896c-0.614-0.476-1.58-0.994-2.985-0.994
			c-3.249,0-5.005,3.587-5.005,7.91c0,4.841,2.107,7.823,4.917,7.823c1.464,0,2.429-0.519,3.161-0.994L49.474,233.82z"/>
		<path style="fill:#EABC29;" d="M53.746,224.787c0.059,5.143,2.254,7.261,4.859,7.261c1.844,0,2.985-0.476,3.922-1.081l0.468,2.723
			c-0.907,0.605-2.488,1.34-4.741,1.34c-4.361,0-6.966-4.279-6.966-10.59c0-6.311,2.517-11.238,6.644-11.238
			c4.654,0,5.854,5.965,5.854,9.811c0,0.778-0.029,1.34-0.088,1.772H53.746z M61.297,222.064c0.029-2.378-0.673-6.138-3.571-6.138
			c-2.634,0-3.746,3.501-3.951,6.138H61.297z"/>
		<path style="fill:#EABC29;" d="M76.427,213.635v2.982h-4.42v17.938h-2.576v-17.938h-4.42v-2.982H76.427z"/>
		<path style="fill:#EABC29;" d="M79.733,224.787c0.059,5.143,2.254,7.261,4.858,7.261c1.844,0,2.985-0.476,3.922-1.081l0.468,2.723
			c-0.907,0.605-2.488,1.34-4.741,1.34c-4.361,0-6.966-4.279-6.966-10.59c0-6.311,2.517-11.238,6.644-11.238
			c4.654,0,5.854,5.965,5.854,9.811c0,0.778-0.03,1.34-0.088,1.772H79.733z M87.284,222.064c0.029-2.378-0.673-6.138-3.571-6.138
			c-2.634,0-3.746,3.501-3.951,6.138H87.284z"/>
		<path style="fill:#EABC29;" d="M92.872,213.894c1.024-0.259,2.868-0.475,4.507-0.475c2.4,0,6.322,0.605,6.322,5.23
			c0,2.593-1.346,4.236-2.956,4.754v0.086c2.078,0.432,3.6,2.118,3.6,5.143c0,5.489-4.683,6.181-7.463,6.181
			c-1.58,0-3.249-0.173-4.01-0.259V213.894z M95.331,232.091c0.732,0.086,1.258,0.13,2.049,0.13c1.756,0,4.332-0.562,4.332-3.631
			c0-3.026-2.078-3.674-4.507-3.674h-1.873V232.091z M95.36,222.452h1.932c1.902,0,3.863-0.821,3.863-3.328
			c0-2.075-1.229-3.069-3.805-3.069c-0.878,0-1.405,0.086-1.99,0.173V222.452z"/>
		<path style="fill:#EABC29;" d="M120.412,223.922c0,7.737-3.659,11.108-7.054,11.108c-3.805,0-6.79-4.15-6.79-10.762
			c0-6.959,3.132-11.065,7.025-11.065C117.661,213.203,120.412,217.568,120.412,223.922z M109.202,224.138
			c0,4.581,1.756,8.039,4.273,8.039c2.458,0,4.302-3.415,4.302-8.126c0-3.544-1.2-7.996-4.244-7.996
			C110.519,216.055,109.202,220.205,109.202,224.138z"/>
		<path style="fill:#EABC29;" d="M126.029,213.635v8.817c0,3.285-0.059,5.403-0.176,8.385l0.088,0.043
			c0.878-2.55,1.346-4.019,2.312-6.44l4.42-10.806h3.015v20.92h-2.459v-8.861c0-3.415,0.059-5.187,0.176-8.601h-0.059
			c-0.937,2.723-1.522,4.409-2.371,6.527c-1.346,3.242-2.927,7.261-4.42,10.935h-2.985v-20.92H126.029z M127.698,205.12
			c0.088,1.858,0.702,3.285,1.873,3.285c1.258,0,1.844-1.426,1.99-3.285h1.844c-0.146,3.501-1.639,5.36-3.893,5.36
			c-2.576,0-3.571-2.42-3.688-5.36H127.698z"/>
		<path style="fill:#EABC29;" d="M146.251,213.635h3.161l2.546,10.546c0.381,1.556,0.966,4.106,1.288,5.749h0.059
			c0.322-1.6,1.112-4.885,1.698-7.175l2.254-9.12h3.19l0.995,20.92h-2.458l-0.322-9.984c-0.059-2.291-0.176-4.928-0.234-7.478
			h-0.088c-0.381,1.902-0.79,3.544-1.581,6.786l-2.722,10.546h-1.844l-2.517-10.373c-0.468-1.945-1.083-4.971-1.434-6.916h-0.117
			c-0.059,2.464-0.117,5.23-0.205,7.521l-0.381,9.898h-2.37L146.251,213.635z"/>
		<path style="fill:#EABC29;" d="M174.726,229.541c0,1.815,0.059,3.588,0.205,5.014h-2.312l-0.205-2.637h-0.088
			c-0.79,1.642-2.312,3.112-4.332,3.112c-2.868,0-4.332-2.982-4.332-6.008c0-5.057,3.044-7.823,8.517-7.78v-0.432
			c0-1.685-0.322-4.841-3.22-4.798c-1.346,0-2.722,0.562-3.717,1.556l-0.585-2.55c1.17-1.081,2.898-1.815,4.683-1.815
			c4.332,0,5.385,4.365,5.385,8.515V229.541z M172.238,223.879c-2.81-0.086-6,0.648-6,4.711c0,2.507,1.112,3.631,2.4,3.631
			c1.873,0,3.073-1.729,3.483-3.501c0.088-0.432,0.117-0.865,0.117-1.21V223.879z"/>
		<path style="fill:#EABC29;" d="M187.515,213.635v3.025h-6.147v17.895h-2.546v-20.92H187.515z"/>
		<path style="fill:#EABC29;" d="M199.689,229.541c0,1.815,0.059,3.588,0.205,5.014h-2.312l-0.205-2.637h-0.088
			c-0.79,1.642-2.312,3.112-4.332,3.112c-2.868,0-4.332-2.982-4.332-6.008c0-5.057,3.044-7.823,8.517-7.78v-0.432
			c0-1.685-0.322-4.841-3.22-4.798c-1.346,0-2.722,0.562-3.717,1.556l-0.585-2.55c1.17-1.081,2.898-1.815,4.683-1.815
			c4.332,0,5.385,4.365,5.385,8.515V229.541z M197.201,223.879c-2.809-0.086-6,0.648-6,4.711c0,2.507,1.112,3.631,2.4,3.631
			c1.873,0,3.073-1.729,3.483-3.501c0.088-0.432,0.117-0.865,0.117-1.21V223.879z"/>
		<path style="fill:#EABC29;" d="M205.014,222.409h1.229c2.166,0,3.629-1.469,3.629-3.414c0-1.859-1.141-3.069-2.752-3.069
			c-1.141,0-2.429,0.605-3.424,1.513l-0.644-2.334c1.434-1.296,3.073-1.902,4.712-1.902c2.166,0,4.8,1.426,4.8,5.489
			c0,2.593-1.61,4.279-3.19,4.754v0.086c2.107,0.303,3.863,2.161,3.863,5.23c0,4.495-3.132,6.224-6.117,6.224
			c-1.639,0-3.336-0.648-4.595-1.686l0.673-2.593c1.024,0.865,2.429,1.47,3.746,1.47c2.137,0,3.483-1.513,3.483-3.588
			c0-2.809-1.99-3.588-4.127-3.588h-1.258L205.014,222.409z"/>
		<path style="fill:#EABC29;" d="M218.827,213.635v8.817c0,3.285-0.059,5.403-0.176,8.385l0.088,0.043
			c0.878-2.55,1.347-4.019,2.312-6.44l4.419-10.806h3.015v20.92h-2.459v-8.861c0-3.415,0.059-5.187,0.176-8.601h-0.059
			c-0.936,2.723-1.522,4.409-2.37,6.527c-1.346,3.242-2.927,7.261-4.42,10.935h-2.986v-20.92H218.827z"/>
		<path style="fill:#EABC29;" d="M235.156,213.635v8.428h6.703v-8.428h2.575v20.92h-2.575v-9.466h-6.703v9.466h-2.575v-20.92
			H235.156z"/>
	</g>
	<g style="display:inline;">
		<path style="fill:#EABC29;" d="M39.127,250.17c2.974-0.536,6.87-0.995,11.827-0.995c6.091,0,10.552,1.532,13.385,4.289
			c2.55,2.45,4.178,6.203,4.178,10.798c0,4.672-1.275,8.348-3.683,11.028c-3.329,3.753-8.569,5.667-14.589,5.667
			c-1.841,0-3.541-0.076-4.957-0.46v20.678h-6.161V250.17z M45.289,275.06c1.345,0.383,3.045,0.536,5.099,0.536
			c7.436,0,11.968-3.983,11.968-10.952c0-6.893-4.532-10.186-11.26-10.186c-2.691,0-4.745,0.23-5.807,0.536V275.06z"/>
		<path style="fill:#EABC29;" d="M105.625,282.336c0,13.708-8.852,19.682-17.067,19.682c-9.206,0-16.43-7.352-16.43-19.07
			c0-12.33,7.578-19.606,16.996-19.606C98.968,263.343,105.625,271.078,105.625,282.336z M78.501,282.719
			c0,8.118,4.249,14.245,10.34,14.245c5.949,0,10.41-6.05,10.41-14.398c0-6.28-2.904-14.168-10.269-14.168
			C81.688,268.397,78.501,275.75,78.501,282.719z"/>
		<path style="fill:#EABC29;" d="M137.917,299.874c-1.629,0.842-5.24,2.145-9.844,2.145c-10.34,0-17.067-7.582-17.067-18.917
			c0-11.411,7.224-19.759,18.413-19.759c3.683,0,6.94,0.995,8.64,1.991l-1.417,5.131c-1.487-0.842-3.824-1.761-7.223-1.761
			c-7.861,0-12.11,6.357-12.11,14.015c0,8.578,5.099,13.862,11.898,13.862c3.541,0,5.878-0.919,7.648-1.761L137.917,299.874z"/>
		<path style="fill:#EABC29;" d="M169.217,299.874c-1.629,0.842-5.24,2.145-9.844,2.145c-10.34,0-17.068-7.582-17.068-18.917
			c0-11.411,7.224-19.759,18.413-19.759c3.683,0,6.94,0.995,8.64,1.991l-1.417,5.131c-1.487-0.842-3.824-1.761-7.223-1.761
			c-7.861,0-12.11,6.357-12.11,14.015c0,8.578,5.099,13.862,11.898,13.862c3.541,0,5.878-0.919,7.648-1.761L169.217,299.874z"/>
		<path style="fill:#EABC29;" d="M182.247,264.108v15.624c0,5.82-0.142,9.573-0.425,14.857l0.212,0.076
			c2.124-4.518,3.258-7.122,5.594-11.411l10.694-19.147h7.294v37.068h-5.949v-15.7c0-6.05,0.142-9.19,0.425-15.241h-0.141
			c-2.266,4.824-3.683,7.812-5.737,11.564c-3.258,5.744-7.082,12.866-10.694,19.376h-7.223v-37.068H182.247z"/>
		<path style="fill:#EABC29;" d="M221.478,264.108v15.624c0,5.82-0.142,9.573-0.425,14.857l0.212,0.076
			c2.124-4.518,3.258-7.122,5.594-11.411l10.694-19.147h7.294v37.068h-5.949v-15.7c0-6.05,0.142-9.19,0.425-15.241h-0.141
			c-2.267,4.824-3.683,7.812-5.737,11.564c-3.258,5.744-7.082,12.866-10.694,19.376h-7.223v-37.068H221.478z"/>
	</g>
	<g style="display:inline;">
		<g>
			<path style="fill:#00AEEF;" d="M130.489,358.743V373.1l1.381,0.104l-0.144,7.412h-2.37l-0.165-4.406h-8.141l-0.165,4.406h-2.391
				l-0.124-7.412l1.175-0.104c0.556-1.218,1.01-2.514,1.319-3.887c0.371-1.762,0.536-3.68,0.536-5.805v-4.665H130.489z
				 M124.306,364.289c0,2.021-0.206,3.991-0.618,5.753c-0.247,1.062-0.598,2.125-0.948,2.954h4.617v-11.04h-3.05V364.289z"/>
			<path style="fill:#00AEEF;" d="M135.867,371.131c0.083,1.633,1.381,2.41,2.844,2.41c1.072,0,1.938-0.181,2.783-0.544l0.412,2.669
				c-1.03,0.544-2.288,0.803-3.648,0.803c-3.421,0-5.379-2.488-5.379-6.453c0-3.214,1.587-6.764,5.091-6.764
				c3.256,0,4.493,3.188,4.493,6.323c0,0.674-0.061,1.27-0.103,1.555H135.867z M139.557,368.436c0-0.959-0.33-2.565-1.772-2.565
				c-1.319,0-1.855,1.529-1.937,2.565H139.557z"/>
			<path style="fill:#00AEEF;" d="M152.129,363.538v3.032h-2.927v9.641h-3.133v-9.641h-2.927v-3.032H152.129z"/>
			<path style="fill:#00AEEF;" d="M156.477,363.538v3.887c0,2.021-0.083,3.447-0.165,5.157l0.082,0.026
				c0.474-1.451,0.742-2.436,1.155-3.628l1.958-5.442h3.834v12.673h-2.968v-3.861c0-1.97,0.082-2.799,0.186-5.468h-0.082
				c-0.392,1.373-0.639,2.203-1.051,3.395c-0.639,1.762-1.402,3.965-2.103,5.935h-3.813v-12.673H156.477z"/>
		</g>
	</g>
</g>
<g>
	<linearGradient id="SVGID_6_" gradientUnits="userSpaceOnUse" x1="-40.59" y1="153.2253" x2="321.6796" y2="322.1544">
		<stop  offset="0" style="stop-color:#F9DC76"/>
		<stop  offset="0.0714" style="stop-color:#FEF5A2"/>
		<stop  offset="0.0874" style="stop-color:#FEF193"/>
		<stop  offset="0.1189" style="stop-color:#FEE86D"/>
		<stop  offset="0.1484" style="stop-color:#FEE037"/>
		<stop  offset="0.2473" style="stop-color:#EEBF1C"/>
		<stop  offset="0.3187" style="stop-color:#EBAE20"/>
		<stop  offset="0.478" style="stop-color:#ECB63D"/>
		<stop  offset="0.6154" style="stop-color:#FEED9C"/>
		<stop  offset="0.6593" style="stop-color:#FFF4C7"/>
		<stop  offset="0.7143" style="stop-color:#FEF5A2"/>
		<stop  offset="0.8791" style="stop-color:#ECAF20"/>
	</linearGradient>
	<path style="fill:url(#SVGID_6_);" d="M267.593,55.683H13.497C6.043,55.683,0,61.726,0,69.18V406.2
		c0,7.454,6.043,13.497,13.497,13.497h254.097c7.454,0,13.497-6.042,13.497-13.497V69.18
		C281.09,61.726,275.047,55.683,267.593,55.683z M258.323,388.82c0,2.751-2.23,4.981-4.981,4.981H27.429
		c-2.751,0-4.981-2.23-4.981-4.981V86.529c0-2.751,2.23-4.981,4.981-4.981h225.913c2.751,0,4.981,2.23,4.981,4.981V388.82z"/>
	<g id="Crown_5_">
		<linearGradient id="SVGID_7_" gradientUnits="userSpaceOnUse" x1="81.5729" y1="54.6538" x2="200.973" y2="54.6538">
			<stop  offset="0" style="stop-color:#FFF9D3"/>
			<stop  offset="0.0431" style="stop-color:#FCF1C3"/>
			<stop  offset="0.1284" style="stop-color:#F4E39D"/>
			<stop  offset="0.1648" style="stop-color:#F1DC8D"/>
			<stop  offset="0.6319" style="stop-color:#EAA821"/>
			<stop  offset="0.9341" style="stop-color:#C57D2A"/>
		</linearGradient>
		<polygon style="fill:url(#SVGID_7_);" points="164.054,59.768 141.27,19.046 118.487,59.768 81.573,39.787 103.857,90.257 
			178.683,90.262 200.973,39.787 		"/>
		<linearGradient id="SVGID_8_" gradientUnits="userSpaceOnUse" x1="198.4908" y1="36.0152" x2="212.2805" y2="36.0152">
			<stop  offset="0" style="stop-color:#FFF9D3"/>
			<stop  offset="0.0431" style="stop-color:#FCF1C3"/>
			<stop  offset="0.1284" style="stop-color:#F4E39D"/>
			<stop  offset="0.1648" style="stop-color:#F1DC8D"/>
			<stop  offset="0.6319" style="stop-color:#EAA821"/>
			<stop  offset="0.9341" style="stop-color:#C57D2A"/>
		</linearGradient>
		<path style="fill:url(#SVGID_8_);" d="M198.491,35.006c-0.001,1.839,0.715,3.568,2.017,4.87c1.302,1.302,3.032,2.018,4.873,2.018
			l0,2.025l0.007-2.025c3.802,0,6.893-3.091,6.893-6.89c0.002-1.843-0.712-3.573-2.01-4.875c-1.297-1.301-3.023-2.017-4.859-2.017
			C201.576,28.112,198.491,31.204,198.491,35.006z"/>
		<linearGradient id="SVGID_9_" gradientUnits="userSpaceOnUse" x1="70.26" y1="36.0536" x2="84.0497" y2="36.0536">
			<stop  offset="0" style="stop-color:#FFF9D3"/>
			<stop  offset="0.0431" style="stop-color:#FCF1C3"/>
			<stop  offset="0.1284" style="stop-color:#F4E39D"/>
			<stop  offset="0.1648" style="stop-color:#F1DC8D"/>
			<stop  offset="0.6319" style="stop-color:#EAA821"/>
			<stop  offset="0.9341" style="stop-color:#C57D2A"/>
		</linearGradient>
		<path style="fill:url(#SVGID_9_);" d="M77.144,44l0.011-2.106c3.804,0,6.895-3.091,6.895-6.89
			c0.004-1.844-0.709-3.573-2.008-4.875c-1.3-1.303-3.031-2.021-4.872-2.021c-3.816,0-6.91,3.094-6.91,6.898
			c0,1.839,0.716,3.568,2.016,4.87c1.3,1.301,3.029,2.018,4.867,2.018V44L77.144,44z"/>
		<linearGradient id="SVGID_10_" gradientUnits="userSpaceOnUse" x1="133.0667" y1="8.2018" x2="149.4668" y2="8.2018">
			<stop  offset="0" style="stop-color:#FFF9D3"/>
			<stop  offset="0.0431" style="stop-color:#FCF1C3"/>
			<stop  offset="0.1284" style="stop-color:#F4E39D"/>
			<stop  offset="0.1648" style="stop-color:#F1DC8D"/>
			<stop  offset="0.6319" style="stop-color:#EAA821"/>
			<stop  offset="0.9341" style="stop-color:#C57D2A"/>
		</linearGradient>
		<path style="fill:url(#SVGID_10_);" d="M141.269,0c-2.19,0-4.249,0.854-5.797,2.403c-1.551,1.549-2.405,3.607-2.405,5.798
			s0.852,4.25,2.4,5.798c1.551,1.55,3.611,2.404,5.802,2.404c2.19,0,4.249-0.854,5.797-2.403c1.548-1.549,2.4-3.608,2.4-5.799
			c-0.001-2.191-0.854-4.25-2.402-5.797C145.516,0.853,143.459,0,141.269,0z"/>
	</g>
	<linearGradient id="Divider_line_2_" gradientUnits="userSpaceOnUse" x1="40.439" y1="313.2707" x2="240.6501" y2="313.2707">
		<stop  offset="0" style="stop-color:#FFFFFF"/>
		<stop  offset="0.0714" style="stop-color:#FFF156"/>
		<stop  offset="0.0755" style="stop-color:#FFF16A"/>
		<stop  offset="0.0837" style="stop-color:#FFF391"/>
		<stop  offset="0.0951" style="stop-color:#FFF7C8"/>
		<stop  offset="0.0989" style="stop-color:#FFF9DB"/>
		<stop  offset="0.1374" style="stop-color:#FEE794"/>
		<stop  offset="0.1868" style="stop-color:#EEBF1C"/>
		<stop  offset="0.3187" style="stop-color:#EBAE20"/>
		<stop  offset="0.478" style="stop-color:#ECB63D"/>
		<stop  offset="0.6154" style="stop-color:#FEED9C"/>
		<stop  offset="0.6593" style="stop-color:#FFF4C7"/>
		<stop  offset="0.7143" style="stop-color:#FEF5A2"/>
		<stop  offset="0.8791" style="stop-color:#ECAF20"/>
		<stop  offset="0.9244" style="stop-color:#F2C974"/>
		<stop  offset="1" style="stop-color:#FFFFFF"/>
	</linearGradient>
	<rect id="Divider_line_6_" x="40.439" y="311.669" style="fill:url(#Divider_line_2_);" width="200.211" height="3.203"/>
	<g>
		<path style="fill:#EABC29;" d="M37.411,249.606c3.655-0.624,9.027-1.04,15.144-1.04c7.46,0,12.682,1.04,16.263,3.743
			c3.059,2.219,4.7,5.477,4.7,9.774c0,5.892-4.551,9.982-8.877,11.437v0.208c3.506,1.317,5.446,4.367,6.714,8.665
			c1.567,5.338,3.059,11.438,4.028,13.24H63.745c-0.746-1.317-2.014-5.13-3.432-10.883c-1.417-5.892-3.581-7.417-8.281-7.486h-3.357
			v18.37H37.411V249.606z M48.676,269.639h4.476c5.67,0,9.027-2.634,9.027-6.724c0-4.228-3.133-6.447-8.355-6.447
			c-2.76,0-4.327,0.139-5.147,0.347V269.639z"/>
		<path style="fill:#EABC29;" d="M115.518,284.751c0,4.436,0.149,8.041,0.298,10.883h-9.847l-0.522-4.783h-0.224
			c-1.417,2.079-4.849,5.545-11.414,5.545c-7.46,0-12.831-4.298-12.831-14.765v-19.895h11.339v18.231
			c0,4.921,1.716,7.902,5.744,7.902c3.133,0,4.998-2.01,5.67-3.674c0.298-0.624,0.448-1.387,0.448-2.288v-20.172h11.339V284.751z"/>
		<path style="fill:#EABC29;" d="M124.546,286.484c2.089,1.178,6.416,2.496,9.773,2.496c3.432,0,4.849-1.04,4.849-2.773
			c0-1.802-1.119-2.634-5.297-3.951c-7.609-2.288-10.519-6.17-10.444-10.121c0-6.378,5.819-11.16,14.845-11.16
			c4.252,0,7.982,0.971,10.22,2.01l-1.939,7.209c-1.642-0.762-4.849-1.872-7.908-1.872c-2.76,0-4.327,1.04-4.327,2.704
			c0,1.664,1.417,2.495,5.893,3.951c6.938,2.149,9.772,5.476,9.847,10.398c0,6.378-5.296,11.022-15.741,11.022
			c-4.774,0-9.027-1.04-11.787-2.426L124.546,286.484z"/>
		<path style="fill:#EABC29;" d="M156.923,286.484c2.089,1.178,6.416,2.496,9.773,2.496c3.431,0,4.849-1.04,4.849-2.773
			c0-1.802-1.119-2.634-5.297-3.951c-7.609-2.288-10.518-6.17-10.444-10.121c0-6.378,5.819-11.16,14.846-11.16
			c4.252,0,7.982,0.971,10.22,2.01l-1.939,7.209c-1.642-0.762-4.849-1.872-7.908-1.872c-2.76,0-4.326,1.04-4.326,2.704
			c0,1.664,1.417,2.495,5.893,3.951c6.938,2.149,9.772,5.476,9.847,10.398c0,6.378-5.296,11.022-15.74,11.022
			c-4.774,0-9.027-1.04-11.787-2.426L156.923,286.484z"/>
		<path style="fill:#EABC29;" d="M194.97,257.301c-3.805,0-6.266-2.495-6.266-5.615c0-3.189,2.536-5.615,6.416-5.615
			c3.879,0,6.266,2.426,6.341,5.615c0,3.119-2.462,5.615-6.416,5.615H194.97z M189.374,295.635v-33.897h11.339v33.897H189.374z"/>
		<path style="fill:#EABC29;" d="M240.177,287.455c0,3.189,0.149,6.308,0.597,8.18h-10.22l-0.671-3.397h-0.224
			c-2.387,2.704-6.117,4.159-10.444,4.159c-7.385,0-11.786-4.991-11.786-10.398c0-8.804,8.504-12.963,21.41-12.963v-0.416
			c0-1.802-1.044-4.367-6.64-4.367c-3.729,0-7.684,1.178-10.071,2.495l-2.089-6.724c2.536-1.317,7.535-3.05,14.174-3.05
			c12.16,0,15.964,6.654,15.964,14.626V287.455z M229.211,279.622c-5.968,0-10.594,1.317-10.594,5.337
			c0,2.704,1.94,4.021,4.476,4.021c2.76,0,5.148-1.734,5.894-3.882c0.149-0.555,0.224-1.178,0.224-1.802V279.622z"/>
	</g>
	<g>
		<path style="fill:#EABC29;" d="M48.749,215.324l-2.487,11.549h-8.36l10.899-44.995h10.529l11.111,44.995h-8.677l-2.751-11.549
			H48.749z M57.797,207.714l-2.222-9.547c-0.582-2.67-1.217-6.075-1.746-8.678H53.67c-0.476,2.67-1.058,6.075-1.587,8.678
			l-2.169,9.547H57.797z"/>
		<path style="fill:#EABC29;" d="M77.796,226.873l-8.466-44.995h8.624l2.699,18.492c0.793,5.407,1.534,11.215,2.116,15.822h0.106
			c0.582-4.94,1.428-10.348,2.328-15.955l3.016-18.358h8.572l2.857,18.959c0.793,5.274,1.376,10.081,1.905,15.088h0.106
			c0.529-5.007,1.323-10.281,2.064-15.688l2.91-18.358h8.201l-9.206,44.995h-8.73l-3.016-19.36c-0.688-4.54-1.27-8.745-1.693-13.886
			h-0.106c-0.635,5.073-1.217,9.346-2.064,13.886l-3.386,19.36H77.796z"/>
		<path style="fill:#EABC29;" d="M124.41,215.324l-2.487,11.549h-8.36l10.9-44.995h10.529l11.111,44.995h-8.678l-2.751-11.549
			H124.41z M133.458,207.714l-2.222-9.547c-0.582-2.67-1.217-6.075-1.746-8.678h-0.159c-0.476,2.67-1.058,6.075-1.587,8.678
			l-2.169,9.547H133.458z"/>
		<path style="fill:#EABC29;" d="M150.865,182.546c2.592-0.601,6.402-1.001,10.741-1.001c5.291,0,8.995,1.001,11.534,3.605
			c2.169,2.136,3.334,5.274,3.334,9.413c0,5.674-3.228,9.613-6.296,11.015v0.2c2.487,1.268,3.862,4.206,4.762,8.345
			c1.111,5.14,2.169,11.015,2.857,12.751h-8.254c-0.529-1.268-1.429-4.94-2.434-10.481c-1.005-5.674-2.54-7.143-5.873-7.21h-2.381
			v17.691h-7.989V182.546z M158.854,201.839h3.175c4.021,0,6.402-2.537,6.402-6.476c0-4.072-2.222-6.208-5.926-6.208
			c-1.958,0-3.069,0.133-3.651,0.334V201.839z"/>
		<path style="fill:#EABC29;" d="M182.24,182.546c2.963-0.667,6.825-1.001,10.846-1.001c6.826,0,11.27,1.402,14.656,4.673
			c3.704,3.471,6.032,9.079,6.032,17.09c0,8.612-2.487,14.554-5.873,18.225c-3.756,3.939-9.524,5.808-16.508,5.808
			c-4.18,0-7.196-0.334-9.153-0.667V182.546z M190.282,219.196c0.688,0.2,1.852,0.2,2.804,0.2c7.355,0.067,12.17-5.007,12.17-15.755
			c0-9.68-4.338-14.286-11.323-14.286c-1.746,0-2.963,0.2-3.651,0.4V219.196z"/>
		<path style="fill:#EABC29;" d="M219.33,216.458c2.116,1.402,5.502,2.804,8.941,2.804c3.704,0,5.662-1.936,5.662-4.94
			c0-2.737-1.693-4.406-5.979-6.275c-5.926-2.67-9.841-6.809-9.841-13.419c0-7.677,5.132-13.485,13.492-13.485
			c4.074,0,6.984,1.001,9.101,2.27l-1.799,8.145c-1.375-0.868-3.968-2.136-7.407-2.136c-3.492,0-5.185,2.07-5.185,4.339
			c0,2.871,1.958,4.139,6.614,6.409c6.296,2.938,9.206,7.076,9.206,13.485c0,7.544-4.55,13.953-14.338,13.953
			c-4.074,0-8.095-1.402-10.106-2.804L219.33,216.458z"/>
	</g>
	<g>
		<path style="fill:#EABC29;" d="M45.478,160.676l-7.256-45.628h7.392l2.313,18.752c0.68,5.484,1.315,11.373,1.814,16.044h0.091
			c0.499-5.01,1.224-10.493,1.995-16.179l2.585-18.617h7.346l2.449,19.226c0.68,5.348,1.179,10.222,1.633,15.3h0.091
			c0.453-5.077,1.133-10.425,1.769-15.909l2.494-18.617h7.029l-7.89,45.628h-7.482l-2.585-19.632
			c-0.589-4.603-1.088-8.868-1.451-14.081h-0.091c-0.544,5.145-1.043,9.478-1.769,14.081l-2.902,19.632H45.478z"/>
		<path style="fill:#EABC29;" d="M98.988,141.382H87.741v10.832h12.562v8.462H80.848v-45.628h18.82v8.462H87.741v9.478h11.246
			V141.382z"/>
		<path style="fill:#EABC29;" d="M105.019,115.725c1.814-0.542,5.442-1.016,8.934-1.016c4.217,0,6.802,0.609,9.024,2.573
			c2.131,1.692,3.628,4.807,3.628,9.004c0,3.994-1.587,7.718-4.988,9.681v0.135c3.492,1.354,6.077,5.348,6.077,11.238
			c0,4.197-1.27,7.447-3.174,9.681c-2.222,2.64-5.941,4.13-12.017,4.13c-3.401,0-5.941-0.338-7.482-0.677V115.725z M111.867,133.123
			h2.267c3.673,0,5.578-2.234,5.578-5.619c0-3.453-1.769-5.28-4.898-5.28c-1.542,0-2.404,0.135-2.948,0.338V133.123z
			 M111.867,153.364c0.68,0.203,1.496,0.203,2.676,0.203c3.129,0,5.895-1.828,5.895-6.634c0-4.603-2.766-6.431-6.213-6.431h-2.358
			V153.364z"/>
		<path style="fill:#EABC29;" d="M132.635,150.115c1.814,1.422,4.716,2.843,7.664,2.843c3.174,0,4.852-1.963,4.852-5.009
			c0-2.776-1.451-4.468-5.124-6.363c-5.079-2.708-8.435-6.905-8.435-13.607c0-7.785,4.399-13.675,11.564-13.675
			c3.492,0,5.986,1.016,7.8,2.302l-1.542,8.259c-1.179-0.88-3.401-2.166-6.349-2.166c-2.993,0-4.444,2.099-4.444,4.4
			c0,2.911,1.678,4.197,5.669,6.499c5.396,2.979,7.89,7.176,7.89,13.675c0,7.65-3.9,14.149-12.289,14.149
			c-3.492,0-6.938-1.422-8.661-2.843L132.635,150.115z"/>
		<path style="fill:#EABC29;" d="M163.834,115.048v17.601h11.382v-17.601h6.893v45.628h-6.893v-19.023h-11.382v19.023h-6.893
			v-45.628H163.834z"/>
		<path style="fill:#EABC29;" d="M201.11,161.42c-9.024,0-14.375-10.222-14.375-23.22c0-13.675,5.895-23.897,14.874-23.897
			c9.387,0,14.511,10.493,14.511,23.085c0,15.029-6.031,24.032-14.965,24.032H201.11z M201.428,153.229
			c4.671,0,7.346-6.567,7.346-15.503c0-8.192-2.585-15.232-7.346-15.232c-4.762,0-7.437,6.905-7.437,15.435
			c0,8.597,2.766,15.3,7.392,15.3H201.428z"/>
		<path style="fill:#EABC29;" d="M220.655,115.657c2.131-0.542,5.124-0.948,9.342-0.948c4.263,0,7.347,1.219,9.387,3.723
			c1.95,2.234,3.22,6.025,3.22,10.493c0,4.536-0.953,8.327-2.766,10.831c-2.358,3.249-5.895,4.807-9.977,4.807
			c-0.907,0-1.723-0.068-2.358-0.271v16.383h-6.847V115.657z M227.503,136.372c0.59,0.203,1.315,0.271,2.313,0.271
			c3.673,0,5.941-2.776,5.941-7.379c0-4.197-1.904-6.702-5.397-6.702c-1.406,0-2.358,0.135-2.857,0.338V136.372z"/>
	</g>
	<g>
		<g>
			<path style="fill:#00AEEF;" d="M130.421,358.683v14.357l1.381,0.104l-0.144,7.412h-2.37l-0.165-4.406h-8.141l-0.165,4.406h-2.391
				l-0.124-7.412l1.175-0.104c0.556-1.218,1.01-2.514,1.319-3.887c0.371-1.762,0.536-3.68,0.536-5.805v-4.665H130.421z
				 M124.237,364.229c0,2.021-0.206,3.991-0.618,5.753c-0.247,1.062-0.598,2.125-0.948,2.954h4.617v-11.04h-3.05V364.229z"/>
			<path style="fill:#00AEEF;" d="M135.799,371.07c0.083,1.633,1.381,2.41,2.844,2.41c1.072,0,1.938-0.181,2.783-0.544l0.412,2.669
				c-1.03,0.544-2.288,0.803-3.648,0.803c-3.421,0-5.379-2.488-5.379-6.453c0-3.214,1.587-6.764,5.091-6.764
				c3.256,0,4.493,3.188,4.493,6.323c0,0.674-0.061,1.27-0.103,1.555H135.799z M139.488,368.375c0-0.959-0.33-2.565-1.772-2.565
				c-1.319,0-1.855,1.529-1.937,2.565H139.488z"/>
			<path style="fill:#00AEEF;" d="M152.06,363.477v3.032h-2.927v9.641h-3.133v-9.641h-2.927v-3.032H152.06z"/>
			<path style="fill:#00AEEF;" d="M156.409,363.477v3.887c0,2.021-0.083,3.447-0.165,5.157l0.082,0.026
				c0.474-1.451,0.742-2.436,1.155-3.628l1.958-5.442h3.834v12.673h-2.968v-3.861c0-1.97,0.082-2.799,0.186-5.468h-0.082
				c-0.392,1.373-0.639,2.203-1.051,3.395c-0.639,1.762-1.402,3.965-2.103,5.935h-3.813v-12.673H156.409z"/>
		</g>
	</g>
</g>
<g>
	<path style="fill:#EABC29;" d="M57.775,349.273v-2.664l2.853-2.201c4.823-3.677,7.166-5.791,7.234-7.991
		c0-1.535-1.087-2.751-3.634-2.751c-1.902,0-3.566,0.811-4.721,1.564l-1.46-3.156c1.664-1.071,4.246-1.94,7.234-1.94
		c4.993,0,7.744,2.49,7.744,5.907c0,3.156-2.683,5.675-5.876,8.107l-2.038,1.448v0.058h8.321v3.619H57.775z"/>
	<path style="fill:#EABC29;" d="M92.472,339.776c0,5.82-2.751,9.816-8.389,9.816c-5.706,0-8.219-4.372-8.253-9.7
		c0-5.443,2.717-9.758,8.423-9.758C90.163,330.134,92.472,334.622,92.472,339.776z M81.027,339.892
		c-0.034,4.315,1.189,6.37,3.193,6.37c2.004,0,3.091-2.143,3.091-6.428c0-4.169-1.053-6.37-3.125-6.37
		C82.283,333.464,80.993,335.52,81.027,339.892z"/>
	<path style="fill:#EABC29;" d="M99.904,334.361h-0.068l-4.211,1.709l-0.849-3.301l5.842-2.317h4.279v18.821h-4.993V334.361z"/>
	<path style="fill:#EABC29;" d="M109.791,344.351c0-2.259,1.528-3.822,3.94-4.72v-0.087c-2.14-0.926-3.193-2.461-3.193-4.112
		c0-3.185,3.362-5.298,7.778-5.298c5.162,0,7.302,2.548,7.302,4.836c0,1.621-1.019,3.214-3.193,4.14v0.087
		c2.14,0.695,4.042,2.259,4.042,4.691c0,3.416-3.362,5.704-8.491,5.704C112.372,349.592,109.791,346.899,109.791,344.351z
		 M121.202,344.206c0-1.651-1.426-2.635-3.464-3.098c-1.698,0.405-2.683,1.448-2.683,2.808c-0.034,1.361,1.189,2.635,3.125,2.635
		C120.014,346.551,121.202,345.538,121.202,344.206z M115.395,335.288c0,1.274,1.359,2.085,3.125,2.548
		c1.189-0.289,2.242-1.216,2.242-2.404c0-1.158-0.781-2.316-2.683-2.316C116.312,333.117,115.395,334.101,115.395,335.288z"/>
	<path style="fill:#EABC29;" d="M144.943,340.21v2.925h-8.898v-2.925H144.943z"/>
	<path style="fill:#EABC29;" d="M154.861,349.273v-2.664l2.853-2.201c4.823-3.677,7.166-5.791,7.234-7.991
		c0-1.535-1.087-2.751-3.634-2.751c-1.902,0-3.566,0.811-4.721,1.564l-1.46-3.156c1.664-1.071,4.246-1.94,7.234-1.94
		c4.993,0,7.744,2.49,7.744,5.907c0,3.156-2.683,5.675-5.876,8.107l-2.038,1.448v0.058h8.321v3.619H154.861z"/>
	<path style="fill:#EABC29;" d="M189.559,339.776c0,5.82-2.751,9.816-8.389,9.816c-5.706,0-8.219-4.372-8.253-9.7
		c0-5.443,2.717-9.758,8.423-9.758C187.249,330.134,189.559,334.622,189.559,339.776z M178.113,339.892
		c-0.034,4.315,1.189,6.37,3.193,6.37c2.004,0,3.091-2.143,3.091-6.428c0-4.169-1.053-6.37-3.124-6.37
		C179.37,333.464,178.079,335.52,178.113,339.892z"/>
	<path style="fill:#EABC29;" d="M196.99,334.361h-0.068l-4.211,1.709l-0.849-3.301l5.842-2.317h4.279v18.821h-4.993V334.361z"/>
	<path style="fill:#EABC29;" d="M208.745,346.089c0.645,0.057,1.223,0.057,2.242,0c1.562-0.087,3.159-0.463,4.347-1.158
		c1.426-0.84,2.377-2.056,2.785-3.475l-0.102-0.029c-0.985,0.869-2.411,1.361-4.415,1.361c-3.736,0-6.895-2.23-6.895-5.878
		c0-3.677,3.464-6.775,8.321-6.775c5.672,0,8.355,3.706,8.355,8.107c0,3.909-1.461,6.775-3.872,8.657
		c-2.106,1.622-4.993,2.52-8.423,2.635c-0.883,0.058-1.766,0.029-2.343,0V346.089z M211.87,336.649c0,1.622,1.019,3.011,3.124,3.011
		c1.393,0,2.377-0.579,2.853-1.245c0.17-0.26,0.272-0.55,0.272-1.1c0-1.998-0.883-3.967-3.227-3.967
		C213.127,333.348,211.836,334.68,211.87,336.649z"/>
</g>
<g>
</g>
<g>
</g>
<g>
</g>
<g>
</g>
<g>
</g>
<g>
</g>
</svg>
