<?xml version="1.0" encoding="iso-8859-1"?>
<!-- Generator: Adobe Illustrator 21.1.0, SVG Export Plug-In . SVG Version: 6.00 Build 0)  -->
<svg version="1.1" id="Layer_1" xmlns="http://www.w3.org/2000/svg" xmlns:xlink="http://www.w3.org/1999/xlink" x="0px" y="0px"
	 viewBox="0 0 637.761 194.441" style="enable-background:new 0 0 637.761 194.441;" xml:space="preserve">
<g>
	<path style="fill:#155D9E;" d="M351.999,197.28c-6.913-2.339-14.283-2.179-21.318-3.93c-5.811-1.447-11.602-2.891-17.258-4.89
		c-2.449-0.866-3.236-1.903-2.69-4.718c2.184-11.263,4.217-22.566,5.864-33.918c0.599-4.127,1.493-4.807,5.332-2.915
		c17.263,8.507,35.656,11.649,54.785,10.533c7.017-0.409,13.921-1.62,19.804-5.948c9.133-6.72,9.024-17.541-0.137-24.275
		c-6.612-4.861-13.889-8.512-21.284-11.956c-9.7-4.518-18.822-9.972-27.038-16.843c-23.232-19.428-19.192-49.98-3.771-67.879
		c13.051-15.147,30.373-22.369,49.379-26.006c22.14-4.237,44.037-2.569,65.671,3.77c4.468,1.309,5.499,3.17,4.555,7.663
		c-2.154,10.252-3.839,20.609-5.437,30.967c-0.532,3.449-1.443,3.883-4.658,2.488c-16.288-7.066-33.307-9.008-50.826-6.32
		c-3.936,0.604-7.767,1.712-11.166,4.052c-8.154,5.615-8.859,14.645-1.204,20.905c7.793,6.372,17.137,10.155,26.044,14.625
		c8.501,4.266,16.751,8.848,23.877,15.286c17.096,15.444,21.416,36.606,11.838,57.619c-8.658,18.996-24.352,29.347-43.334,35.71
		c-7.909,2.651-16.062,4.275-24.372,5.084c-0.935,0.091-2.044-0.201-2.656,0.898C371.999,197.28,361.999,197.28,351.999,197.28z"/>
	<path style="fill:#145D9E;" d="M637.761,194.441c-15.217,0-30.345-0.017-45.472,0.02c-2.117,0.005-2.241-1.4-2.571-2.917
		c-1.554-7.148-3.318-14.253-4.713-21.431c-0.59-3.037-1.886-3.931-4.964-3.91c-19.154,0.134-38.311,0.124-57.465-0.044
		c-3.173-0.028-4.718,0.913-5.77,3.93c-2.463,7.063-5.318,13.99-7.981,20.984c-0.725,1.903-1.302,3.471-4.019,3.449
		c-16.809-0.134-33.62-0.067-50.357-0.067c-0.7-1.934,0.46-3.146,1.028-4.434c11.119-25.268,22.309-50.504,33.439-75.767
		c13.409-30.436,26.872-60.849,40.109-91.36c4.666-10.756,12.382-16.676,24.151-16.854C566.497,5.836,579.825,6,593.141,5.666
		c3.755-0.094,3.946,2.192,4.471,4.601c5.564,25.507,11.068,51.027,16.666,76.526c7.738,35.244,15.544,70.472,23.312,105.709
		C637.696,192.979,637.681,193.482,637.761,194.441z M560.705,58.186c-0.306,0.029-0.612,0.058-0.918,0.087
		c-8.497,22.004-16.982,44.012-25.507,66.004c-0.967,2.495-0.148,3.19,2.366,3.174c11.824-0.077,23.649-0.119,35.472,0.027
		c3.001,0.037,3.289-1.118,2.751-3.594C570.112,101.992,565.417,80.087,560.705,58.186z"/>
	<path style="fill:#155D9E;" d="M126.938,105.579c2.048,9.068,4.097,18.137,6.403,28.349c1.478-3.578,2.609-6.2,3.65-8.857
		c12.26-31.27,24.52-62.541,36.748-93.824c2.906-7.434,5.756-14.89,8.497-22.386c0.869-2.378,2.175-3.276,4.77-3.258
		c15.657,0.113,31.315,0.135,46.971-0.009c3.465-0.032,3.877,0.726,2.511,3.867c-10.547,24.247-20.953,48.556-31.377,72.857
		c-15.341,35.759-30.728,71.499-45.889,107.334c-1.562,3.692-3.388,4.833-7.316,4.767c-14.987-0.254-29.982-0.195-44.971-0.026
		c-3.161,0.036-4.596-0.735-5.49-3.982c-10.152-36.87-20.503-73.686-30.753-110.529c-4.056-14.578-7.99-29.191-11.993-43.784
		c-0.435-1.586-1.243-3.102-0.749-4.827c9.054,3.946,16.804,9.961,24.41,16.039C102.01,63.011,116.926,82.447,126.938,105.579z"/>
	<path style="fill:#155D9E;" d="M252.534,194.404c-7.161,0-14.326-0.123-21.482,0.056c-3.217,0.081-4.171-0.52-3.547-4.113
		c5.435-31.296,10.62-62.636,15.904-93.958c4.87-28.866,9.838-57.716,14.564-86.606c0.551-3.371,1.702-4.39,5.047-4.351
		c14.32,0.165,28.645,0.155,42.966,0.009c3.358-0.034,4.175,0.704,3.566,4.229c-9.42,54.579-18.691,109.185-27.97,163.788
		c-0.975,5.739-1.992,11.485-2.602,17.268c-0.324,3.072-1.589,3.81-4.464,3.739C267.193,194.283,259.862,194.404,252.534,194.404z"
		/>
	<path style="fill:#EFA93C;" d="M126.938,105.579C116.926,82.447,102.01,63.011,82.36,47.31
		c-7.606-6.078-15.356-12.093-24.41-16.039c0,0,0.079,0.075,0.079,0.075c-0.285-0.262-0.571-0.524-0.856-0.786
		c-14.96-8.969-31.27-14.592-47.937-19.328c-1.118-0.318-2.233-0.665-3.371-0.889C4.321,10.04,2.826,9.8,3.24,7.615
		C3.605,5.683,4.969,5.41,6.591,5.461c0.997,0.031,1.996,0.001,2.994,0.001c24.29,0,48.581-0.036,72.871,0.039
		c3.642,0.011,7.336,0.244,10.911,0.892c8.418,1.526,14.539,6.245,16.37,14.766c5.932,27.601,11.513,55.278,17.213,82.928
		C127.049,104.563,126.947,105.08,126.938,105.579z"/>
	<path style="fill:#155D9E;" d="M57.173,30.561c0.285,0.262,0.57,0.524,0.856,0.786C57.207,31.67,57.328,30.965,57.173,30.561z"/>
</g>
</svg>
