<?xml version="1.0" encoding="iso-8859-1"?>
<!-- Generator: Adobe Illustrator 21.1.0, SVG Export Plug-In . SVG Version: 6.00 Build 0)  -->
<svg version="1.1" id="Layer_1" xmlns="http://www.w3.org/2000/svg" xmlns:xlink="http://www.w3.org/1999/xlink" x="0px" y="0px"
	 viewBox="0 0 238.08 62.16" style="enable-background:new 0 0 238.08 62.16;" xml:space="preserve">
<g>
	<path style="fill:#017DC6;" d="M35.12,0.16c1.866,0.644,3.857,0.772,5.726,1.422c2.076,0.721,4.097,1.542,6.152,2.74
		c-0.91,0.826-1.754,1.579-2.583,2.348c-0.461,0.427-0.635-0.064-0.846-0.274c-1.016-1.018-2.063-2.014-2.987-3.113
		c-0.642-0.764-1.057-0.58-1.675-0.008c-1.848,1.709-3.758,3.351-5.608,5.058c-0.548,0.506-0.883,0.596-1.418-0.044
		c-0.997-1.194-2.125-2.279-3.136-3.462c-0.393-0.459-0.636-0.443-1.045-0.073c-4.118,3.727-8.239,7.451-12.381,11.151
		c-0.525,0.469-0.342,0.722,0.039,1.138c2.459,2.678,4.874,5.396,7.348,8.06c0.564,0.608,0.735,0.949-0.023,1.562
		c-0.882,0.713-2.363,1.348-2.336,2.355c0.023,0.864,1.3,1.703,2.04,2.538c1.855,2.093,3.703,4.192,5.594,6.253
		c0.498,0.543,0.484,0.841-0.08,1.328c-0.893,0.771-2.468,1.456-2.416,2.428c0.05,0.94,1.412,1.817,2.211,2.709
		c2.987,3.332,5.991,6.648,8.959,9.998c0.494,0.557,0.774,0.688,1.384,0.098c1.894-1.833,3.879-3.573,5.796-5.383
		c0.532-0.503,0.849-0.589,1.379,0.044c1.64,1.96,3.327,3.883,5.053,5.769c0.568,0.621,0.452,0.888-0.173,1.361
		c-11.493,8.697-28.012,8.158-38.9-1.293C-2.208,43.234-3.474,23.484,8.414,10.311c4.997-5.537,11.286-8.786,18.67-9.895
		c0.217-0.033,0.498,0.063,0.596-0.256C30.16,0.16,32.64,0.16,35.12,0.16z"/>
	<path style="fill:#057FC6;" d="M238.4,25.6c-0.429,0.203-0.408,0.649-0.528,1.009c-2.481,7.458-4.935,14.924-7.443,22.373
		c-0.75,2.227-1.697,4.372-4.309,5.025c-2.26,0.565-4.257-0.018-6.04-1.466c-0.329-0.267-0.467-0.52-0.123-0.878
		c0.193-0.201,0.376-0.42,0.518-0.658c0.544-0.912,1.006-1.161,2.055-0.393c1.721,1.259,3.549,0.527,4.483-1.42
		c0.893-1.86,0.978-3.551,0.114-5.551c-2.513-5.817-4.769-11.746-7.163-17.615c-0.363-0.89-0.381-1.228,0.758-1.209
		c2.884,0.049,2.912-0.01,3.936,2.644c1.722,4.461,3.72,8.815,5.244,13.55c0.693-2.136,1.352-4.137,1.993-6.144
		c0.958-3,1.936-5.994,2.833-9.012c0.236-0.792,0.559-1.127,1.399-1.03c0.75,0.086,1.515,0.043,2.274,0.056
		C238.4,25.12,238.4,25.36,238.4,25.6z"/>
	<path style="fill:#057FC6;" d="M71.318,29.123c0-3.319,0.027-6.638-0.019-9.956c-0.012-0.854,0.155-1.178,1.102-1.17
		c3.041,0.028,3.041-0.015,3.041,3.035c0,5.798-0.006,11.596,0.004,17.394c0.003,1.947,0.894,3.007,2.474,3.012
		c1.429,0.004,2.388-0.831,2.538-2.327c0.092-0.911,0.056-1.837,0.057-2.756c0.004-5.718,0.024-11.436-0.02-17.154
		c-0.007-0.943,0.237-1.217,1.192-1.203c2.914,0.043,2.915,0.001,2.915,2.934c0,5.558-0.006,11.116,0.008,16.674
		c0.002,0.635,0.051,1.282,0.181,1.901c0.28,1.336,1.136,1.971,2.481,1.93c1.293-0.039,2.146-0.785,2.35-2.106
		c0.073-0.471,0.077-0.955,0.078-1.434c0.005-6.198,0.022-12.396-0.016-18.593c-0.006-0.942,0.162-1.33,1.223-1.31
		c2.977,0.056,2.978,0.006,2.978,2.995c0,5.678-0.006,11.356,0.006,17.034c0.002,0.927-0.081,1.841-0.314,2.73
		c-1.151,4.386-6.206,6.298-10.064,3.754c-0.735-0.484-1.159-0.442-1.852,0.016c-3.414,2.258-9.936,1.183-10.277-5.329
		c-0.176-3.349-0.031-6.715-0.031-10.073C71.341,29.123,71.33,29.123,71.318,29.123z"/>
	<path style="fill:#067FC6;" d="M159.202,34.144c0,3.359-0.018,6.718,0.015,10.077c0.007,0.7-0.133,0.966-0.91,0.979
		c-3.152,0.053-3.151,0.083-3.151-3.058c0-5.558,0.004-11.117-0.005-16.675c-0.001-0.597-0.001-1.209-0.126-1.788
		c-0.283-1.306-1.182-1.973-2.491-1.951c-1.204,0.021-2.114,0.741-2.387,1.965c-0.103,0.461-0.097,0.953-0.098,1.43
		c-0.006,6.278-0.027,12.557,0.02,18.834c0.008,1.013-0.292,1.263-1.272,1.245c-2.837-0.054-2.838-0.011-2.838-2.891
		c0-5.678-0.004-11.357,0.006-17.035c0.001-0.605-0.035-1.199-0.203-1.778c-0.329-1.137-1.103-1.728-2.279-1.765
		c-1.163-0.037-2.014,0.471-2.431,1.572c-0.256,0.676-0.296,1.398-0.295,2.124c0.009,6.158-0.014,12.317,0.026,18.475
		c0.006,0.94-0.151,1.326-1.213,1.302c-2.826-0.063-2.827-0.009-2.827-2.805c0-5.958-0.051-11.917,0.014-17.875
		c0.065-5.913,4.969-7.968,8.971-6.413c1.65,0.641,2.726,0.731,4.405,0.022c4.541-1.919,8.994,1.243,9.061,6.172
		C159.238,27.585,159.202,30.865,159.202,34.144z"/>
	<path style="fill:#0780C7;" d="M120.616,25.376c1.595-0.612,3.183-1.008,4.832-0.886c4.338,0.323,7.074,2.747,7.876,7.042
		c0.451,2.416,0.437,4.869-0.131,7.263c-1.151,4.85-5.093,7.35-10.363,6.661c-1.837-0.24-3.577-0.789-5.239-1.614
		c-0.605-0.3-0.856-0.667-0.853-1.384c0.03-7.957,0.031-15.914,0-23.871c-0.003-0.853,0.253-1.07,1.08-1.067
		c2.708,0.01,2.707-0.022,2.708,2.66c0.001,1.599,0.004,3.199,0.009,4.798C120.535,25.056,120.565,25.134,120.616,25.376z
		 M129.423,34.708c0-0.998,0.063-2-0.012-2.992c-0.209-2.774-1.971-4.5-4.615-4.517c-1.217-0.008-2.288,0.66-3.453,0.903
		c-0.693,0.145-0.839,0.52-0.833,1.176c0.031,3.394,0.014,6.788,0.014,10.182c0,2.387,0.271,2.716,2.634,3.153
		c0.353,0.065,0.711,0.105,1.069,0.139c2.593,0.24,4.475-1.198,4.976-3.75C129.482,37.578,129.47,36.144,129.423,34.708z"/>
	<path style="fill:#0780C7;" d="M212.091,35.923c-1.799,0-3.598,0.025-5.396-0.013c-0.639-0.013-0.797,0.213-0.809,0.823
		c-0.074,3.708,2.67,6.189,6.448,5.821c1.486-0.145,2.909-0.515,4.26-1.126c0.591-0.267,0.947-0.241,1.178,0.416
		c0.131,0.374,0.321,0.732,0.522,1.075c0.258,0.44,0.179,0.69-0.293,0.934c-3.218,1.662-6.576,2.222-10.082,1.166
		c-2.513-0.757-4.35-2.4-5.239-4.881c-1.324-3.693-1.466-7.452,0.154-11.092c1.586-3.561,5.201-5.213,9.27-4.44
		c3.565,0.678,5.879,3.388,6.158,7.245c0.075,1.034,0.04,2.077,0.131,3.108c0.073,0.825-0.269,0.999-1.025,0.977
		C215.61,35.888,213.85,35.923,212.091,35.923z M210.154,33.142c1.038,0,2.083-0.074,3.112,0.021
		c1.009,0.094,1.258-0.333,1.136-1.217c-0.049-0.355-0.024-0.72-0.074-1.074c-0.308-2.189-1.521-3.457-3.462-3.665
		c-3.653-0.391-4.987,2.702-4.968,5.318c0.004,0.581,0.348,0.62,0.783,0.618C207.838,33.136,208.996,33.14,210.154,33.142z"/>
	<path style="fill:#0680C7;" d="M107.236,35.922c-1.759,0-3.518,0.026-5.277-0.013c-0.655-0.014-0.899,0.151-0.889,0.853
		c0.061,4.107,2.47,5.867,6.321,5.782c1.448-0.032,2.845-0.434,4.143-1.08c0.689-0.343,1.018-0.24,1.358,0.481
		c0.776,1.643,0.825,1.638-0.809,2.347c-2.549,1.105-5.192,1.597-7.947,0.992c-3.399-0.746-5.741-2.699-6.653-6.14
		c-0.793-2.991-0.887-6.016,0.055-8.98c1.76-5.54,8.657-7.554,13.188-3.895c1.698,1.371,2.388,3.266,2.589,5.351
		c0.115,1.19,0.039,2.396,0.097,3.593c0.03,0.613-0.244,0.725-0.779,0.718C110.834,35.907,109.035,35.922,107.236,35.922z
		 M105.358,33.142c0.878,0,1.757,0,2.635,0c1.594-0.001,1.594-0.001,1.495-1.638c-0.156-2.611-1.492-4.155-3.738-4.32
		c-2.823-0.208-5.295,2.726-4.674,5.502c0.122,0.547,0.474,0.447,0.807,0.45C103.042,33.149,104.2,33.142,105.358,33.142z"/>
	<path style="fill:#057FC6;" d="M161.807,34.882c-0.072-1.612,0.13-3.192,0.644-4.72c1.305-3.877,4.89-6.099,9.198-5.722
		c4.307,0.377,7.311,3.278,7.937,7.645c0.326,2.276,0.326,4.538-0.216,6.782c-1.041,4.306-4.354,6.756-8.987,6.656
		c-4.253-0.092-7.468-2.834-8.303-7.067C161.847,37.273,161.76,36.083,161.807,34.882z M165.952,34.987
		c0,1.038-0.079,2.084,0.015,3.113c0.263,2.886,1.989,4.604,4.632,4.708c2.563,0.102,4.551-1.526,4.901-4.125
		c0.332-2.462,0.332-4.944-0.003-7.405c-0.339-2.496-2.077-4.012-4.543-4.099c-2.491-0.087-4.242,1.287-4.829,3.751
		C165.805,32.273,165.931,33.633,165.952,34.987z"/>
	<path style="fill:#0680C7;" d="M186.41,26.503c1.951-1.114,3.666-2.02,5.692-2.084c4.329-0.138,7.017,2.229,7.133,6.579
		c0.119,4.437,0.033,8.879,0.056,13.318c0.003,0.54-0.121,0.748-0.72,0.783c-3.097,0.18-3.096,0.201-3.096-2.864
		c0-3.52,0.006-7.04-0.002-10.56c-0.008-3.686-2.238-5.303-5.761-4.177c-0.378,0.121-0.738,0.298-1.105,0.453
		c-1.342,0.564-1.946,1.416-1.892,3.025c0.143,4.315,0.028,8.638,0.067,12.958c0.007,0.841-0.133,1.188-1.092,1.174
		c-2.694-0.04-2.695,0.009-2.695-2.673c0-5.48,0.017-10.96-0.017-16.439c-0.006-0.932,0.107-1.499,1.223-1.172
		c0.221,0.065,0.48,0.037,0.717,0.009C185.97,24.711,186.793,24.838,186.41,26.503z"/>
	<path style="fill:#037EC6;" d="M34.423,17.324c-0.066,0.352-0.33,0.489-0.533,0.672c-2.049,1.845-4.113,3.673-6.141,5.541
		c-0.486,0.448-0.745,0.49-1.218-0.053c-1.839-2.107-3.729-4.172-5.626-6.227c-0.416-0.451-0.437-0.708,0.053-1.136
		c2.134-1.87,4.226-3.788,6.343-5.678c0.231-0.207,0.437-0.624,0.854-0.157c1.997,2.236,4.013,4.455,6.019,6.682
		C34.276,17.081,34.352,17.22,34.423,17.324z"/>
	<path style="fill:#037EC6;" d="M33.025,22.71c0.371-0.024,0.492,0.275,0.669,0.47c1.879,2.072,3.739,4.161,5.628,6.224
		c0.405,0.443,0.439,0.716-0.048,1.143c-2.131,1.873-4.237,3.776-6.326,5.696c-0.419,0.385-0.647,0.406-1.039-0.04
		c-1.902-2.158-3.838-4.287-5.768-6.42c-0.257-0.284-0.476-0.503-0.068-0.867c2.235-1.997,4.452-4.013,6.677-6.021
		C32.836,22.818,32.945,22.763,33.025,22.71z"/>
	<path style="fill:#037EC6;" d="M45.036,42.765c-0.172,0.186-0.319,0.369-0.491,0.525c-2.104,1.903-4.227,3.786-6.308,5.714
		c-0.505,0.468-0.768,0.304-1.143-0.116c-1.862-2.088-3.731-4.17-5.626-6.228c-0.407-0.441-0.48-0.683,0.027-1.128
		c2.133-1.871,4.221-3.794,6.327-5.696c0.298-0.269,0.544-0.551,0.964-0.076c1.96,2.214,3.952,4.4,5.931,6.597
		C44.821,42.475,44.911,42.605,45.036,42.765z"/>
	<path style="fill:#047EC6;" d="M49.75,24.907c-0.195,0.127-0.417,0.234-0.595,0.393c-1.485,1.329-2.971,2.656-4.433,4.009
		c-0.437,0.404-0.713,0.435-1.137-0.055c-1.302-1.507-2.649-2.977-4.006-4.435c-0.414-0.445-0.424-0.73,0.054-1.145
		c1.505-1.305,2.98-2.645,4.447-3.992c0.373-0.342,0.63-0.512,1.049-0.03c1.387,1.592,2.813,3.149,4.222,4.722
		C49.457,24.49,49.541,24.624,49.75,24.907z"/>
	<path style="fill:#047EC6;" d="M44.597,13.762c-0.206,0.144-0.417,0.262-0.593,0.419c-1.489,1.331-2.987,2.652-4.445,4.016
		c-0.432,0.404-0.678,0.36-1.045-0.057c-1.318-1.5-2.649-2.99-4.012-4.449c-0.418-0.448-0.461-0.729,0.024-1.152
		c1.536-1.338,3.045-2.707,4.551-4.079c0.303-0.276,0.51-0.436,0.86-0.038c1.426,1.618,2.88,3.212,4.319,4.819
		C44.358,13.353,44.426,13.496,44.597,13.762z"/>
	<path style="fill:#047EC6;" d="M49.383,30.964c0.213,0.19,0.433,0.353,0.613,0.553c1.31,1.452,2.595,2.927,3.928,4.358
		c0.416,0.447,0.471,0.703-0.03,1.136c-1.54,1.33-3.041,2.706-4.539,4.084c-0.373,0.343-0.598,0.36-0.955-0.048
		c-1.34-1.533-2.712-3.037-4.091-4.535c-0.367-0.398-0.423-0.684,0.026-1.077c1.562-1.366,3.096-2.765,4.642-4.149
		C49.094,31.18,49.224,31.089,49.383,30.964z"/>
	<path style="fill:#047EC6;" d="M54.277,42.149c0.17,0.16,0.35,0.308,0.505,0.479c1.341,1.479,2.66,2.978,4.024,4.435
		c0.433,0.463,0.418,0.742-0.058,1.157c-1.505,1.311-2.989,2.648-4.448,4.011c-0.47,0.439-0.75,0.35-1.135-0.091
		c-1.313-1.503-2.657-2.98-3.991-4.465c-0.239-0.266-0.555-0.493-0.126-0.875c1.638-1.462,3.264-2.939,4.896-4.408
		C54.031,42.314,54.133,42.254,54.277,42.149z"/>
	<path style="fill:#0680C7;" d="M53.249,10.852c-0.125,0.15-0.213,0.284-0.328,0.389c-0.971,0.883-1.952,1.756-2.919,2.644
		c-0.298,0.274-0.527,0.265-0.798-0.042c-0.87-0.984-1.745-1.964-2.642-2.922c-0.352-0.376-0.198-0.601,0.113-0.874
		c1.076-0.945,2.14-1.903,3.208-2.857c1.169,0.907,1.999,2.136,3.016,3.187C53.03,10.515,53.127,10.686,53.249,10.852z"/>
	<path style="fill:#067FC6;" d="M57.923,21.72c0.012,0.356-0.244,0.451-0.414,0.598c-1.072,0.932-2.009,2.024-3.247,2.761
		c-0.921-0.986-1.81-2.006-2.777-2.946c-0.555-0.539-0.472-0.844,0.089-1.296c0.867-0.698,1.682-1.464,2.487-2.235
		c0.422-0.404,0.716-0.473,1.132,0.028c0.763,0.918,1.591,1.783,2.389,2.672C57.713,21.448,57.83,21.605,57.923,21.72z"/>
	<path style="fill:#057FC6;" d="M59.422,29.178c0.125,0.104,0.257,0.19,0.36,0.303c0.884,0.973,1.756,1.957,2.647,2.922
		c0.267,0.289,0.341,0.516-0.026,0.769c-0.162,0.112-0.292,0.271-0.447,0.395c-1.014,0.816-1.836,1.859-2.977,2.525
		c-0.968-1.056-1.935-2.113-2.905-3.167c-0.221-0.241-0.47-0.455-0.1-0.783c1.042-0.926,2.072-1.866,3.112-2.794
		C59.169,29.274,59.29,29.243,59.422,29.178z"/>
</g>
</svg>
