<?xml version="1.0" encoding="iso-8859-1"?>
<!-- Generator: Adobe Illustrator 21.1.0, SVG Export Plug-In . SVG Version: 6.00 Build 0)  -->
<svg version="1.1" id="Capa_1" xmlns="http://www.w3.org/2000/svg" xmlns:xlink="http://www.w3.org/1999/xlink" x="0px" y="0px"
	 viewBox="-243.298 390.488 13.187 13.135" style="enable-background:new -243.298 390.488 13.187 13.135;" xml:space="preserve">
<rect x="-233.772" y="397.314" transform="matrix(0.742 -0.6704 0.6704 0.742 -326.9979 -53.4813)" width="1.578" height="1.577"/>
<rect x="-236.385" y="398.371" transform="matrix(0.7432 -0.669 0.669 0.7432 -327.6516 -54.8887)" width="2.101" height="2.102"/>
<rect x="-231.378" y="396.83" transform="matrix(0.7428 -0.6695 0.6695 0.7428 -325.4052 -52.3606)" width="1.05" height="1.05"/>
<rect x="-235.853" y="392.485" transform="matrix(0.7432 -0.669 0.669 0.7432 -323.4688 -56.2862)" width="1.577" height="1.577"/>
<rect x="-232.375" y="394.501" transform="matrix(0.742 -0.6704 0.6704 0.742 -324.6428 -53.5155)" width="1.049" height="1.05"/>
<rect x="-237.496" y="395.665" transform="matrix(0.7432 -0.669 0.669 0.7432 -326.1261 -56.3255)" width="2.103" height="2.102"/>
<rect x="-238.611" y="393.004" transform="matrix(0.7432 -0.669 0.669 0.7432 -324.632 -57.7556)" width="2.102" height="2.102"/>
<rect x="-234.773" y="394.842" transform="matrix(0.7423 -0.67 0.67 0.7423 -325.3748 -54.8364)" width="1.575" height="1.578"/>
<rect x="-233.379" y="392.183" transform="matrix(0.7428 -0.6695 0.6695 0.7428 -322.8088 -54.8956)" width="1.05" height="1.05"/>
<rect x="-232.741" y="399.68" transform="matrix(0.7429 -0.6694 0.6694 0.7429 -327.7091 -52.3092)" width="1.577" height="1.578"/>
<path d="M-233.95,400.683l-1.527,1.408l-2.578-2.869l0.717-0.631l-1.805-2.021l0.721-0.632l-1.832-2.019l2.859-2.574l0.908,0.994
	l1.533-1.368l0.906,0.939l0.604-0.541c-0.135-0.078-0.27-0.15-0.407-0.215c-0.871-0.426-1.849-0.666-2.879-0.666
	c-3.617,0-6.568,2.95-6.568,6.568c0,3.617,2.951,6.567,6.568,6.567c1.175,0,2.282-0.311,3.237-0.856
	c0.315-0.178,0.602-0.371,0.864-0.574L-233.95,400.683z"/>
</svg>
