<?xml version="1.0" encoding="iso-8859-1"?>
<!-- Generator: Adobe Illustrator 21.1.0, SVG Export Plug-In . SVG Version: 6.00 Build 0)  -->
<svg version="1.1" id="Layer_1" xmlns="http://www.w3.org/2000/svg" xmlns:xlink="http://www.w3.org/1999/xlink" x="0px" y="0px"
	 viewBox="0 0 1170.674 449.38" style="enable-background:new 0 0 1170.674 449.38;" xml:space="preserve">
<g>
	<path style="fill:#FECB00;" d="M1112.206,176.367c16.16-0.044,32.323,0.055,48.479-0.229c4.219-0.074,3.534,2.347,3.534,4.789
		c0.002,37.49,0.001,74.98,0.001,112.47c0,43.655-0.055,87.311,0.087,130.965c0.014,4.262-0.67,5.852-5.523,5.844
		c-95.974-0.168-191.949-0.119-287.924-0.131c-20.439-0.003-33.64-13.306-33.64-33.821c0-61.984,0.178-123.968-0.116-185.95
		c-0.082-17.18,5.744-31.443,17.277-43.817c14.407-15.457,31.653-27.473,48.268-40.265c51.73-39.827,102.845-80.437,153.984-121.017
		c1.933-1.534,3.901-3.025,6.718-5.206c0,59.212,0,117.56-0.001,175.908c-0.044,2.164-0.125,4.328-0.125,6.492
		c-0.008,30.32-0.033,60.641,0.036,90.961c0.007,3.056-0.642,5.179-3.442,7.064c-15.976,10.756-31.744,21.822-47.662,32.666
		C978.533,336,944.853,358.83,911.206,381.709c-10.52,7.153-21.005,14.359-31.506,21.542c2.063,0.381,3.752-0.104,5.421-0.646
		c26.697-8.674,53.395-17.345,80.085-26.039c47.699-15.538,95.386-31.114,143.106-46.587c3.028-0.982,4.006-2.466,3.998-5.674
		C1112.192,274.992,1112.215,225.679,1112.206,176.367z M1019.402,174.553c0.046-12.582-8.249-19.324-20.546-16.698
		c-15.501,3.309-29.531,20.187-29.808,35.86c-0.219,12.372,8.357,19.552,20.48,17.147
		C1005.049,207.783,1019.344,190.409,1019.402,174.553z"/>
	<path style="fill:#FE0202;" d="M121.224,289.575c0,40.154-0.069,80.308,0.093,120.461c0.019,4.663-1.062,6.713-6.067,6.302
		c-4.799-0.394-9.682-0.392-14.481,0.001c-4.837,0.396-5.837-1.607-5.808-6.055c0.177-27.49-0.037-54.983,0.209-82.472
		c0.042-4.71-1.495-5.24-5.774-5.784c-8.692-1.106-12.656,2.613-16.326,10.136c-13.111,26.877-27.088,53.33-40.585,80.02
		c-1.499,2.964-3.292,4.193-6.54,4.115c-6.494-0.156-12.995-0.028-19.493-0.051c-7.032-0.024-7.976-1.687-4.474-8.045
		c10.825-19.651,21.687-39.282,32.532-58.922c5.303-9.604,10.517-19.258,15.96-28.781c1.328-2.323,0.99-3.215-1.34-4.395
		c-28.819-14.599-40.164-39.262-40.039-70.321c0.065-16.149,2.662-31.849,10.213-46.346c12.401-23.809,32.121-36.191,58.968-36.832
		c12.322-0.294,24.66,0.077,36.986-0.116c4.535-0.071,6.063,1.535,6.046,6.125C121.164,208.934,121.224,249.254,121.224,289.575z
		 M95.054,242.581c0-17.833-0.08-35.667,0.071-53.499c0.029-3.379-0.755-4.862-4.382-4.543c-3.308,0.291-6.665,0.168-9.994,0.044
		c-17.871-0.669-29.768,8.1-36.738,23.879c-8.093,18.323-8.761,37.504-4.211,56.721c4.162,17.583,14.142,30.335,32.775,34.418
		c6.08,1.332,12.307,0.263,18.441,0.707c3.419,0.247,4.13-1.054,4.105-4.227C94.982,278.249,95.054,260.415,95.054,242.581z"/>
	<path style="fill:#D5AA05;" d="M1112.206,176.367c0.01,49.312-0.013,98.624,0.105,147.936c0.008,3.209-0.97,4.692-3.998,5.674
		c-47.72,15.473-95.407,31.049-143.106,46.587c-26.69,8.694-53.388,17.365-80.085,26.039c-1.669,0.542-3.358,1.027-5.421,0.646
		c10.501-7.182,20.985-14.388,31.506-21.542c33.647-22.879,67.327-45.708,100.953-68.617c15.918-10.844,31.685-21.91,47.662-32.666
		c2.8-1.885,3.448-4.008,3.442-7.064c-0.069-30.32-0.044-60.641-0.036-90.961c0.001-2.164,0.081-4.329,0.125-6.492
		c14.464,0.07,28.927,0.131,43.391,0.218C1108.564,176.137,1110.385,176.284,1112.206,176.367z"/>
	<path style="fill:#050505;" d="M371.069,319.568c0,22.319-0.008,44.639,0.005,66.958c0.004,6.947,0.884,8.119,7.632,7.93
		c4.535-0.127,5.666,1.627,5.603,5.864c-0.208,13.988-0.054,27.982-0.09,41.973c-0.015,5.901-1.095,6.925-7.031,6.965
		c-3.831,0.026-7.684-0.256-11.487,0.072c-4.559,0.393-5.713-1.562-5.568-5.802c0.273-7.986-0.055-15.991,0.149-23.981
		c0.074-2.908-0.879-3.531-3.626-3.517c-21.486,0.108-42.973,0.124-64.459-0.012c-3.023-0.019-3.975,0.664-3.874,3.803
		c0.246,7.654-0.048,15.324,0.129,22.982c0.102,4.413-1.654,6.541-6.123,6.467c-4.496-0.074-8.997-0.103-13.49,0.024
		c-2.908,0.082-4.207-0.903-4.187-4.014c0.099-15.49,0.107-30.981-0.006-46.47c-0.024-3.323,1.325-4.771,4.449-4.213
		c4.629,0.827,6.64-1.433,8.515-5.406c9.61-20.365,14.669-41.928,17.614-64.093c3.208-24.145,3.642-48.434,3.363-72.733
		c-0.055-4.752,1.52-5.935,5.998-5.893c20.319,0.19,40.642,0.204,60.96-0.013c4.415-0.047,5.662,1.256,5.621,5.651
		C370.957,274.595,371.069,297.082,371.069,319.568z M296.505,394.554c15.757,0,30.562-0.051,45.366,0.046
		c2.717,0.018,2.848-1.387,2.847-3.443c-0.029-39.968-0.049-79.936,0.04-119.904c0.006-2.759-0.978-3.303-3.437-3.212
		c-4.49,0.167-9.018,0.353-13.479-0.044c-3.978-0.354-4.461,1.23-4.539,4.751c-0.507,22.969-2.24,45.825-6.948,68.386
		C312.504,359.591,306.27,377.149,296.505,394.554z"/>
	<path style="fill:#040404;" d="M246.4,331.574c0,26.329-0.094,52.659,0.093,78.987c0.031,4.397-1.208,5.94-5.649,5.612
		c-4.972-0.367-10.009-0.339-14.986-0.007c-4.334,0.288-5.778-1.096-5.74-5.579c0.202-23.661,0.001-47.326,0.192-70.987
		c0.03-3.731-0.847-4.722-4.603-4.611c-9.99,0.296-19.998,0.255-29.99,0.015c-3.367-0.081-4.061,0.989-4.044,4.157
		c0.129,23.662-0.012,47.326,0.145,70.988c0.029,4.343-0.854,6.464-5.792,6.043c-5.294-0.452-10.664-0.272-15.986-0.042
		c-3.491,0.151-4.801-1.142-4.706-4.59c0.155-5.661,0.042-11.33,0.042-16.996c0-47.159-0.002-94.319,0.002-141.478
		c0.001-6.393,0.108-6.502,6.328-6.523c4.999-0.017,10.011,0.218,14.994-0.074c3.936-0.231,5.167,1.102,5.128,5.078
		c-0.185,18.662,0.159,37.332-0.235,55.987c-0.112,5.327,1.567,6.305,6.385,6.115c9.484-0.374,18.996-0.249,28.49-0.031
		c3.122,0.072,3.845-0.834,3.822-3.875c-0.145-19.163,0.042-38.328-0.161-57.49c-0.046-4.352,1.241-6.042,5.667-5.782
		c4.982,0.293,10.009,0.304,14.989-0.004c4.309-0.267,5.752,1.103,5.718,5.6C246.297,278.582,246.4,305.078,246.4,331.574z"/>
	<path style="fill:#050505;" d="M549.07,322.567c3.156-2.599,4.088-5.457,5.353-8.09c9.706-20.201,19.501-40.36,29.021-60.649
		c2.452-5.225,5.995-7.562,11.687-7.321c5.155,0.219,10.328,0.02,15.492,0.053c5.383,0.035,5.512,0.294,2.822,5.223
		c-12.246,22.443-24.426,44.923-36.824,67.282c-1.672,3.016-1.564,5.245-0.023,8.176c14.359,27.328,28.586,54.727,42.849,82.106
		c0.614,1.178,1.198,2.373,1.826,3.543c1.335,2.489,0.318,3.24-2.187,3.219c-7.33-0.06-14.662,0.053-21.991-0.062
		c-4.113-0.065-6.596-2.499-8.337-6.106c-11.473-23.765-23.021-47.493-34.554-71.229c-1.352-2.783-2.756-5.541-5.134-8.217
		c0,1.533,0,3.066,0,4.6c0,24.99-0.111,49.982,0.096,74.971c0.04,4.83-1.414,6.485-6.25,6.116
		c-5.301-0.404-10.668-0.309-15.983-0.015c-3.481,0.193-4.357-1.275-4.272-4.354c0.124-4.495,0.031-8.996,0.031-13.494
		c0-48.482,0.075-96.964-0.112-145.446c-0.02-5.085,1.375-6.854,6.463-6.411c4.795,0.418,9.676,0.365,14.481,0.01
		c4.583-0.338,5.638,1.645,5.612,5.815c-0.141,21.991-0.066,43.983-0.066,65.975C549.07,319.416,549.07,320.567,549.07,322.567z"/>
	<path style="fill:#030303;" d="M462.178,337.256c-10.069-0.233-21.746,0.628-33.346-1.097c-1.876-0.279-3.551-0.478-3.489,2.505
		c0.238,11.506,0.794,22.947,5.132,33.81c6.837,17.12,20.74,25.322,39.112,23.231c5.461-0.622,10.932-1.281,16.17-2.925
		c3.54-1.111,5.078-0.272,6.024,3.374c3.246,12.506,3.257,12.852-8.708,17.83c-14.159,5.89-28.782,8.596-43.801,4.013
		c-18.453-5.63-28.76-19.481-35.143-36.763c-6.46-17.492-7.465-35.692-6.453-54.11c1.019-18.542,3.808-36.722,11.612-53.766
		c5.984-13.068,14.268-24.133,28.569-28.96c18.352-6.195,36.497,1.994,46.231,20.591c7.971,15.229,10.588,31.717,11.284,48.628
		c0.26,6.317,0.07,12.656,0.439,18.965c0.211,3.604-0.633,4.923-4.571,4.781C482.087,337.031,472.916,337.256,462.178,337.256z
		 M450.306,315.913c4.821,0,9.649-0.146,14.461,0.056c2.776,0.117,3.91-0.674,3.65-3.579c-0.579-6.447-0.647-12.954-1.52-19.355
		c-1.075-7.89-2.692-15.745-7.215-22.553c-5.769-8.683-14.961-9.028-21.536-0.953c-1.803,2.214-3.136,4.686-4.212,7.301
		c-4.934,11.995-6.267,24.682-7.248,37.451c-0.214,2.784,1.132,2.963,3.23,2.653C436.68,315.936,443.492,315.888,450.306,315.913z"
		/>
	<path style="fill:#030303;" d="M626.591,344.347c0.231-26.094,2.819-45.413,10.43-63.849c2.614-6.331,5.876-12.281,9.942-17.775
		c13.904-18.786,32.965-24.712,55.076-17.007c4.375,1.525,8.585,3.544,12.809,5.471c3.021,1.379,3.654,3.671,1.918,6.524
		c-3.022,4.966-6.048,9.929-9.121,14.864c-1.665,2.674-3.564,3.081-6.085,0.809c-3.325-2.998-6.77-5.863-10.951-7.716
		c-7.936-3.517-14.976-1.998-20.531,4.699c-6.894,8.311-9.983,18.301-12.099,28.606c-4.709,22.936-5.524,45.894,1.243,68.586
		c3.817,12.799,10.69,23.386,24.493,27.236c8.908,2.484,17.819,0.8,26.642-1.168c7.592-1.693,6.956-3.64,8.977,5.273
		c2.224,9.808,2.304,9.932-6.888,14.18c-18.273,8.446-36.708,10.739-54.858-0.12c-14.23-8.513-21.674-22.095-26.293-37.459
		C627.625,363.289,626.463,350.733,626.591,344.347z"/>
	<path style="fill:#020200;" d="M1019.402,174.553c-0.058,15.857-14.353,33.231-29.874,36.309
		c-12.124,2.405-20.699-4.775-20.48-17.147c0.278-15.673,14.307-32.551,29.808-35.86
		C1011.153,155.229,1019.448,161.97,1019.402,174.553z"/>
</g>
</svg>
